Caladea-Regular.ufo
<glyph name="exclam" format="1">
  <advance width="286"/>
  <unicode hex="0021"/>
  <outline>
    <contour>
      <point x="151" y="212" type="line"/>
      <point x="160" y="339"/>
      <point x="198" y="521"/>
      <point x="198" y="588" type="curve" smooth="yes"/>
      <point x="198" y="632"/>
      <point x="186" y="663"/>
      <point x="143" y="663" type="curve" smooth="yes"/>
      <point x="104" y="663"/>
      <point x="83" y="646"/>
      <point x="83" y="646" type="curve"/>
      <point x="98" y="581"/>
      <point x="101" y="492"/>
      <point x="101" y="405" type="curve" smooth="yes"/>
      <point x="101" y="330"/>
      <point x="99" y="257"/>
      <point x="99" y="203" type="curve"/>
    </contour>
    <contour>
      <point x="126" y="109" type="curve" smooth="yes"/>
      <point x="90" y="109"/>
      <point x="73" y="87"/>
      <point x="73" y="51" type="curve" smooth="yes"/>
      <point x="73" y="16"/>
      <point x="90" y="-7"/>
      <point x="126" y="-7" type="curve" smooth="yes"/>
      <point x="162" y="-7"/>
      <point x="179" y="15"/>
      <point x="179" y="51" type="curve" smooth="yes"/>
      <point x="179" y="86"/>
      <point x="162" y="109"/>
    </contour>
  </outline>
</glyph>
<glyph name="quotedbl" format="1">
  <advance width="393"/>
  <unicode hex="0022"/>
  <outline>
    <contour>
      <point x="97" y="471" type="curve"/>
      <point x="141" y="471" type="line"/>
      <point x="141" y="471"/>
      <point x="165" y="604"/>
      <point x="165" y="632" type="curve" smooth="yes"/>
      <point x="165" y="661"/>
      <point x="145" y="678"/>
      <point x="119" y="678" type="curve" smooth="yes"/>
      <point x="92" y="678"/>
      <point x="73" y="661"/>
      <point x="73" y="632" type="curve" smooth="yes"/>
      <point x="73" y="603"/>
      <point x="97" y="471"/>
    </contour>
    <contour>
      <point x="257" y="471" type="curve"/>
      <point x="301" y="471" type="line"/>
      <point x="301" y="471"/>
      <point x="325" y="604"/>
      <point x="325" y="632" type="curve" smooth="yes"/>
      <point x="325" y="661"/>
      <point x="305" y="678"/>
      <point x="279" y="678" type="curve" smooth="yes"/>
      <point x="252" y="678"/>
      <point x="233" y="661"/>
      <point x="233" y="632" type="curve" smooth="yes"/>
      <point x="233" y="603"/>
      <point x="257" y="471"/>
    </contour>
  </outline>
</glyph>
<glyph name="numbersign" format="1">
  <advance width="619"/>
  <unicode hex="0023"/>
  <outline>
    <contour>
      <point x="302" y="5" type="line"/>
      <point x="353" y="-7" type="line"/>
      <point x="392" y="174" type="line"/>
      <point x="501" y="174" type="line"/>
      <point x="511" y="227" type="line"/>
      <point x="404" y="227" type="line"/>
      <point x="431" y="353" type="line"/>
      <point x="553" y="353" type="line"/>
      <point x="563" y="406" type="line"/>
      <point x="443" y="406" type="line"/>
      <point x="480" y="573" type="line"/>
      <point x="430" y="585" type="line"/>
      <point x="390" y="406" type="line"/>
      <point x="266" y="406" type="line"/>
      <point x="303" y="573" type="line"/>
      <point x="252" y="585" type="line"/>
      <point x="212" y="406" type="line"/>
      <point x="105" y="406" type="line"/>
      <point x="95" y="353" type="line"/>
      <point x="201" y="353" type="line"/>
      <point x="173" y="227" type="line"/>
      <point x="53" y="227" type="line"/>
      <point x="43" y="174" type="line"/>
      <point x="162" y="174" type="line"/>
      <point x="125" y="5" type="line"/>
      <point x="175" y="-7" type="line"/>
      <point x="215" y="174" type="line"/>
      <point x="339" y="174" type="line"/>
    </contour>
    <contour>
      <point x="254" y="353" type="line"/>
      <point x="379" y="353" type="line"/>
      <point x="351" y="227" type="line"/>
      <point x="226" y="227" type="line"/>
    </contour>
  </outline>
</glyph>
<glyph name="dollar" format="1">
  <advance width="506"/>
  <unicode hex="0024"/>
  <outline>
    <contour>
      <point x="243" y="726" type="line"/>
      <point x="243" y="634" type="line"/>
      <point x="147" y="629"/>
      <point x="79" y="566"/>
      <point x="79" y="480" type="curve" smooth="yes"/>
      <point x="79" y="369"/>
      <point x="166" y="335"/>
      <point x="243" y="303" type="curve"/>
      <point x="243" y="79" type="line"/>
      <point x="188" y="81"/>
      <point x="151" y="112"/>
      <point x="151" y="156" type="curve" smooth="yes"/>
      <point x="151" y="166"/>
      <point x="153" y="178"/>
      <point x="157" y="191" type="curve"/>
      <point x="148" y="202"/>
      <point x="129" y="209"/>
      <point x="114" y="209" type="curve" smooth="yes"/>
      <point x="84" y="209"/>
      <point x="59" y="188"/>
      <point x="59" y="158" type="curve" smooth="yes"/>
      <point x="59" y="79"/>
      <point x="128" y="32"/>
      <point x="243" y="32" type="curve"/>
      <point x="243" y="-59" type="line"/>
      <point x="254" y="-62"/>
      <point x="265" y="-64"/>
      <point x="277" y="-64" type="curve"/>
      <point x="283" y="-58" type="line"/>
      <point x="283" y="34" type="line"/>
      <point x="380" y="47"/>
      <point x="440" y="112"/>
      <point x="440" y="208" type="curve" smooth="yes"/>
      <point x="440" y="314"/>
      <point x="358" y="352"/>
      <point x="283" y="384" type="curve"/>
      <point x="283" y="585" type="line"/>
      <point x="322" y="578"/>
      <point x="348" y="554"/>
      <point x="348" y="520" type="curve" smooth="yes"/>
      <point x="348" y="506"/>
      <point x="344" y="494"/>
      <point x="337" y="483" type="curve"/>
      <point x="352" y="472"/>
      <point x="369" y="467"/>
      <point x="386" y="467" type="curve" smooth="yes"/>
      <point x="413" y="467"/>
      <point x="430" y="491"/>
      <point x="430" y="528" type="curve" smooth="yes"/>
      <point x="430" y="581"/>
      <point x="366" y="625"/>
      <point x="283" y="633" type="curve"/>
      <point x="283" y="728" type="line"/>
      <point x="274" y="731"/>
      <point x="260" y="732"/>
      <point x="249" y="732" type="curve"/>
    </contour>
    <contour>
      <point x="161" y="489" type="curve" smooth="yes"/>
      <point x="161" y="548"/>
      <point x="189" y="581"/>
      <point x="243" y="586" type="curve"/>
      <point x="243" y="401" type="line"/>
      <point x="197" y="422"/>
      <point x="161" y="445"/>
    </contour>
    <contour>
      <point x="358" y="180" type="curve" smooth="yes"/>
      <point x="358" y="124"/>
      <point x="327" y="93"/>
      <point x="283" y="83" type="curve"/>
      <point x="283" y="284" type="line"/>
      <point x="325" y="261"/>
      <point x="358" y="233"/>
    </contour>
  </outline>
</glyph>
<glyph name="percent" format="1">
  <advance width="890"/>
  <unicode hex="0025"/>
  <outline>
    <contour>
      <point x="193" y="-19" type="line"/>
      <point x="244" y="-49" type="line"/>
      <point x="692" y="676" type="line"/>
      <point x="642" y="706" type="line"/>
    </contour>
    <contour>
      <point x="201" y="341" type="curve" smooth="yes"/>
      <point x="140" y="341"/>
      <point x="127" y="399"/>
      <point x="127" y="492" type="curve" smooth="yes"/>
      <point x="127" y="585"/>
      <point x="140" y="643"/>
      <point x="201" y="643" type="curve" smooth="yes"/>
      <point x="263" y="643"/>
      <point x="275" y="585"/>
      <point x="275" y="492" type="curve" smooth="yes"/>
      <point x="275" y="399"/>
      <point x="263" y="341"/>
    </contour>
    <contour>
      <point x="201" y="302" type="curve" smooth="yes"/>
      <point x="298" y="302"/>
      <point x="342" y="376"/>
      <point x="342" y="492" type="curve" smooth="yes"/>
      <point x="342" y="609"/>
      <point x="298" y="682"/>
      <point x="201" y="682" type="curve" smooth="yes"/>
      <point x="104" y="682"/>
      <point x="60" y="609"/>
      <point x="60" y="492" type="curve" smooth="yes"/>
      <point x="60" y="376"/>
      <point x="104" y="302"/>
    </contour>
    <contour>
      <point x="683" y="32" type="curve" smooth="yes"/>
      <point x="622" y="32"/>
      <point x="609" y="90"/>
      <point x="609" y="183" type="curve" smooth="yes"/>
      <point x="609" y="276"/>
      <point x="622" y="334"/>
      <point x="683" y="334" type="curve" smooth="yes"/>
      <point x="745" y="334"/>
      <point x="757" y="276"/>
      <point x="757" y="183" type="curve" smooth="yes"/>
      <point x="757" y="90"/>
      <point x="745" y="32"/>
    </contour>
    <contour>
      <point x="683" y="-7" type="curve" smooth="yes"/>
      <point x="780" y="-7"/>
      <point x="824" y="67"/>
      <point x="824" y="183" type="curve" smooth="yes"/>
      <point x="824" y="300"/>
      <point x="780" y="373"/>
      <point x="683" y="373" type="curve" smooth="yes"/>
      <point x="586" y="373"/>
      <point x="542" y="300"/>
      <point x="542" y="183" type="curve" smooth="yes"/>
      <point x="542" y="67"/>
      <point x="586" y="-7"/>
    </contour>
  </outline>
</glyph>
<glyph name="ampersand" format="1">
  <advance width="687"/>
  <unicode hex="0026"/>
  <outline>
    <contour>
      <point x="44" y="196" type="curve" smooth="yes"/>
      <point x="44" y="69"/>
      <point x="141" y="-8"/>
      <point x="313" y="-8" type="curve" smooth="yes"/>
      <point x="471" y="-8"/>
      <point x="581" y="78"/>
      <point x="581" y="237" type="curve" smooth="yes"/>
      <point x="581" y="288"/>
      <point x="571" y="339"/>
      <point x="552" y="385" type="curve"/>
      <point x="644" y="387"/>
      <point x="691" y="421"/>
      <point x="691" y="481" type="curve" smooth="yes"/>
      <point x="691" y="514"/>
      <point x="671" y="537"/>
      <point x="641" y="537" type="curve" smooth="yes"/>
      <point x="625" y="537"/>
      <point x="610" y="530"/>
      <point x="598" y="518" type="curve"/>
      <point x="610" y="507"/>
      <point x="617" y="492"/>
      <point x="617" y="476" type="curve" smooth="yes"/>
      <point x="617" y="440"/>
      <point x="585" y="426"/>
      <point x="514" y="426" type="curve" smooth="yes"/>
      <point x="404" y="426"/>
      <point x="355" y="394"/>
      <point x="355" y="335" type="curve" smooth="yes"/>
      <point x="355" y="300"/>
      <point x="376" y="275"/>
      <point x="405" y="275" type="curve" smooth="yes"/>
      <point x="422" y="275"/>
      <point x="437" y="282"/>
      <point x="449" y="294" type="curve"/>
      <point x="437" y="304"/>
      <point x="429" y="319"/>
      <point x="429" y="335" type="curve" smooth="yes"/>
      <point x="429" y="366"/>
      <point x="451" y="381"/>
      <point x="504" y="384" type="curve"/>
      <point x="518" y="342"/>
      <point x="527" y="297"/>
      <point x="527" y="251" type="curve" smooth="yes"/>
      <point x="527" y="106"/>
      <point x="425" y="42"/>
      <point x="312" y="42" type="curve" smooth="yes"/>
      <point x="208" y="42"/>
      <point x="136" y="92"/>
      <point x="136" y="200" type="curve" smooth="yes"/>
      <point x="136" y="291"/>
      <point x="199" y="352"/>
      <point x="296" y="364" type="curve"/>
      <point x="296" y="412" type="line"/>
      <point x="209" y="414"/>
      <point x="183" y="472"/>
      <point x="183" y="517" type="curve" smooth="yes"/>
      <point x="183" y="588"/>
      <point x="219" y="631"/>
      <point x="284" y="631" type="curve" smooth="yes"/>
      <point x="334" y="631"/>
      <point x="376" y="611"/>
      <point x="376" y="553" type="curve" smooth="yes"/>
      <point x="376" y="537"/>
      <point x="369" y="523"/>
      <point x="362" y="512" type="curve"/>
      <point x="373" y="496"/>
      <point x="392" y="486"/>
      <point x="410" y="486" type="curve" smooth="yes"/>
      <point x="439" y="486"/>
      <point x="463" y="511"/>
      <point x="463" y="552" type="curve" smooth="yes"/>
      <point x="463" y="627"/>
      <point x="385" y="670"/>
      <point x="284" y="670" type="curve" smooth="yes"/>
      <point x="184" y="670"/>
      <point x="97" y="625"/>
      <point x="97" y="518" type="curve" smooth="yes"/>
      <point x="97" y="452"/>
      <point x="131" y="409"/>
      <point x="182" y="386" type="curve"/>
      <point x="94" y="356"/>
      <point x="44" y="295"/>
    </contour>
  </outline>
</glyph>
<glyph name="quotesingle" format="1">
  <advance width="237"/>
  <unicode hex="0027"/>
  <outline>
    <contour>
      <point x="97" y="467" type="curve"/>
      <point x="141" y="467" type="line"/>
      <point x="141" y="467"/>
      <point x="165" y="600"/>
      <point x="165" y="628" type="curve" smooth="yes"/>
      <point x="165" y="657"/>
      <point x="145" y="674"/>
      <point x="119" y="674" type="curve" smooth="yes"/>
      <point x="92" y="674"/>
      <point x="73" y="657"/>
      <point x="73" y="628" type="curve" smooth="yes"/>
      <point x="73" y="599"/>
      <point x="97" y="467"/>
    </contour>
  </outline>
</glyph>
<glyph name="parenleft" format="1">
  <advance width="382"/>
  <unicode hex="0028"/>
  <outline>
    <contour>
      <point x="284" y="-145" type="curve"/>
      <point x="309" y="-119" type="line"/>
      <point x="219" y="-25"/>
      <point x="160" y="103"/>
      <point x="160" y="283" type="curve" smooth="yes"/>
      <point x="160" y="463"/>
      <point x="219" y="591"/>
      <point x="309" y="685" type="curve"/>
      <point x="284" y="710" type="line"/>
      <point x="284" y="710"/>
      <point x="88" y="569"/>
      <point x="88" y="282" type="curve" smooth="yes"/>
      <point x="88" y="-5"/>
      <point x="284" y="-145"/>
    </contour>
  </outline>
</glyph>
<glyph name="parenright" format="1">
  <advance width="382"/>
  <unicode hex="0029"/>
  <outline>
    <contour>
      <point x="98" y="-145" type="line"/>
      <point x="98" y="-145"/>
      <point x="294" y="-5"/>
      <point x="294" y="282" type="curve" smooth="yes"/>
      <point x="294" y="569"/>
      <point x="98" y="710"/>
      <point x="98" y="710" type="curve"/>
      <point x="73" y="685" type="line"/>
      <point x="172" y="581"/>
      <point x="222" y="447"/>
      <point x="222" y="283" type="curve" smooth="yes"/>
      <point x="222" y="103"/>
      <point x="163" y="-25"/>
      <point x="73" y="-119" type="curve"/>
    </contour>
  </outline>
</glyph>
<glyph name="plus" format="1">
  <advance width="554"/>
  <unicode hex="002B"/>
  <outline>
    <contour>
      <point x="72" y="259" type="line"/>
      <point x="244" y="259" type="line"/>
      <point x="244" y="82" type="line"/>
      <point x="304" y="82" type="line"/>
      <point x="304" y="259" type="line"/>
      <point x="481" y="259" type="line"/>
      <point x="481" y="312" type="line"/>
      <point x="304" y="312" type="line"/>
      <point x="304" y="490" type="line"/>
      <point x="244" y="490" type="line"/>
      <point x="244" y="312" type="line"/>
      <point x="72" y="312" type="line"/>
    </contour>
  </outline>
</glyph>
<glyph name="comma" format="1">
  <advance width="205"/>
  <unicode hex="002C"/>
  <outline>
    <contour>
      <point x="51" y="11" type="curve"/>
      <point x="56" y="13"/>
      <point x="61" y="14"/>
      <point x="63" y="14" type="curve" smooth="yes"/>
      <point x="77" y="14"/>
      <point x="83" y="0"/>
      <point x="83" y="-18" type="curve" smooth="yes"/>
      <point x="83" y="-46"/>
      <point x="67" y="-83"/>
      <point x="39" y="-106" type="curve"/>
      <point x="63" y="-135" type="line"/>
      <point x="125" y="-96"/>
      <point x="164" y="-41"/>
      <point x="164" y="26" type="curve" smooth="yes"/>
      <point x="164" y="70"/>
      <point x="139" y="99"/>
      <point x="101" y="99" type="curve" smooth="yes"/>
      <point x="65" y="99"/>
      <point x="40" y="77"/>
      <point x="40" y="48" type="curve" smooth="yes"/>
      <point x="40" y="32"/>
      <point x="44" y="19"/>
    </contour>
  </outline>
</glyph>
<glyph name="hyphen" format="1">
  <advance width="332"/>
  <unicode hex="002D"/>
  <outline>
    <contour>
      <point x="52" y="231" type="line"/>
      <point x="281" y="231" type="line"/>
      <point x="281" y="285" type="line"/>
      <point x="52" y="285" type="line"/>
    </contour>
  </outline>
</glyph>
<glyph name="period" format="1">
  <advance width="205"/>
  <unicode hex="002E"/>
  <outline>
    <contour>
      <point x="102" y="109" type="curve" smooth="yes"/>
      <point x="66" y="109"/>
      <point x="49" y="87"/>
      <point x="49" y="51" type="curve" smooth="yes"/>
      <point x="49" y="16"/>
      <point x="66" y="-7"/>
      <point x="102" y="-7" type="curve" smooth="yes"/>
      <point x="138" y="-7"/>
      <point x="155" y="15"/>
      <point x="155" y="51" type="curve" smooth="yes"/>
      <point x="155" y="86"/>
      <point x="138" y="109"/>
    </contour>
  </outline>
</glyph>
<glyph name="slash" format="1">
  <advance width="490"/>
  <unicode hex="002F"/>
  <outline>
    <contour>
      <point x="77" y="-112" type="line"/>
      <point x="132" y="-132" type="line"/>
      <point x="445" y="678" type="line"/>
      <point x="390" y="699" type="line"/>
    </contour>
  </outline>
</glyph>
<glyph name="zero" format="1">
  <advance width="554"/>
  <unicode hex="0030"/>
  <outline>
    <contour>
      <point x="281" y="42" type="curve" smooth="yes"/>
      <point x="179" y="42"/>
      <point x="140" y="122"/>
      <point x="140" y="333" type="curve" smooth="yes"/>
      <point x="140" y="541"/>
      <point x="179" y="621"/>
      <point x="281" y="621" type="curve" smooth="yes"/>
      <point x="382" y="621"/>
      <point x="422" y="540"/>
      <point x="422" y="333" type="curve" smooth="yes"/>
      <point x="422" y="123"/>
      <point x="383" y="42"/>
    </contour>
    <contour>
      <point x="281" y="-7" type="curve" smooth="yes"/>
      <point x="431" y="-7"/>
      <point x="513" y="113"/>
      <point x="513" y="333" type="curve" smooth="yes"/>
      <point x="513" y="552"/>
      <point x="431" y="671"/>
      <point x="281" y="671" type="curve" smooth="yes"/>
      <point x="131" y="671"/>
      <point x="48" y="551"/>
      <point x="48" y="333" type="curve" smooth="yes"/>
      <point x="48" y="114"/>
      <point x="131" y="-7"/>
    </contour>
  </outline>
</glyph>
<glyph name="one" format="1">
  <advance width="554"/>
  <unicode hex="0031"/>
  <outline>
    <contour>
      <point x="131" y="0" type="line"/>
      <point x="479" y="0" type="line"/>
      <point x="482" y="34" type="line"/>
      <point x="459" y="37"/>
      <point x="386" y="48"/>
      <point x="357" y="64" type="curve"/>
      <point x="357" y="656" type="line"/>
      <point x="324" y="671" type="line"/>
      <point x="266" y="640"/>
      <point x="203" y="621"/>
      <point x="135" y="615" type="curve"/>
      <point x="135" y="572" type="line"/>
      <point x="269" y="572" type="line"/>
      <point x="269" y="64" type="line"/>
      <point x="237" y="50"/>
      <point x="189" y="40"/>
      <point x="133" y="34" type="curve"/>
    </contour>
  </outline>
</glyph>
<glyph name="two" format="1">
  <advance width="554"/>
  <unicode hex="0032"/>
  <outline>
    <contour>
      <point x="176" y="74" type="line"/>
      <point x="386" y="254"/>
      <point x="460" y="374"/>
      <point x="460" y="486" type="curve" smooth="yes"/>
      <point x="460" y="605"/>
      <point x="390" y="671"/>
      <point x="264" y="671" type="curve" smooth="yes"/>
      <point x="162" y="671"/>
      <point x="70" y="629"/>
      <point x="70" y="531" type="curve" smooth="yes"/>
      <point x="70" y="477"/>
      <point x="102" y="455"/>
      <point x="132" y="455" type="curve" smooth="yes"/>
      <point x="152" y="455"/>
      <point x="171" y="464"/>
      <point x="184" y="477" type="curve"/>
      <point x="170" y="495"/>
      <point x="163" y="514"/>
      <point x="163" y="534" type="curve" smooth="yes"/>
      <point x="163" y="588"/>
      <point x="201" y="621"/>
      <point x="264" y="621" type="curve" smooth="yes"/>
      <point x="340" y="621"/>
      <point x="367" y="569"/>
      <point x="367" y="496" type="curve" smooth="yes"/>
      <point x="367" y="382"/>
      <point x="299" y="274"/>
      <point x="71" y="58" type="curve"/>
      <point x="71" y="0" type="line"/>
      <point x="486" y="0" type="line"/>
      <point x="486" y="74" type="line"/>
    </contour>
  </outline>
</glyph>
<glyph name="three" format="1">
  <advance width="554"/>
  <unicode hex="0033"/>
  <outline>
    <contour>
      <point x="214" y="328" type="line"/>
      <point x="322" y="328"/>
      <point x="385" y="274"/>
      <point x="385" y="182" type="curve" smooth="yes"/>
      <point x="385" y="95"/>
      <point x="344" y="42"/>
      <point x="276" y="42" type="curve" smooth="yes"/>
      <point x="209" y="42"/>
      <point x="167" y="75"/>
      <point x="167" y="127" type="curve" smooth="yes"/>
      <point x="167" y="139"/>
      <point x="170" y="155"/>
      <point x="175" y="169" type="curve"/>
      <point x="160" y="180"/>
      <point x="143" y="186"/>
      <point x="128" y="186" type="curve" smooth="yes"/>
      <point x="94" y="186"/>
      <point x="70" y="163"/>
      <point x="70" y="130" type="curve" smooth="yes"/>
      <point x="70" y="45"/>
      <point x="146" y="-7"/>
      <point x="271" y="-7" type="curve" smooth="yes"/>
      <point x="390" y="-7"/>
      <point x="473" y="70"/>
      <point x="473" y="181" type="curve" smooth="yes"/>
      <point x="473" y="270"/>
      <point x="427" y="326"/>
      <point x="334" y="351" type="curve"/>
      <point x="421" y="379"/>
      <point x="465" y="433"/>
      <point x="465" y="508" type="curve" smooth="yes"/>
      <point x="465" y="605"/>
      <point x="390" y="671"/>
      <point x="280" y="671" type="curve" smooth="yes"/>
      <point x="176" y="671"/>
      <point x="95" y="616"/>
      <point x="95" y="546" type="curve" smooth="yes"/>
      <point x="95" y="506"/>
      <point x="113" y="481"/>
      <point x="142" y="481" type="curve" smooth="yes"/>
      <point x="160" y="481"/>
      <point x="177" y="487"/>
      <point x="193" y="499" type="curve"/>
      <point x="186" y="508"/>
      <point x="182" y="522"/>
      <point x="182" y="537" type="curve" smooth="yes"/>
      <point x="182" y="587"/>
      <point x="220" y="621"/>
      <point x="278" y="621" type="curve" smooth="yes"/>
      <point x="339" y="621"/>
      <point x="373" y="581"/>
      <point x="373" y="508" type="curve" smooth="yes"/>
      <point x="373" y="422"/>
      <point x="318" y="375"/>
      <point x="214" y="372" type="curve"/>
    </contour>
  </outline>
</glyph>
<glyph name="four" format="1">
  <advance width="554"/>
  <unicode hex="0034"/>
  <outline>
    <contour>
      <point x="330" y="183" type="line"/>
      <point x="330" y="64" type="line"/>
      <point x="301" y="47"/>
      <point x="270" y="41"/>
      <point x="238" y="37" type="curve"/>
      <point x="232" y="0" type="line"/>
      <point x="500" y="0" type="line"/>
      <point x="505" y="37" type="line"/>
      <point x="476" y="41"/>
      <point x="445" y="47"/>
      <point x="418" y="64" type="curve"/>
      <point x="418" y="183" type="line"/>
      <point x="513" y="183" type="line"/>
      <point x="513" y="238" type="line"/>
      <point x="418" y="238" type="line"/>
      <point x="418" y="667" type="line"/>
      <point x="317" y="667" type="line"/>
      <point x="35" y="217" type="line"/>
      <point x="42" y="183" type="line"/>
    </contour>
    <contour>
      <point x="114" y="238" type="line"/>
      <point x="330" y="586" type="line"/>
      <point x="330" y="238" type="line"/>
    </contour>
  </outline>
</glyph>
<glyph name="five" format="1">
  <advance width="554"/>
  <unicode hex="0035"/>
  <outline>
    <contour>
      <point x="117" y="656" type="line"/>
      <point x="117" y="346" type="line"/>
      <point x="148" y="313" type="line"/>
      <point x="190" y="338"/>
      <point x="240" y="353"/>
      <point x="281" y="353" type="curve" smooth="yes"/>
      <point x="360" y="353"/>
      <point x="408" y="295"/>
      <point x="408" y="201" type="curve" smooth="yes"/>
      <point x="408" y="100"/>
      <point x="362" y="43"/>
      <point x="280" y="43" type="curve" smooth="yes"/>
      <point x="222" y="43"/>
      <point x="182" y="77"/>
      <point x="182" y="128" type="curve" smooth="yes"/>
      <point x="182" y="140"/>
      <point x="185" y="152"/>
      <point x="191" y="169" type="curve"/>
      <point x="177" y="180"/>
      <point x="160" y="185"/>
      <point x="142" y="185" type="curve" smooth="yes"/>
      <point x="107" y="185"/>
      <point x="85" y="161"/>
      <point x="85" y="123" type="curve" smooth="yes"/>
      <point x="85" y="46"/>
      <point x="165" y="-8"/>
      <point x="277" y="-8" type="curve" smooth="yes"/>
      <point x="407" y="-8"/>
      <point x="495" y="77"/>
      <point x="495" y="201" type="curve" smooth="yes"/>
      <point x="495" y="325"/>
      <point x="414" y="405"/>
      <point x="290" y="405" type="curve" smooth="yes"/>
      <point x="253" y="405"/>
      <point x="216" y="398"/>
      <point x="180" y="384" type="curve"/>
      <point x="180" y="596" type="line"/>
      <point x="449" y="596" type="line"/>
      <point x="457" y="655" type="line"/>
      <point x="437" y="669" type="line"/>
      <point x="388" y="668"/>
      <point x="343" y="668"/>
      <point x="280" y="668" type="curve" smooth="yes"/>
      <point x="237" y="668"/>
      <point x="220" y="668"/>
      <point x="137" y="670" type="curve"/>
    </contour>
  </outline>
</glyph>
<glyph name="six" format="1">
  <advance width="554"/>
  <unicode hex="0036"/>
  <outline>
    <contour>
      <point x="411" y="630" type="curve"/>
      <point x="394" y="673" type="line"/>
      <point x="178" y="624"/>
      <point x="66" y="482"/>
      <point x="66" y="257" type="curve" smooth="yes"/>
      <point x="66" y="77"/>
      <point x="135" y="-10"/>
      <point x="278" y="-10" type="curve" smooth="yes"/>
      <point x="411" y="-10"/>
      <point x="496" y="69"/>
      <point x="496" y="193" type="curve" smooth="yes"/>
      <point x="496" y="309"/>
      <point x="416" y="389"/>
      <point x="301" y="389" type="curve" smooth="yes"/>
      <point x="253" y="389"/>
      <point x="205" y="375"/>
      <point x="163" y="348" type="curve"/>
      <point x="184" y="503"/>
      <point x="263" y="591"/>
    </contour>
    <contour>
      <point x="286" y="333" type="curve" smooth="yes"/>
      <point x="360" y="333"/>
      <point x="404" y="280"/>
      <point x="404" y="192" type="curve" smooth="yes"/>
      <point x="404" y="96"/>
      <point x="358" y="40"/>
      <point x="279" y="40" type="curve" smooth="yes"/>
      <point x="198" y="40"/>
      <point x="157" y="113"/>
      <point x="157" y="258" type="curve" smooth="yes"/>
      <point x="157" y="267"/>
      <point x="157" y="275"/>
      <point x="158" y="284" type="curve"/>
      <point x="196" y="313"/>
      <point x="246" y="333"/>
    </contour>
  </outline>
</glyph>
<glyph name="seven" format="1">
  <advance width="554"/>
  <unicode hex="0037"/>
  <outline>
    <contour>
      <point x="493" y="668" type="line"/>
      <point x="493" y="668"/>
      <point x="393" y="667"/>
      <point x="283" y="667" type="curve" smooth="yes"/>
      <point x="182" y="667"/>
      <point x="92" y="668"/>
      <point x="92" y="668" type="curve"/>
      <point x="78" y="653" type="line"/>
      <point x="78" y="640"/>
      <point x="80" y="612"/>
      <point x="85" y="570" type="curve" smooth="yes"/>
      <point x="88" y="539"/>
      <point x="92" y="510"/>
      <point x="93" y="486" type="curve"/>
      <point x="101" y="485"/>
      <point x="107" y="484"/>
      <point x="113" y="484" type="curve" smooth="yes"/>
      <point x="122" y="484"/>
      <point x="126" y="484"/>
      <point x="131" y="485" type="curve"/>
      <point x="134" y="486" type="line"/>
      <point x="136" y="524"/>
      <point x="143" y="560"/>
      <point x="155" y="594" type="curve"/>
      <point x="430" y="594" type="line"/>
      <point x="152" y="0" type="line"/>
      <point x="228" y="0" type="line"/>
      <point x="511" y="625" type="line"/>
    </contour>
  </outline>
</glyph>
<glyph name="eight" format="1">
  <advance width="554"/>
  <unicode hex="0038"/>
  <outline>
    <contour>
      <point x="71" y="172" type="curve" smooth="yes"/>
      <point x="71" y="58"/>
      <point x="150" y="-7"/>
      <point x="289" y="-7" type="curve" smooth="yes"/>
      <point x="419" y="-7"/>
      <point x="501" y="66"/>
      <point x="501" y="181" type="curve" smooth="yes"/>
      <point x="501" y="264"/>
      <point x="461" y="321"/>
      <point x="372" y="366" type="curve"/>
      <point x="435" y="405"/>
      <point x="471" y="458"/>
      <point x="471" y="513" type="curve" smooth="yes"/>
      <point x="471" y="611"/>
      <point x="401" y="671"/>
      <point x="287" y="671" type="curve" smooth="yes"/>
      <point x="172" y="671"/>
      <point x="96" y="605"/>
      <point x="96" y="505" type="curve" smooth="yes"/>
      <point x="96" y="438"/>
      <point x="126" y="390"/>
      <point x="191" y="355" type="curve"/>
      <point x="114" y="307"/>
      <point x="71" y="242"/>
    </contour>
    <contour>
      <point x="264" y="322" type="line" smooth="yes"/>
      <point x="369" y="276"/>
      <point x="411" y="240"/>
      <point x="411" y="177" type="curve" smooth="yes"/>
      <point x="411" y="93"/>
      <point x="365" y="42"/>
      <point x="289" y="42" type="curve" smooth="yes"/>
      <point x="210" y="42"/>
      <point x="162" y="93"/>
      <point x="162" y="178" type="curve" smooth="yes"/>
      <point x="162" y="248"/>
      <point x="186" y="296"/>
      <point x="241" y="332" type="curve"/>
    </contour>
    <contour>
      <point x="181" y="514" type="curve" smooth="yes"/>
      <point x="181" y="582"/>
      <point x="220" y="621"/>
      <point x="286" y="621" type="curve" smooth="yes"/>
      <point x="345" y="621"/>
      <point x="385" y="578"/>
      <point x="385" y="514" type="curve" smooth="yes"/>
      <point x="385" y="457"/>
      <point x="366" y="421"/>
      <point x="321" y="389" type="curve"/>
      <point x="314" y="393" type="line"/>
      <point x="213" y="435"/>
      <point x="181" y="464"/>
    </contour>
  </outline>
</glyph>
<glyph name="nine" format="1">
  <advance width="554"/>
  <unicode hex="0039"/>
  <outline>
    <contour>
      <point x="142" y="31" type="curve"/>
      <point x="159" y="-12" type="line"/>
      <point x="375" y="37"/>
      <point x="487" y="179"/>
      <point x="487" y="404" type="curve" smooth="yes"/>
      <point x="487" y="584"/>
      <point x="418" y="671"/>
      <point x="275" y="671" type="curve" smooth="yes"/>
      <point x="142" y="671"/>
      <point x="57" y="592"/>
      <point x="57" y="468" type="curve" smooth="yes"/>
      <point x="57" y="352"/>
      <point x="137" y="272"/>
      <point x="252" y="272" type="curve" smooth="yes"/>
      <point x="300" y="272"/>
      <point x="348" y="286"/>
      <point x="390" y="313" type="curve"/>
      <point x="369" y="158"/>
      <point x="290" y="70"/>
    </contour>
    <contour>
      <point x="267" y="328" type="curve" smooth="yes"/>
      <point x="193" y="328"/>
      <point x="149" y="381"/>
      <point x="149" y="469" type="curve" smooth="yes"/>
      <point x="149" y="565"/>
      <point x="195" y="621"/>
      <point x="274" y="621" type="curve" smooth="yes"/>
      <point x="355" y="621"/>
      <point x="396" y="548"/>
      <point x="396" y="403" type="curve" smooth="yes"/>
      <point x="396" y="394"/>
      <point x="396" y="386"/>
      <point x="395" y="377" type="curve"/>
      <point x="357" y="348"/>
      <point x="307" y="328"/>
    </contour>
  </outline>
</glyph>
<glyph name="colon" format="1">
  <advance width="264"/>
  <unicode hex="003A"/>
  <outline>
    <contour>
      <point x="131" y="109" type="curve" smooth="yes"/>
      <point x="95" y="109"/>
      <point x="78" y="87"/>
      <point x="78" y="51" type="curve" smooth="yes"/>
      <point x="78" y="16"/>
      <point x="95" y="-7"/>
      <point x="131" y="-7" type="curve" smooth="yes"/>
      <point x="167" y="-7"/>
      <point x="184" y="15"/>
      <point x="184" y="51" type="curve" smooth="yes"/>
      <point x="184" y="86"/>
      <point x="167" y="109"/>
    </contour>
    <contour>
      <point x="131" y="443" type="curve" smooth="yes"/>
      <point x="95" y="443"/>
      <point x="78" y="421"/>
      <point x="78" y="385" type="curve" smooth="yes"/>
      <point x="78" y="350"/>
      <point x="95" y="327"/>
      <point x="131" y="327" type="curve" smooth="yes"/>
      <point x="167" y="327"/>
      <point x="184" y="349"/>
      <point x="184" y="385" type="curve" smooth="yes"/>
      <point x="184" y="420"/>
      <point x="167" y="443"/>
    </contour>
  </outline>
</glyph>
<glyph name="semicolon" format="1">
  <advance width="264"/>
  <unicode hex="003B"/>
  <outline>
    <contour>
      <point x="80" y="11" type="curve"/>
      <point x="85" y="13"/>
      <point x="90" y="14"/>
      <point x="92" y="14" type="curve" smooth="yes"/>
      <point x="106" y="14"/>
      <point x="112" y="0"/>
      <point x="112" y="-18" type="curve" smooth="yes"/>
      <point x="112" y="-46"/>
      <point x="96" y="-83"/>
      <point x="68" y="-106" type="curve"/>
      <point x="92" y="-135" type="line"/>
      <point x="154" y="-96"/>
      <point x="193" y="-41"/>
      <point x="193" y="26" type="curve" smooth="yes"/>
      <point x="193" y="70"/>
      <point x="168" y="99"/>
      <point x="130" y="99" type="curve" smooth="yes"/>
      <point x="94" y="99"/>
      <point x="69" y="77"/>
      <point x="69" y="48" type="curve" smooth="yes"/>
      <point x="69" y="32"/>
      <point x="73" y="19"/>
    </contour>
    <contour>
      <point x="131" y="443" type="curve" smooth="yes"/>
      <point x="95" y="443"/>
      <point x="78" y="421"/>
      <point x="78" y="385" type="curve" smooth="yes"/>
      <point x="78" y="350"/>
      <point x="95" y="327"/>
      <point x="131" y="327" type="curve" smooth="yes"/>
      <point x="167" y="327"/>
      <point x="184" y="349"/>
      <point x="184" y="385" type="curve" smooth="yes"/>
      <point x="184" y="420"/>
      <point x="167" y="443"/>
    </contour>
  </outline>
</glyph>
<glyph name="less" format="1">
  <advance width="554"/>
  <unicode hex="003C"/>
  <outline>
    <contour>
      <point x="64" y="260" type="line"/>
      <point x="447" y="79" type="line"/>
      <point x="472" y="129" type="line"/>
      <point x="143" y="286" type="line"/>
      <point x="472" y="442" type="line"/>
      <point x="447" y="493" type="line"/>
      <point x="64" y="312" type="line"/>
    </contour>
  </outline>
</glyph>
<glyph name="equal" format="1">
  <advance width="554"/>
  <unicode hex="003D"/>
  <outline>
    <contour>
      <point x="62" y="187" type="line"/>
      <point x="492" y="187" type="line"/>
      <point x="492" y="240" type="line"/>
      <point x="62" y="240" type="line"/>
    </contour>
    <contour>
      <point x="62" y="331" type="line"/>
      <point x="492" y="331" type="line"/>
      <point x="492" y="383" type="line"/>
      <point x="62" y="383" type="line"/>
    </contour>
  </outline>
</glyph>
<glyph name="greater" format="1">
  <advance width="554"/>
  <unicode hex="003E"/>
  <outline>
    <contour>
      <point x="485" y="312" type="line"/>
      <point x="102" y="493" type="line"/>
      <point x="77" y="442" type="line"/>
      <point x="406" y="286" type="line"/>
      <point x="77" y="129" type="line"/>
      <point x="102" y="79" type="line"/>
      <point x="485" y="260" type="line"/>
    </contour>
  </outline>
</glyph>
<glyph name="question" format="1">
  <advance width="422"/>
  <unicode hex="003F"/>
  <outline>
    <contour>
      <point x="94" y="265" type="curve" smooth="yes"/>
      <point x="94" y="232"/>
      <point x="111" y="203"/>
      <point x="143" y="203" type="curve" smooth="yes"/>
      <point x="160" y="203"/>
      <point x="177" y="211"/>
      <point x="187" y="219" type="curve"/>
      <point x="183" y="235"/>
      <point x="181" y="250"/>
      <point x="181" y="263" type="curve" smooth="yes"/>
      <point x="181" y="354"/>
      <point x="342" y="390"/>
      <point x="342" y="529" type="curve" smooth="yes"/>
      <point x="342" y="622"/>
      <point x="270" y="656"/>
      <point x="177" y="656" type="curve" smooth="yes"/>
      <point x="105" y="656"/>
      <point x="24" y="625"/>
      <point x="24" y="554" type="curve" smooth="yes"/>
      <point x="24" y="519"/>
      <point x="39" y="497"/>
      <point x="74" y="497" type="curve" smooth="yes"/>
      <point x="95" y="497"/>
      <point x="109" y="507"/>
      <point x="122" y="526" type="curve"/>
      <point x="114" y="540"/>
      <point x="111" y="552"/>
      <point x="111" y="562" type="curve" smooth="yes"/>
      <point x="111" y="600"/>
      <point x="144" y="614"/>
      <point x="181" y="614" type="curve" smooth="yes"/>
      <point x="226" y="614"/>
      <point x="263" y="586"/>
      <point x="263" y="541" type="curve" smooth="yes"/>
      <point x="263" y="412"/>
      <point x="94" y="398"/>
    </contour>
    <contour>
      <point x="153" y="109" type="curve" smooth="yes"/>
      <point x="117" y="109"/>
      <point x="100" y="87"/>
      <point x="100" y="51" type="curve" smooth="yes"/>
      <point x="100" y="16"/>
      <point x="117" y="-7"/>
      <point x="153" y="-7" type="curve" smooth="yes"/>
      <point x="189" y="-7"/>
      <point x="206" y="15"/>
      <point x="206" y="51" type="curve" smooth="yes"/>
      <point x="206" y="86"/>
      <point x="189" y="109"/>
    </contour>
  </outline>
</glyph>
<glyph name="at" format="1">
  <advance width="885"/>
  <unicode hex="0040"/>
  <outline>
    <contour>
      <point x="277" y="139" type="curve" smooth="yes"/>
      <point x="277" y="70"/>
      <point x="319" y="32"/>
      <point x="392" y="32" type="curve" smooth="yes"/>
      <point x="435" y="32"/>
      <point x="471" y="39"/>
      <point x="520" y="81" type="curve"/>
      <point x="534" y="50"/>
      <point x="570" y="28"/>
      <point x="653" y="28" type="curve" smooth="yes"/>
      <point x="776" y="28"/>
      <point x="838" y="147"/>
      <point x="838" y="298" type="curve" smooth="yes"/>
      <point x="838" y="496"/>
      <point x="696" y="645"/>
      <point x="451" y="645" type="curve" smooth="yes"/>
      <point x="203" y="645"/>
      <point x="51" y="469"/>
      <point x="51" y="251" type="curve" smooth="yes"/>
      <point x="51" y="12"/>
      <point x="202" y="-142"/>
      <point x="441" y="-142" type="curve" smooth="yes"/>
      <point x="510" y="-142"/>
      <point x="571" y="-126"/>
      <point x="622" y="-94" type="curve"/>
      <point x="600" y="-59" type="line"/>
      <point x="557" y="-85"/>
      <point x="499" y="-97"/>
      <point x="441" y="-97" type="curve" smooth="yes"/>
      <point x="255" y="-97"/>
      <point x="140" y="59"/>
      <point x="140" y="251" type="curve" smooth="yes"/>
      <point x="140" y="444"/>
      <point x="259" y="602"/>
      <point x="451" y="602" type="curve" smooth="yes"/>
      <point x="660" y="602"/>
      <point x="749" y="463"/>
      <point x="749" y="298" type="curve" smooth="yes"/>
      <point x="749" y="181"/>
      <point x="717" y="75"/>
      <point x="659" y="75" type="curve" smooth="yes"/>
      <point x="618" y="75"/>
      <point x="595" y="94"/>
      <point x="595" y="139" type="curve" smooth="yes"/>
      <point x="595" y="349" type="line" smooth="yes"/>
      <point x="595" y="429"/>
      <point x="536" y="476"/>
      <point x="438" y="476" type="curve" smooth="yes"/>
      <point x="347" y="476"/>
      <point x="285" y="436"/>
      <point x="285" y="370" type="curve" smooth="yes"/>
      <point x="285" y="339"/>
      <point x="305" y="314"/>
      <point x="340" y="314" type="curve" smooth="yes"/>
      <point x="375" y="314"/>
      <point x="396" y="331"/>
      <point x="396" y="363" type="curve"/>
      <point x="376" y="370"/>
      <point x="367" y="381"/>
      <point x="367" y="395" type="curve" smooth="yes"/>
      <point x="367" y="422"/>
      <point x="393" y="439"/>
      <point x="438" y="439" type="curve" smooth="yes"/>
      <point x="489" y="439"/>
      <point x="511" y="411"/>
      <point x="511" y="349" type="curve" smooth="yes"/>
      <point x="511" y="281" type="line"/>
      <point x="441" y="275" type="line" smooth="yes"/>
      <point x="323" y="265"/>
      <point x="277" y="214"/>
    </contour>
    <contour>
      <point x="360" y="147" type="curve" smooth="yes"/>
      <point x="360" y="193"/>
      <point x="392" y="229"/>
      <point x="445" y="233" type="curve" smooth="yes"/>
      <point x="511" y="238" type="line"/>
      <point x="511" y="126" type="line"/>
      <point x="474" y="89"/>
      <point x="447" y="75"/>
      <point x="416" y="75" type="curve" smooth="yes"/>
      <point x="377" y="75"/>
      <point x="360" y="101"/>
    </contour>
  </outline>
</glyph>
<glyph name="A" format="1">
  <advance width="623"/>
  <unicode hex="0041"/>
  <outline>
    <contour>
      <point x="13" y="0" type="line"/>
      <point x="245" y="0" type="line"/>
      <point x="249" y="37" type="line"/>
      <point x="216" y="41"/>
      <point x="181" y="47"/>
      <point x="152" y="64" type="curve"/>
      <point x="198" y="215" type="line"/>
      <point x="400" y="215" type="line"/>
      <point x="451" y="64" type="line"/>
      <point x="422" y="47"/>
      <point x="392" y="41"/>
      <point x="359" y="37" type="curve"/>
      <point x="354" y="0" type="line"/>
      <point x="604" y="0" type="line"/>
      <point x="608" y="37" type="line"/>
      <point x="585" y="41"/>
      <point x="563" y="47"/>
      <point x="542" y="62" type="curve"/>
      <point x="336" y="667" type="line"/>
      <point x="276" y="667" type="line"/>
      <point x="89" y="63" type="line"/>
      <point x="66" y="46"/>
      <point x="44" y="41"/>
      <point x="18" y="37" type="curve"/>
    </contour>
    <contour>
      <point x="295" y="528" type="line"/>
      <point x="383" y="267" type="line"/>
      <point x="214" y="267" type="line"/>
    </contour>
  </outline>
</glyph>
<glyph name="B" format="1">
  <advance width="611"/>
  <unicode hex="0042"/>
  <outline>
    <contour>
      <point x="305" y="667" type="curve" smooth="yes"/>
      <point x="46" y="667" type="line"/>
      <point x="41" y="631" type="line"/>
      <point x="84" y="626"/>
      <point x="116" y="617"/>
      <point x="139" y="604" type="curve"/>
      <point x="139" y="64" type="line"/>
      <point x="115" y="50"/>
      <point x="88" y="42"/>
      <point x="47" y="37" type="curve"/>
      <point x="45" y="25"/>
      <point x="43" y="13"/>
      <point x="42" y="0" type="curve"/>
      <point x="332" y="0" type="line" smooth="yes"/>
      <point x="479" y="0"/>
      <point x="562" y="74"/>
      <point x="562" y="188" type="curve" smooth="yes"/>
      <point x="562" y="270"/>
      <point x="507" y="328"/>
      <point x="417" y="354" type="curve"/>
      <point x="494" y="376"/>
      <point x="534" y="425"/>
      <point x="534" y="501" type="curve" smooth="yes"/>
      <point x="534" y="607"/>
      <point x="460" y="667"/>
    </contour>
    <contour>
      <point x="227" y="327" type="line"/>
      <point x="306" y="327" type="line" smooth="yes"/>
      <point x="418" y="327"/>
      <point x="471" y="275"/>
      <point x="471" y="187" type="curve" smooth="yes"/>
      <point x="471" y="98"/>
      <point x="425" y="49"/>
      <point x="332" y="49" type="curve" smooth="yes"/>
      <point x="286" y="49"/>
      <point x="227" y="53"/>
      <point x="227" y="53" type="curve"/>
    </contour>
    <contour>
      <point x="304" y="621" type="curve" smooth="yes"/>
      <point x="403" y="621"/>
      <point x="447" y="583"/>
      <point x="447" y="499" type="curve" smooth="yes"/>
      <point x="447" y="415"/>
      <point x="403" y="376"/>
      <point x="307" y="376" type="curve" smooth="yes"/>
      <point x="227" y="376" type="line"/>
      <point x="227" y="617" type="line"/>
      <point x="266" y="620"/>
      <point x="293" y="621"/>
    </contour>
  </outline>
</glyph>
<glyph name="C" format="1">
  <advance width="562"/>
  <unicode hex="0043"/>
  <outline>
    <contour>
      <point x="489" y="135" type="line"/>
      <point x="458" y="95"/>
      <point x="387" y="53"/>
      <point x="313" y="53" type="curve" smooth="yes"/>
      <point x="204" y="53"/>
      <point x="154" y="141"/>
      <point x="154" y="334" type="curve" smooth="yes"/>
      <point x="154" y="531"/>
      <point x="205" y="622"/>
      <point x="313" y="622" type="curve" smooth="yes"/>
      <point x="375" y="622"/>
      <point x="415" y="595"/>
      <point x="415" y="554" type="curve" smooth="yes"/>
      <point x="415" y="538"/>
      <point x="409" y="522"/>
      <point x="396" y="504" type="curve"/>
      <point x="404" y="481"/>
      <point x="428" y="465"/>
      <point x="454" y="465" type="curve" smooth="yes"/>
      <point x="486" y="465"/>
      <point x="512" y="500"/>
      <point x="512" y="544" type="curve" smooth="yes"/>
      <point x="512" y="620"/>
      <point x="428" y="676"/>
      <point x="313" y="676" type="curve" smooth="yes"/>
      <point x="137" y="676"/>
      <point x="54" y="566"/>
      <point x="54" y="334" type="curve" smooth="yes"/>
      <point x="54" y="101"/>
      <point x="136" y="-7"/>
      <point x="312" y="-7" type="curve" smooth="yes"/>
      <point x="443" y="-7"/>
      <point x="524" y="97"/>
      <point x="524" y="97" type="curve"/>
    </contour>
  </outline>
</glyph>
<glyph name="F" format="1">
  <advance width="537"/>
  <unicode hex="0046"/>
  <outline>
    <contour>
      <point x="31" y="0" type="line"/>
      <point x="310" y="0" type="line"/>
      <point x="314" y="37" type="line"/>
      <point x="281" y="41"/>
      <point x="243" y="48"/>
      <point x="217" y="64" type="curve"/>
      <point x="217" y="310" type="line"/>
      <point x="329" y="304" type="line" smooth="yes"/>
      <point x="366" y="302"/>
      <point x="379" y="262"/>
      <point x="385" y="237" type="curve"/>
      <point x="386" y="231" type="line"/>
      <point x="418" y="231" type="line"/>
      <point x="418" y="429" type="line"/>
      <point x="386" y="429" type="line"/>
      <point x="380" y="405"/>
      <point x="364" y="362"/>
      <point x="330" y="361" type="curve" smooth="yes"/>
      <point x="217" y="356" type="line"/>
      <point x="217" y="614" type="line"/>
      <point x="400" y="614" type="line"/>
      <point x="427" y="583"/>
      <point x="441" y="543"/>
      <point x="447" y="512" type="curve"/>
      <point x="452" y="510"/>
      <point x="458" y="510"/>
      <point x="463" y="510" type="curve" smooth="yes"/>
      <point x="473" y="510"/>
      <point x="482" y="512"/>
      <point x="490" y="515" type="curve"/>
      <point x="482" y="667" type="line"/>
      <point x="36" y="667" type="line"/>
      <point x="35" y="655"/>
      <point x="33" y="643"/>
      <point x="31" y="631" type="curve"/>
      <point x="65" y="627"/>
      <point x="100" y="619"/>
      <point x="129" y="604" type="curve"/>
      <point x="129" y="64" type="line"/>
      <point x="113" y="52"/>
      <point x="70" y="41"/>
      <point x="37" y="37" type="curve"/>
    </contour>
  </outline>
</glyph>
<glyph name="G" format="1">
  <advance width="611"/>
  <unicode hex="0047"/>
  <outline>
    <contour>
      <point x="353" y="279" type="line"/>
      <point x="389" y="276"/>
      <point x="422" y="272"/>
      <point x="455" y="258" type="curve"/>
      <point x="455" y="83" type="line"/>
      <point x="406" y="48"/>
      <point x="349" y="46"/>
      <point x="332" y="46" type="curve" smooth="yes"/>
      <point x="184" y="46"/>
      <point x="161" y="182"/>
      <point x="161" y="334" type="curve" smooth="yes"/>
      <point x="161" y="487"/>
      <point x="185" y="622"/>
      <point x="334" y="622" type="curve" smooth="yes"/>
      <point x="395" y="622"/>
      <point x="446" y="600"/>
      <point x="446" y="554" type="curve" smooth="yes"/>
      <point x="446" y="539"/>
      <point x="440" y="523"/>
      <point x="427" y="504" type="curve"/>
      <point x="435" y="482"/>
      <point x="458" y="465"/>
      <point x="485" y="465" type="curve" smooth="yes"/>
      <point x="516" y="465"/>
      <point x="544" y="496"/>
      <point x="544" y="544" type="curve" smooth="yes"/>
      <point x="544" y="638"/>
      <point x="425" y="676"/>
      <point x="333" y="676" type="curve" smooth="yes"/>
      <point x="129" y="676"/>
      <point x="60" y="543"/>
      <point x="60" y="334" type="curve" smooth="yes"/>
      <point x="60" y="126"/>
      <point x="126" y="-7"/>
      <point x="332" y="-7" type="curve" smooth="yes"/>
      <point x="403" y="-7"/>
      <point x="488" y="11"/>
      <point x="544" y="42" type="curve"/>
      <point x="544" y="325" type="line"/>
      <point x="357" y="316" type="line"/>
    </contour>
  </outline>
</glyph>
<glyph name="J" format="1">
  <advance width="307"/>
  <unicode hex="004A"/>
  <outline>
    <contour>
      <point x="198" y="16" type="curve" smooth="yes"/>
      <point x="198" y="604" type="line"/>
      <point x="226" y="620"/>
      <point x="256" y="627"/>
      <point x="289" y="631" type="curve"/>
      <point x="291" y="643"/>
      <point x="293" y="655"/>
      <point x="294" y="667" type="curve"/>
      <point x="17" y="667" type="line"/>
      <point x="12" y="631" type="line"/>
      <point x="46" y="627"/>
      <point x="81" y="619"/>
      <point x="110" y="604" type="curve"/>
      <point x="110" y="1" type="line" smooth="yes"/>
      <point x="110" y="-98"/>
      <point x="51" y="-141"/>
      <point x="-8" y="-168" type="curve"/>
      <point x="3" y="-198" type="line"/>
      <point x="120" y="-167"/>
      <point x="198" y="-107"/>
    </contour>
  </outline>
</glyph>
<glyph name="L" format="1">
  <advance width="537"/>
  <unicode hex="004C"/>
  <outline>
    <contour>
      <point x="494" y="0" type="line"/>
      <point x="503" y="171" type="line"/>
      <point x="495" y="173"/>
      <point x="488" y="174"/>
      <point x="481" y="174" type="curve" smooth="yes"/>
      <point x="474" y="174"/>
      <point x="468" y="173"/>
      <point x="463" y="171" type="curve"/>
      <point x="457" y="138"/>
      <point x="445" y="94"/>
      <point x="420" y="58" type="curve"/>
      <point x="233" y="58" type="line"/>
      <point x="233" y="604" type="line"/>
      <point x="262" y="620"/>
      <point x="292" y="627"/>
      <point x="325" y="631" type="curve"/>
      <point x="330" y="667" type="line"/>
      <point x="53" y="667" type="line"/>
      <point x="51" y="655"/>
      <point x="49" y="643"/>
      <point x="48" y="631" type="curve"/>
      <point x="80" y="627"/>
      <point x="116" y="619"/>
      <point x="144" y="604" type="curve"/>
      <point x="144" y="64" type="line"/>
      <point x="117" y="47"/>
      <point x="86" y="41"/>
      <point x="54" y="37" type="curve"/>
      <point x="48" y="0" type="line"/>
    </contour>
  </outline>
</glyph>
<glyph name="M" format="1">
  <advance width="815"/>
  <unicode hex="004D"/>
  <outline>
    <contour>
      <point x="190" y="667" type="line"/>
      <point x="-3" y="667" type="line"/>
      <point x="-7" y="631" type="line"/>
      <point x="25" y="627"/>
      <point x="61" y="619"/>
      <point x="89" y="604" type="curve"/>
      <point x="89" y="64" type="line"/>
      <point x="61" y="47"/>
      <point x="31" y="41"/>
      <point x="-2" y="37" type="curve"/>
      <point x="-7" y="0" type="line"/>
      <point x="246" y="0" type="line"/>
      <point x="250" y="37" type="line"/>
      <point x="217" y="41"/>
      <point x="182" y="47"/>
      <point x="153" y="64" type="curve"/>
      <point x="153" y="538" type="line"/>
      <point x="157" y="538" type="line"/>
      <point x="370" y="0" type="line"/>
      <point x="429" y="0" type="line"/>
      <point x="632" y="529" type="line"/>
      <point x="636" y="529" type="line"/>
      <point x="636" y="64" type="line"/>
      <point x="607" y="47"/>
      <point x="578" y="41"/>
      <point x="544" y="37" type="curve"/>
      <point x="543" y="25"/>
      <point x="541" y="13"/>
      <point x="539" y="0" type="curve"/>
      <point x="817" y="0" type="line"/>
      <point x="821" y="37" type="line"/>
      <point x="788" y="41"/>
      <point x="753" y="47"/>
      <point x="724" y="64" type="curve"/>
      <point x="724" y="604" type="line"/>
      <point x="753" y="620"/>
      <point x="782" y="627"/>
      <point x="816" y="631" type="curve"/>
      <point x="817" y="643"/>
      <point x="819" y="655"/>
      <point x="821" y="667" type="curve"/>
      <point x="630" y="667" type="line"/>
      <point x="414" y="123" type="line"/>
    </contour>
  </outline>
</glyph>
<glyph name="N" format="1">
  <advance width="681"/>
  <unicode hex="004E"/>
  <outline>
    <contour>
      <point x="189" y="667" type="line"/>
      <point x="30" y="667" type="line"/>
      <point x="29" y="655"/>
      <point x="27" y="643"/>
      <point x="25" y="631" type="curve"/>
      <point x="59" y="627"/>
      <point x="94" y="619"/>
      <point x="123" y="604" type="curve"/>
      <point x="123" y="64" type="line"/>
      <point x="94" y="47"/>
      <point x="64" y="41"/>
      <point x="31" y="37" type="curve"/>
      <point x="25" y="0" type="line"/>
      <point x="279" y="0" type="line"/>
      <point x="283" y="37" type="line"/>
      <point x="251" y="41"/>
      <point x="214" y="48"/>
      <point x="186" y="64" type="curve"/>
      <point x="186" y="515" type="line"/>
      <point x="526" y="0" type="line"/>
      <point x="569" y="0" type="line"/>
      <point x="569" y="604" type="line"/>
      <point x="598" y="620"/>
      <point x="627" y="627"/>
      <point x="661" y="631" type="curve"/>
      <point x="662" y="643"/>
      <point x="664" y="655"/>
      <point x="666" y="667" type="curve"/>
      <point x="413" y="667" type="line"/>
      <point x="411" y="655"/>
      <point x="409" y="643"/>
      <point x="408" y="631" type="curve"/>
      <point x="440" y="627"/>
      <point x="477" y="619"/>
      <point x="504" y="604" type="curve"/>
      <point x="504" y="191" type="line"/>
    </contour>
  </outline>
</glyph>
<glyph name="P" format="1">
  <advance width="568"/>
  <unicode hex="0050"/>
  <outline>
    <contour>
      <point x="37" y="0" type="line"/>
      <point x="315" y="0" type="line"/>
      <point x="319" y="37" type="line"/>
      <point x="286" y="41"/>
      <point x="251" y="47"/>
      <point x="222" y="64" type="curve"/>
      <point x="222" y="293" type="line"/>
      <point x="254" y="293" type="line" smooth="yes"/>
      <point x="415" y="293"/>
      <point x="520" y="335"/>
      <point x="520" y="482" type="curve" smooth="yes"/>
      <point x="520" y="598"/>
      <point x="453" y="667"/>
      <point x="298" y="667" type="curve" smooth="yes"/>
      <point x="41" y="667" type="line"/>
      <point x="40" y="655"/>
      <point x="38" y="643"/>
      <point x="36" y="631" type="curve"/>
      <point x="70" y="627"/>
      <point x="105" y="619"/>
      <point x="134" y="604" type="curve"/>
      <point x="134" y="64" type="line"/>
      <point x="105" y="47"/>
      <point x="75" y="41"/>
      <point x="43" y="37" type="curve"/>
    </contour>
    <contour>
      <point x="430" y="484" type="curve" smooth="yes"/>
      <point x="430" y="381"/>
      <point x="362" y="338"/>
      <point x="254" y="338" type="curve" smooth="yes"/>
      <point x="222" y="338" type="line"/>
      <point x="222" y="619" type="line"/>
      <point x="245" y="623"/>
      <point x="268" y="625"/>
      <point x="288" y="625" type="curve" smooth="yes"/>
      <point x="372" y="625"/>
      <point x="430" y="589"/>
    </contour>
  </outline>
</glyph>
<glyph name="Q" format="1">
  <advance width="653"/>
  <unicode hex="0051"/>
  <outline>
    <contour>
      <point x="327" y="676" type="curve" smooth="yes"/>
      <point x="122" y="676"/>
      <point x="53" y="543"/>
      <point x="53" y="334" type="curve" smooth="yes"/>
      <point x="53" y="134"/>
      <point x="117" y="3"/>
      <point x="304" y="-6" type="curve"/>
      <point x="343" y="-82"/>
      <point x="409" y="-150"/>
      <point x="529" y="-170" type="curve"/>
      <point x="536" y="-164"/>
      <point x="539" y="-156"/>
      <point x="539" y="-146" type="curve" smooth="yes"/>
      <point x="539" y="-140" type="line"/>
      <point x="468" y="-116"/>
      <point x="409" y="-65"/>
      <point x="385" y="-2" type="curve"/>
      <point x="544" y="22"/>
      <point x="600" y="147"/>
      <point x="600" y="333" type="curve" smooth="yes"/>
      <point x="600" y="542"/>
      <point x="531" y="676"/>
    </contour>
    <contour>
      <point x="327" y="42" type="curve" smooth="yes"/>
      <point x="177" y="42"/>
      <point x="154" y="181"/>
      <point x="154" y="334" type="curve" smooth="yes"/>
      <point x="154" y="488"/>
      <point x="177" y="626"/>
      <point x="327" y="626" type="curve" smooth="yes"/>
      <point x="477" y="626"/>
      <point x="499" y="487"/>
      <point x="499" y="333" type="curve" smooth="yes"/>
      <point x="499" y="180"/>
      <point x="477" y="42"/>
    </contour>
  </outline>
</glyph>
<glyph name="T" format="1">
  <advance width="593"/>
  <unicode hex="0054"/>
  <outline>
    <contour>
      <point x="156" y="0" type="line"/>
      <point x="434" y="0" type="line"/>
      <point x="435" y="13"/>
      <point x="437" y="25"/>
      <point x="439" y="37" type="curve"/>
      <point x="406" y="41"/>
      <point x="370" y="48"/>
      <point x="341" y="64" type="curve"/>
      <point x="341" y="622" type="line"/>
      <point x="405" y="621"/>
      <point x="445" y="617"/>
      <point x="473" y="614" type="curve"/>
      <point x="497" y="578"/>
      <point x="506" y="528"/>
      <point x="509" y="499" type="curve"/>
      <point x="517" y="498"/>
      <point x="524" y="498"/>
      <point x="532" y="498" type="curve" smooth="yes"/>
      <point x="539" y="498"/>
      <point x="546" y="498"/>
      <point x="553" y="499" type="curve"/>
      <point x="553" y="671" type="line"/>
      <point x="543" y="670"/>
      <point x="391" y="667"/>
      <point x="296" y="667" type="curve" smooth="yes"/>
      <point x="172" y="667"/>
      <point x="40" y="671"/>
      <point x="40" y="671" type="curve"/>
      <point x="40" y="499" type="line"/>
      <point x="47" y="498"/>
      <point x="54" y="498"/>
      <point x="60" y="498" type="curve" smooth="yes"/>
      <point x="68" y="498"/>
      <point x="77" y="499"/>
      <point x="84" y="499" type="curve"/>
      <point x="85" y="529"/>
      <point x="96" y="579"/>
      <point x="122" y="615" type="curve"/>
      <point x="150" y="618"/>
      <point x="190" y="621"/>
      <point x="253" y="622" type="curve"/>
      <point x="253" y="64" type="line"/>
      <point x="225" y="47"/>
      <point x="194" y="41"/>
      <point x="162" y="37" type="curve"/>
    </contour>
  </outline>
</glyph>
<glyph name="V" format="1">
  <advance width="604"/>
  <unicode hex="0056"/>
  <outline>
    <contour>
      <point x="596" y="667" type="line"/>
      <point x="376" y="667" type="line"/>
      <point x="375" y="655"/>
      <point x="373" y="643"/>
      <point x="371" y="631" type="curve"/>
      <point x="403" y="627"/>
      <point x="435" y="618"/>
      <point x="462" y="604" type="curve"/>
      <point x="319" y="153" type="line"/>
      <point x="162" y="604" type="line"/>
      <point x="189" y="620"/>
      <point x="217" y="627"/>
      <point x="248" y="631" type="curve"/>
      <point x="254" y="667" type="line"/>
      <point x="12" y="667" type="line"/>
      <point x="7" y="631" type="line"/>
      <point x="29" y="626"/>
      <point x="54" y="616"/>
      <point x="68" y="604" type="curve"/>
      <point x="284" y="0" type="line"/>
      <point x="332" y="0" type="line"/>
      <point x="528" y="605" type="line"/>
      <point x="548" y="619"/>
      <point x="568" y="627"/>
      <point x="590" y="631" type="curve"/>
    </contour>
  </outline>
</glyph>
<glyph name="X" format="1">
  <advance width="571"/>
  <unicode hex="0058"/>
  <outline>
    <contour>
      <point x="262" y="667" type="line"/>
      <point x="15" y="667" type="line"/>
      <point x="10" y="631" type="line"/>
      <point x="37" y="624"/>
      <point x="57" y="615"/>
      <point x="71" y="605" type="curve"/>
      <point x="242" y="339" type="line"/>
      <point x="68" y="61" type="line"/>
      <point x="42" y="44"/>
      <point x="11" y="39"/>
      <point x="-20" y="37" type="curve"/>
      <point x="-21" y="25"/>
      <point x="-23" y="13"/>
      <point x="-25" y="0" type="curve"/>
      <point x="229" y="0" type="line"/>
      <point x="233" y="37" type="line"/>
      <point x="185" y="37"/>
      <point x="153" y="44"/>
      <point x="140" y="61" type="curve"/>
      <point x="277" y="283" type="line"/>
      <point x="417" y="63" type="line"/>
      <point x="401" y="47"/>
      <point x="379" y="37"/>
      <point x="331" y="37" type="curve"/>
      <point x="330" y="25"/>
      <point x="328" y="13"/>
      <point x="326" y="0" type="curve"/>
      <point x="592" y="0" type="line"/>
      <point x="593" y="13"/>
      <point x="595" y="25"/>
      <point x="597" y="37" type="curve"/>
      <point x="577" y="40"/>
      <point x="548" y="44"/>
      <point x="523" y="61" type="curve"/>
      <point x="335" y="355" type="line"/>
      <point x="491" y="605" type="line"/>
      <point x="507" y="617"/>
      <point x="527" y="627"/>
      <point x="555" y="631" type="curve"/>
      <point x="560" y="667" type="line"/>
      <point x="343" y="667" type="line"/>
      <point x="341" y="655"/>
      <point x="339" y="643"/>
      <point x="338" y="631" type="curve"/>
      <point x="372" y="625"/>
      <point x="401" y="614"/>
      <point x="418" y="604" type="curve"/>
      <point x="298" y="412" type="line"/>
      <point x="176" y="604" type="line"/>
      <point x="195" y="616"/>
      <point x="223" y="626"/>
      <point x="256" y="631" type="curve"/>
    </contour>
  </outline>
</glyph>
<glyph name="Y" format="1">
  <advance width="570"/>
  <unicode hex="0059"/>
  <outline>
    <contour>
      <point x="141" y="0" type="line"/>
      <point x="429" y="0" type="line"/>
      <point x="433" y="37" type="line"/>
      <point x="398" y="41"/>
      <point x="361" y="47"/>
      <point x="331" y="64" type="curve"/>
      <point x="331" y="277" type="line"/>
      <point x="493" y="605" type="line"/>
      <point x="511" y="619"/>
      <point x="532" y="627"/>
      <point x="554" y="631" type="curve"/>
      <point x="560" y="667" type="line"/>
      <point x="340" y="667" type="line"/>
      <point x="338" y="655"/>
      <point x="336" y="643"/>
      <point x="335" y="631" type="curve"/>
      <point x="367" y="627"/>
      <point x="399" y="618"/>
      <point x="424" y="605" type="curve"/>
      <point x="296" y="343" type="line"/>
      <point x="171" y="604" type="line"/>
      <point x="199" y="620"/>
      <point x="228" y="627"/>
      <point x="258" y="631" type="curve"/>
      <point x="259" y="643"/>
      <point x="261" y="655"/>
      <point x="263" y="667" type="curve"/>
      <point x="16" y="667" type="line"/>
      <point x="11" y="631" type="line"/>
      <point x="34" y="626"/>
      <point x="58" y="616"/>
      <point x="73" y="605" type="curve"/>
      <point x="243" y="265" type="line"/>
      <point x="243" y="64" type="line"/>
      <point x="212" y="46"/>
      <point x="182" y="41"/>
      <point x="146" y="37" type="curve"/>
    </contour>
  </outline>
</glyph>
<glyph name="Z" format="1">
  <advance width="538"/>
  <unicode hex="005A"/>
  <outline>
    <contour>
      <point x="498" y="181" type="line"/>
      <point x="491" y="182"/>
      <point x="484" y="183"/>
      <point x="476" y="183" type="curve" smooth="yes"/>
      <point x="470" y="183"/>
      <point x="461" y="182"/>
      <point x="455" y="181" type="curve"/>
      <point x="442" y="132"/>
      <point x="418" y="87"/>
      <point x="389" y="52" type="curve"/>
      <point x="341" y="51"/>
      <point x="286" y="51"/>
      <point x="240" y="51" type="curve" smooth="yes"/>
      <point x="204" y="51"/>
      <point x="171" y="51"/>
      <point x="144" y="52" type="curve"/>
      <point x="499" y="632" type="line"/>
      <point x="490" y="672" type="line"/>
      <point x="463" y="671"/>
      <point x="381" y="667"/>
      <point x="296" y="667" type="curve" smooth="yes"/>
      <point x="194" y="667"/>
      <point x="74" y="672"/>
      <point x="74" y="672" type="curve"/>
      <point x="48" y="648" type="line"/>
      <point x="60" y="502" type="line"/>
      <point x="65" y="501"/>
      <point x="72" y="501"/>
      <point x="77" y="501" type="curve" smooth="yes"/>
      <point x="84" y="501"/>
      <point x="92" y="502"/>
      <point x="98" y="502" type="curve"/>
      <point x="105" y="543"/>
      <point x="122" y="593"/>
      <point x="146" y="614" type="curve"/>
      <point x="191" y="615"/>
      <point x="248" y="616"/>
      <point x="295" y="616" type="curve" smooth="yes"/>
      <point x="345" y="616" type="line" smooth="yes"/>
      <point x="358" y="616"/>
      <point x="372" y="615"/>
      <point x="384" y="615" type="curve"/>
      <point x="38" y="46" type="line"/>
      <point x="41" y="-4" type="line"/>
      <point x="48" y="-3"/>
      <point x="141" y="0"/>
      <point x="239" y="0" type="curve" smooth="yes"/>
      <point x="322" y="0"/>
      <point x="443" y="-1"/>
      <point x="489" y="-3" type="curve"/>
    </contour>
  </outline>
</glyph>
<glyph name="bracketleft" format="1">
  <advance width="350"/>
  <unicode hex="005B"/>
  <outline>
    <contour>
      <point x="292" y="-140" type="line"/>
      <point x="292" y="-106" type="line"/>
      <point x="179" y="-96" type="line"/>
      <point x="179" y="666" type="line"/>
      <point x="292" y="676" type="line"/>
      <point x="292" y="709" type="line"/>
      <point x="111" y="709" type="line"/>
      <point x="111" y="-140" type="line"/>
    </contour>
  </outline>
</glyph>
<glyph name="backslash" format="1">
  <advance width="490"/>
  <unicode hex="005C"/>
  <outline>
    <contour>
      <point x="355" y="-125" type="line"/>
      <point x="411" y="-104" type="line"/>
      <point x="105" y="692" type="line"/>
      <point x="49" y="671" type="line"/>
    </contour>
  </outline>
</glyph>
<glyph name="bracketright" format="1">
  <advance width="350"/>
  <unicode hex="005D"/>
  <outline>
    <contour>
      <point x="239" y="-140" type="line"/>
      <point x="239" y="709" type="line"/>
      <point x="58" y="709" type="line"/>
      <point x="58" y="676" type="line"/>
      <point x="171" y="666" type="line"/>
      <point x="171" y="-96" type="line"/>
      <point x="58" y="-106" type="line"/>
      <point x="58" y="-140" type="line"/>
    </contour>
  </outline>
</glyph>
<glyph name="asciicircum" format="1">
  <advance width="554"/>
  <unicode hex="005E"/>
  <outline>
    <contour>
      <point x="251" y="674" type="line"/>
      <point x="70" y="356" type="line"/>
      <point x="121" y="331" type="line"/>
      <point x="277" y="604" type="line"/>
      <point x="434" y="331" type="line"/>
      <point x="484" y="356" type="line"/>
      <point x="303" y="674" type="line"/>
    </contour>
  </outline>
</glyph>
<glyph name="underscore" format="1">
  <advance width="371"/>
  <unicode hex="005F"/>
  <outline>
    <contour>
      <point x="371" y="-112" type="line"/>
      <point x="371" y="-58" type="line"/>
      <point x="0" y="-58" type="line"/>
      <point x="0" y="-112" type="line"/>
    </contour>
  </outline>
</glyph>
<glyph name="grave" format="1">
  <advance width="285"/>
  <unicode hex="0060"/>
  <outline>
    <contour>
      <point x="208" y="548" type="line"/>
      <point x="125" y="664" type="line" smooth="yes"/>
      <point x="116" y="676"/>
      <point x="107" y="681"/>
      <point x="93" y="681" type="curve" smooth="yes"/>
      <point x="74" y="681"/>
      <point x="57" y="664"/>
      <point x="57" y="646" type="curve" smooth="yes"/>
      <point x="57" y="630"/>
      <point x="67" y="620"/>
      <point x="82" y="607" type="curve" smooth="yes"/>
      <point x="184" y="524" type="line"/>
    </contour>
  </outline>
</glyph>
<glyph name="b" format="1">
  <advance width="547"/>
  <unicode hex="0062"/>
  <outline>
    <contour>
      <point x="24" y="633" type="line"/>
      <point x="76" y="631"/>
      <point x="94" y="617"/>
      <point x="94" y="567" type="curve" smooth="yes"/>
      <point x="94" y="0" type="line"/>
      <point x="142" y="0" type="line"/>
      <point x="146" y="16"/>
      <point x="152" y="27"/>
      <point x="162" y="42" type="curve"/>
      <point x="190" y="16"/>
      <point x="229" y="-7"/>
      <point x="278" y="-7" type="curve" smooth="yes"/>
      <point x="422" y="-7"/>
      <point x="494" y="98"/>
      <point x="494" y="237" type="curve" smooth="yes"/>
      <point x="494" y="376"/>
      <point x="440" y="476"/>
      <point x="298" y="476" type="curve" smooth="yes"/>
      <point x="248" y="476"/>
      <point x="200" y="444"/>
      <point x="180" y="406" type="curve"/>
      <point x="180" y="687" type="line"/>
      <point x="160" y="697" type="line"/>
      <point x="119" y="685"/>
      <point x="72" y="670"/>
      <point x="27" y="663" type="curve"/>
    </contour>
    <contour>
      <point x="403" y="237" type="curve" smooth="yes"/>
      <point x="403" y="144"/>
      <point x="390" y="35"/>
      <point x="283" y="35" type="curve" smooth="yes"/>
      <point x="240" y="35"/>
      <point x="206" y="62"/>
      <point x="180" y="85" type="curve"/>
      <point x="180" y="205" type="line" smooth="yes"/>
      <point x="180" y="315"/>
      <point x="192" y="433"/>
      <point x="300" y="433" type="curve" smooth="yes"/>
      <point x="394" y="433"/>
      <point x="403" y="339"/>
    </contour>
  </outline>
</glyph>
<glyph name="c" format="1">
  <advance width="441"/>
  <unicode hex="0063"/>
  <outline>
    <contour>
      <point x="42" y="238" type="curve"/>
      <point x="42" y="82"/>
      <point x="97" y="-7"/>
      <point x="253" y="-7" type="curve" smooth="yes"/>
      <point x="348" y="-7"/>
      <point x="411" y="59"/>
      <point x="411" y="59" type="curve"/>
      <point x="385" y="89" type="line"/>
      <point x="385" y="89"/>
      <point x="333" y="42"/>
      <point x="258" y="42" type="curve" smooth="yes"/>
      <point x="147" y="42"/>
      <point x="135" y="126"/>
      <point x="135" y="238" type="curve" smooth="yes"/>
      <point x="135" y="344"/>
      <point x="153" y="440"/>
      <point x="257" y="440" type="curve" smooth="yes"/>
      <point x="294" y="440"/>
      <point x="319" y="417"/>
      <point x="319" y="383" type="curve" smooth="yes"/>
      <point x="319" y="372"/>
      <point x="314" y="360"/>
      <point x="306" y="347" type="curve"/>
      <point x="312" y="326"/>
      <point x="333" y="311"/>
      <point x="358" y="311" type="curve" smooth="yes"/>
      <point x="387" y="311"/>
      <point x="411" y="339"/>
      <point x="411" y="370" type="curve" smooth="yes"/>
      <point x="411" y="433"/>
      <point x="349" y="476"/>
      <point x="257" y="476" type="curve" smooth="yes"/>
      <point x="117" y="476"/>
      <point x="44" y="395"/>
    </contour>
  </outline>
</glyph>
<glyph name="d" format="1">
  <advance width="555"/>
  <unicode hex="0064"/>
  <outline>
    <contour>
      <point x="238" y="-7" type="curve" smooth="yes"/>
      <point x="296" y="-7"/>
      <point x="338" y="15"/>
      <point x="366" y="59" type="curve"/>
      <point x="374" y="0" type="line"/>
      <point x="518" y="0" type="line"/>
      <point x="521" y="34" type="line"/>
      <point x="492" y="40"/>
      <point x="468" y="49"/>
      <point x="452" y="61" type="curve"/>
      <point x="452" y="687" type="line"/>
      <point x="432" y="697" type="line"/>
      <point x="391" y="685"/>
      <point x="344" y="670"/>
      <point x="299" y="662" type="curve"/>
      <point x="297" y="633" type="line"/>
      <point x="348" y="631"/>
      <point x="366" y="617"/>
      <point x="366" y="567" type="curve" smooth="yes"/>
      <point x="366" y="459" type="line"/>
      <point x="339" y="470"/>
      <point x="313" y="476"/>
      <point x="281" y="476" type="curve" smooth="yes"/>
      <point x="135" y="476"/>
      <point x="55" y="388"/>
      <point x="55" y="224" type="curve" smooth="yes"/>
      <point x="55" y="71"/>
      <point x="117" y="-7"/>
    </contour>
    <contour>
      <point x="247" y="36" type="curve" smooth="yes"/>
      <point x="176" y="36"/>
      <point x="143" y="95"/>
      <point x="143" y="224" type="curve" smooth="yes"/>
      <point x="143" y="357"/>
      <point x="193" y="434"/>
      <point x="278" y="434" type="curve" smooth="yes"/>
      <point x="323" y="434"/>
      <point x="347" y="424"/>
      <point x="366" y="414" type="curve"/>
      <point x="366" y="224" type="line" smooth="yes"/>
      <point x="366" y="98"/>
      <point x="324" y="36"/>
    </contour>
  </outline>
</glyph>
<glyph name="f" format="1">
  <advance width="303"/>
  <unicode hex="0066"/>
  <outline>
    <contour>
      <point x="264" y="34" type="line"/>
      <point x="233" y="40"/>
      <point x="201" y="49"/>
      <point x="183" y="62" type="curve"/>
      <point x="183" y="417" type="line"/>
      <point x="287" y="417" type="line"/>
      <point x="287" y="470" type="line"/>
      <point x="183" y="470" type="line"/>
      <point x="183" y="507"/>
      <point x="171" y="555"/>
      <point x="171" y="590" type="curve" smooth="yes"/>
      <point x="171" y="643"/>
      <point x="198" y="672"/>
      <point x="239" y="672" type="curve" smooth="yes"/>
      <point x="279" y="672"/>
      <point x="299" y="642"/>
      <point x="307" y="588" type="curve"/>
      <point x="362" y="588" type="line"/>
      <point x="362" y="684" type="line"/>
      <point x="340" y="698"/>
      <point x="297" y="709"/>
      <point x="253" y="709" type="curve" smooth="yes"/>
      <point x="137" y="709"/>
      <point x="98" y="625"/>
      <point x="98" y="524" type="curve" smooth="yes"/>
      <point x="98" y="470" type="line"/>
      <point x="76" y="459"/>
      <point x="42" y="454"/>
      <point x="19" y="452" type="curve"/>
      <point x="24" y="417" type="line"/>
      <point x="98" y="417" type="line"/>
      <point x="98" y="62" type="line"/>
      <point x="78" y="46"/>
      <point x="62" y="41"/>
      <point x="32" y="36" type="curve"/>
      <point x="28" y="0" type="line"/>
      <point x="261" y="0" type="line"/>
    </contour>
  </outline>
</glyph>
<glyph name="h" format="1">
  <advance width="552"/>
  <unicode hex="0068"/>
  <outline>
    <contour>
      <point x="249" y="35" type="line"/>
      <point x="220" y="40"/>
      <point x="196" y="49"/>
      <point x="179" y="62" type="curve"/>
      <point x="179" y="344" type="line"/>
      <point x="200" y="394"/>
      <point x="246" y="428"/>
      <point x="292" y="428" type="curve" smooth="yes"/>
      <point x="348" y="428"/>
      <point x="377" y="396"/>
      <point x="377" y="329" type="curve" smooth="yes"/>
      <point x="377" y="62" type="line"/>
      <point x="358" y="47"/>
      <point x="336" y="38"/>
      <point x="311" y="34" type="curve"/>
      <point x="308" y="0" type="line"/>
      <point x="528" y="0" type="line"/>
      <point x="532" y="34" type="line"/>
      <point x="503" y="40"/>
      <point x="474" y="52"/>
      <point x="462" y="62" type="curve"/>
      <point x="462" y="338" type="line" smooth="yes"/>
      <point x="462" y="425"/>
      <point x="405" y="476"/>
      <point x="308" y="476" type="curve" smooth="yes"/>
      <point x="258" y="476"/>
      <point x="211" y="449"/>
      <point x="179" y="408" type="curve"/>
      <point x="179" y="687" type="line"/>
      <point x="160" y="697" type="line"/>
      <point x="119" y="685"/>
      <point x="72" y="670"/>
      <point x="27" y="663" type="curve"/>
      <point x="24" y="633" type="line"/>
      <point x="75" y="631"/>
      <point x="94" y="617"/>
      <point x="94" y="567" type="curve" smooth="yes"/>
      <point x="94" y="62" type="line"/>
      <point x="74" y="46"/>
      <point x="58" y="41"/>
      <point x="28" y="37" type="curve"/>
      <point x="24" y="0" type="line"/>
      <point x="245" y="0" type="line"/>
    </contour>
  </outline>
</glyph>
<glyph name="i" format="1">
  <advance width="278"/>
  <unicode hex="0069"/>
  <outline>
    <contour>
      <point x="104" y="61" type="line"/>
      <point x="83" y="46"/>
      <point x="67" y="41"/>
      <point x="38" y="36" type="curve"/>
      <point x="34" y="0" type="line"/>
      <point x="255" y="0" type="line"/>
      <point x="259" y="34" type="line"/>
      <point x="230" y="40"/>
      <point x="206" y="49"/>
      <point x="189" y="61" type="curve"/>
      <point x="189" y="468" type="line"/>
      <point x="169" y="479" type="line"/>
      <point x="129" y="467"/>
      <point x="82" y="452"/>
      <point x="37" y="444" type="curve"/>
      <point x="34" y="415" type="line"/>
      <point x="85" y="413"/>
      <point x="104" y="399"/>
      <point x="104" y="349" type="curve" smooth="yes"/>
    </contour>
    <contour>
      <point x="141" y="540" type="curve" smooth="yes"/>
      <point x="176" y="540"/>
      <point x="194" y="561"/>
      <point x="194" y="598" type="curve" smooth="yes"/>
      <point x="194" y="635"/>
      <point x="176" y="656"/>
      <point x="141" y="656" type="curve" smooth="yes"/>
      <point x="105" y="656"/>
      <point x="89" y="635"/>
      <point x="89" y="598" type="curve" smooth="yes"/>
      <point x="89" y="561"/>
      <point x="105" y="540"/>
    </contour>
  </outline>
</glyph>
<glyph name="k" format="1">
  <advance width="524"/>
  <unicode hex="006B"/>
  <outline>
    <contour>
      <point x="525" y="35" type="line"/>
      <point x="489" y="40"/>
      <point x="456" y="50"/>
      <point x="433" y="63" type="curve"/>
      <point x="283" y="302" type="line"/>
      <point x="375" y="394" type="line" smooth="yes"/>
      <point x="406" y="424"/>
      <point x="444" y="435"/>
      <point x="485" y="437" type="curve"/>
      <point x="482" y="467" type="line"/>
      <point x="349" y="467" type="line"/>
      <point x="346" y="454"/>
      <point x="339" y="435"/>
      <point x="316" y="411" type="curve" smooth="yes"/>
      <point x="179" y="273" type="line"/>
      <point x="179" y="687" type="line"/>
      <point x="160" y="697" type="line"/>
      <point x="119" y="685"/>
      <point x="72" y="670"/>
      <point x="27" y="663" type="curve"/>
      <point x="24" y="633" type="line"/>
      <point x="75" y="631"/>
      <point x="94" y="617"/>
      <point x="94" y="567" type="curve" smooth="yes"/>
      <point x="94" y="62" type="line"/>
      <point x="74" y="46"/>
      <point x="58" y="41"/>
      <point x="28" y="37" type="curve"/>
      <point x="24" y="0" type="line"/>
      <point x="245" y="0" type="line"/>
      <point x="249" y="35" type="line"/>
      <point x="220" y="40"/>
      <point x="196" y="49"/>
      <point x="179" y="62" type="curve"/>
      <point x="179" y="199" type="line"/>
      <point x="225" y="244" type="line"/>
      <point x="378" y="0" type="line"/>
      <point x="521" y="0" type="line"/>
    </contour>
  </outline>
</glyph>
<glyph name="m" format="1">
  <advance width="832"/>
  <unicode hex="006D"/>
  <outline>
    <contour>
      <point x="269" y="34" type="line"/>
      <point x="240" y="40"/>
      <point x="216" y="49"/>
      <point x="200" y="62" type="curve"/>
      <point x="200" y="350" type="line"/>
      <point x="212" y="385"/>
      <point x="257" y="428"/>
      <point x="307" y="428" type="curve" smooth="yes"/>
      <point x="359" y="428"/>
      <point x="386" y="398"/>
      <point x="386" y="329" type="curve" smooth="yes"/>
      <point x="386" y="62" type="line"/>
      <point x="367" y="47"/>
      <point x="345" y="38"/>
      <point x="320" y="34" type="curve"/>
      <point x="317" y="0" type="line"/>
      <point x="537" y="0" type="line"/>
      <point x="541" y="34" type="line"/>
      <point x="512" y="40"/>
      <point x="483" y="52"/>
      <point x="471" y="62" type="curve"/>
      <point x="471" y="361" type="line"/>
      <point x="488" y="393"/>
      <point x="528" y="428"/>
      <point x="573" y="428" type="curve" smooth="yes"/>
      <point x="626" y="428"/>
      <point x="652" y="398"/>
      <point x="652" y="329" type="curve" smooth="yes"/>
      <point x="652" y="62" type="line"/>
      <point x="633" y="47"/>
      <point x="611" y="38"/>
      <point x="586" y="34" type="curve"/>
      <point x="584" y="0" type="line"/>
      <point x="803" y="0" type="line"/>
      <point x="807" y="34" type="line"/>
      <point x="778" y="40"/>
      <point x="750" y="52"/>
      <point x="737" y="62" type="curve"/>
      <point x="737" y="326" type="line" smooth="yes"/>
      <point x="737" y="436"/>
      <point x="664" y="476"/>
      <point x="582" y="476" type="curve" smooth="yes"/>
      <point x="526" y="476"/>
      <point x="483" y="445"/>
      <point x="449" y="414" type="curve"/>
      <point x="422" y="456"/>
      <point x="378" y="476"/>
      <point x="317" y="476" type="curve" smooth="yes"/>
      <point x="248" y="476"/>
      <point x="202" y="423"/>
      <point x="195" y="415" type="curve"/>
      <point x="188" y="467" type="line"/>
      <point x="170" y="476" type="line"/>
      <point x="132" y="465"/>
      <point x="90" y="450"/>
      <point x="47" y="442" type="curve"/>
      <point x="44" y="413" type="line"/>
      <point x="96" y="411"/>
      <point x="114" y="397"/>
      <point x="114" y="347" type="curve" smooth="yes"/>
      <point x="114" y="62" type="line"/>
      <point x="94" y="46"/>
      <point x="78" y="41"/>
      <point x="48" y="36" type="curve"/>
      <point x="44" y="0" type="line"/>
      <point x="265" y="0" type="line"/>
    </contour>
  </outline>
</glyph>
<glyph name="p" format="1">
  <advance width="556"/>
  <unicode hex="0070"/>
  <outline>
    <contour>
      <point x="260" y="-176" type="line"/>
      <point x="231" y="-171"/>
      <point x="208" y="-162"/>
      <point x="191" y="-149" type="curve"/>
      <point x="191" y="9" type="line"/>
      <point x="217" y="-2"/>
      <point x="243" y="-7"/>
      <point x="276" y="-7" type="curve" smooth="yes"/>
      <point x="422" y="-7"/>
      <point x="502" y="81"/>
      <point x="502" y="244" type="curve" smooth="yes"/>
      <point x="502" y="398"/>
      <point x="440" y="476"/>
      <point x="319" y="476" type="curve" smooth="yes"/>
      <point x="259" y="476"/>
      <point x="215" y="452"/>
      <point x="188" y="406" type="curve"/>
      <point x="179" y="467" type="line"/>
      <point x="161" y="477" type="line"/>
      <point x="123" y="466"/>
      <point x="82" y="451"/>
      <point x="39" y="443" type="curve"/>
      <point x="36" y="414" type="line"/>
      <point x="87" y="412"/>
      <point x="105" y="398"/>
      <point x="105" y="348" type="curve" smooth="yes"/>
      <point x="105" y="-149" type="line"/>
      <point x="85" y="-164"/>
      <point x="69" y="-170"/>
      <point x="40" y="-174" type="curve"/>
      <point x="36" y="-210" type="line"/>
      <point x="257" y="-210" type="line"/>
    </contour>
    <contour>
      <point x="311" y="433" type="curve" smooth="yes"/>
      <point x="381" y="433"/>
      <point x="414" y="374"/>
      <point x="414" y="244" type="curve" smooth="yes"/>
      <point x="414" y="111"/>
      <point x="364" y="35"/>
      <point x="279" y="35" type="curve" smooth="yes"/>
      <point x="234" y="35"/>
      <point x="209" y="45"/>
      <point x="191" y="55" type="curve"/>
      <point x="191" y="245" type="line" smooth="yes"/>
      <point x="191" y="370"/>
      <point x="233" y="433"/>
    </contour>
  </outline>
</glyph>
<glyph name="q" format="1">
  <advance width="547"/>
  <unicode hex="0071"/>
  <outline>
    <contour>
      <point x="518" y="-178" type="line"/>
      <point x="489" y="-172"/>
      <point x="465" y="-163"/>
      <point x="448" y="-151" type="curve"/>
      <point x="448" y="467" type="line"/>
      <point x="395" y="467" type="line"/>
      <point x="379" y="429" type="line"/>
      <point x="350" y="455"/>
      <point x="313" y="476"/>
      <point x="267" y="476" type="curve" smooth="yes"/>
      <point x="117" y="476"/>
      <point x="60" y="372"/>
      <point x="60" y="232" type="curve" smooth="yes"/>
      <point x="60" y="94"/>
      <point x="110" y="-7"/>
      <point x="249" y="-7" type="curve" smooth="yes"/>
      <point x="304" y="-7"/>
      <point x="339" y="21"/>
      <point x="363" y="59" type="curve"/>
      <point x="363" y="-151" type="line"/>
      <point x="342" y="-166"/>
      <point x="327" y="-171"/>
      <point x="297" y="-176" type="curve"/>
      <point x="293" y="-212" type="line"/>
      <point x="514" y="-212" type="line"/>
    </contour>
    <contour>
      <point x="150" y="232" type="curve" smooth="yes"/>
      <point x="150" y="321"/>
      <point x="154" y="434"/>
      <point x="265" y="434" type="curve" smooth="yes"/>
      <point x="305" y="434"/>
      <point x="338" y="409"/>
      <point x="363" y="383" type="curve"/>
      <point x="363" y="240" type="line" smooth="yes"/>
      <point x="363" y="134"/>
      <point x="344" y="35"/>
      <point x="249" y="35" type="curve" smooth="yes"/>
      <point x="159" y="35"/>
      <point x="150" y="130"/>
    </contour>
  </outline>
</glyph>
<glyph name="s" format="1">
  <advance width="430"/>
  <unicode hex="0073"/>
  <outline>
    <contour>
      <point x="214" y="435" type="curve" smooth="yes"/>
      <point x="279" y="435"/>
      <point x="297" y="394"/>
      <point x="302" y="329" type="curve"/>
      <point x="354" y="329" type="line"/>
      <point x="363" y="449" type="line"/>
      <point x="338" y="461"/>
      <point x="276" y="475"/>
      <point x="220" y="475" type="curve" smooth="yes"/>
      <point x="115" y="475"/>
      <point x="53" y="426"/>
      <point x="53" y="347" type="curve" smooth="yes"/>
      <point x="53" y="174"/>
      <point x="302" y="225"/>
      <point x="302" y="116" type="curve" smooth="yes"/>
      <point x="302" y="73"/>
      <point x="264" y="39"/>
      <point x="209" y="39" type="curve" smooth="yes"/>
      <point x="178" y="39"/>
      <point x="151" y="43"/>
      <point x="132" y="49" type="curve"/>
      <point x="117" y="78"/>
      <point x="110" y="104"/>
      <point x="105" y="162" type="curve"/>
      <point x="52" y="155" type="line"/>
      <point x="52" y="32" type="line"/>
      <point x="82" y="13"/>
      <point x="153" y="-6"/>
      <point x="201" y="-6" type="curve" smooth="yes"/>
      <point x="314" y="-6"/>
      <point x="380" y="46"/>
      <point x="380" y="136" type="curve" smooth="yes"/>
      <point x="380" y="302"/>
      <point x="128" y="255"/>
      <point x="128" y="368" type="curve" smooth="yes"/>
      <point x="128" y="409"/>
      <point x="161" y="435"/>
    </contour>
  </outline>
</glyph>
<glyph name="t" format="1">
  <advance width="338"/>
  <unicode hex="0074"/>
  <outline>
    <contour>
      <point x="313" y="57" type="line"/>
      <point x="297" y="48"/>
      <point x="276" y="37"/>
      <point x="243" y="37" type="curve" smooth="yes"/>
      <point x="194" y="37"/>
      <point x="190" y="63"/>
      <point x="190" y="106" type="curve" smooth="yes"/>
      <point x="190" y="413" type="line"/>
      <point x="319" y="413" type="line"/>
      <point x="319" y="467" type="line"/>
      <point x="191" y="467" type="line"/>
      <point x="191" y="564" type="line"/>
      <point x="151" y="564" type="line"/>
      <point x="131" y="507"/>
      <point x="91" y="466"/>
      <point x="23" y="443" type="curve"/>
      <point x="23" y="413" type="line"/>
      <point x="104" y="413" type="line"/>
      <point x="104" y="113" type="line" smooth="yes"/>
      <point x="104" y="28"/>
      <point x="127" y="-10"/>
      <point x="219" y="-10" type="curve" smooth="yes"/>
      <point x="284" y="-10"/>
      <point x="318" y="16"/>
      <point x="333" y="27" type="curve"/>
    </contour>
  </outline>
</glyph>
<glyph name="v" format="1">
  <advance width="504"/>
  <unicode hex="0076"/>
  <outline>
    <contour>
      <point x="215" y="0" type="line"/>
      <point x="282" y="0" type="line"/>
      <point x="434" y="407" type="line" smooth="yes"/>
      <point x="441" y="426"/>
      <point x="475" y="432"/>
      <point x="501" y="437" type="curve"/>
      <point x="504" y="467" type="line"/>
      <point x="314" y="467" type="line"/>
      <point x="311" y="437" type="line"/>
      <point x="333" y="433"/>
      <point x="353" y="428"/>
      <point x="371" y="415" type="curve"/>
      <point x="265" y="96" type="line"/>
      <point x="159" y="415" type="line"/>
      <point x="177" y="431"/>
      <point x="199" y="434"/>
      <point x="221" y="437" type="curve"/>
      <point x="224" y="467" type="line"/>
      <point x="1" y="467" type="line"/>
      <point x="-1" y="437" type="line"/>
      <point x="29" y="431"/>
      <point x="60" y="423"/>
      <point x="70" y="395" type="curve" smooth="yes"/>
    </contour>
  </outline>
</glyph>
<glyph name="x" format="1">
  <advance width="483"/>
  <unicode hex="0078"/>
  <outline>
    <contour>
      <point x="-3" y="0" type="line"/>
      <point x="195" y="0" type="line"/>
      <point x="198" y="36" type="line"/>
      <point x="170" y="39"/>
      <point x="149" y="42"/>
      <point x="131" y="56" type="curve"/>
      <point x="230" y="188" type="line"/>
      <point x="330" y="53" type="line"/>
      <point x="314" y="42"/>
      <point x="293" y="39"/>
      <point x="267" y="36" type="curve"/>
      <point x="263" y="0" type="line"/>
      <point x="479" y="0" type="line"/>
      <point x="483" y="37" type="line"/>
      <point x="458" y="40"/>
      <point x="441" y="44"/>
      <point x="424" y="62" type="curve"/>
      <point x="285" y="250" type="line"/>
      <point x="402" y="405" type="line" smooth="yes"/>
      <point x="418" y="426"/>
      <point x="445" y="433"/>
      <point x="476" y="437" type="curve"/>
      <point x="480" y="467" type="line"/>
      <point x="279" y="467" type="line"/>
      <point x="276" y="437" type="line"/>
      <point x="308" y="433"/>
      <point x="325" y="423"/>
      <point x="343" y="409" type="curve"/>
      <point x="255" y="292" type="line"/>
      <point x="163" y="416" type="line"/>
      <point x="179" y="428"/>
      <point x="196" y="435"/>
      <point x="224" y="437" type="curve"/>
      <point x="229" y="467" type="line"/>
      <point x="14" y="467" type="line"/>
      <point x="11" y="437" type="line"/>
      <point x="40" y="433"/>
      <point x="58" y="423"/>
      <point x="73" y="402" type="curve" smooth="yes"/>
      <point x="200" y="229" type="line"/>
      <point x="73" y="62" type="line"/>
      <point x="56" y="43"/>
      <point x="32" y="39"/>
      <point x="0" y="36" type="curve"/>
    </contour>
  </outline>
</glyph>
<glyph name="z" format="1">
  <advance width="455"/>
  <unicode hex="007A"/>
  <outline>
    <contour>
      <point x="396" y="21" type="line"/>
      <point x="403" y="139" type="line"/>
      <point x="395" y="140"/>
      <point x="388" y="141"/>
      <point x="380" y="141" type="curve" smooth="yes"/>
      <point x="372" y="141"/>
      <point x="363" y="140"/>
      <point x="355" y="138" type="curve"/>
      <point x="346" y="104"/>
      <point x="332" y="69"/>
      <point x="315" y="46" type="curve"/>
      <point x="292" y="45"/>
      <point x="265" y="45"/>
      <point x="240" y="45" type="curve" smooth="yes"/>
      <point x="179" y="45"/>
      <point x="159" y="45"/>
      <point x="144" y="46" type="curve"/>
      <point x="405" y="433" type="line"/>
      <point x="398" y="469" type="line"/>
      <point x="364" y="468"/>
      <point x="309" y="467"/>
      <point x="247" y="467" type="curve" smooth="yes"/>
      <point x="188" y="467"/>
      <point x="100" y="469"/>
      <point x="74" y="469" type="curve"/>
      <point x="49" y="448" type="line"/>
      <point x="58" y="338" type="line"/>
      <point x="66" y="335"/>
      <point x="75" y="334"/>
      <point x="84" y="334" type="curve" smooth="yes"/>
      <point x="93" y="334"/>
      <point x="103" y="336"/>
      <point x="111" y="339" type="curve"/>
      <point x="114" y="367"/>
      <point x="125" y="404"/>
      <point x="138" y="420" type="curve"/>
      <point x="157" y="423"/>
      <point x="198" y="425"/>
      <point x="228" y="425" type="curve" smooth="yes"/>
      <point x="245" y="425"/>
      <point x="289" y="422"/>
      <point x="303" y="421" type="curve"/>
      <point x="44" y="38" type="line"/>
      <point x="52" y="-4" type="line"/>
      <point x="52" y="-4"/>
      <point x="127" y="0"/>
      <point x="235" y="0" type="curve" smooth="yes"/>
      <point x="289" y="0"/>
      <point x="351" y="-1"/>
      <point x="377" y="-3" type="curve"/>
    </contour>
  </outline>
</glyph>
<glyph name="braceleft" format="1">
  <advance width="387"/>
  <unicode hex="007B"/>
  <outline>
    <contour>
      <point x="143" y="18" type="curve" smooth="yes"/>
      <point x="143" y="-73"/>
      <point x="226" y="-142"/>
      <point x="317" y="-142" type="curve"/>
      <point x="317" y="-107" type="line"/>
      <point x="249" y="-104"/>
      <point x="217" y="-47"/>
      <point x="217" y="11" type="curve" smooth="yes"/>
      <point x="217" y="67"/>
      <point x="235" y="106"/>
      <point x="235" y="163" type="curve" smooth="yes"/>
      <point x="235" y="217"/>
      <point x="216" y="261"/>
      <point x="189" y="284" type="curve"/>
      <point x="216" y="307"/>
      <point x="235" y="350"/>
      <point x="235" y="404" type="curve" smooth="yes"/>
      <point x="235" y="461"/>
      <point x="217" y="500"/>
      <point x="217" y="556" type="curve" smooth="yes"/>
      <point x="217" y="614"/>
      <point x="249" y="670"/>
      <point x="317" y="675" type="curve"/>
      <point x="317" y="708" type="line"/>
      <point x="226" y="708"/>
      <point x="143" y="640"/>
      <point x="143" y="549" type="curve" smooth="yes"/>
      <point x="143" y="505"/>
      <point x="169" y="418"/>
      <point x="169" y="373" type="curve" smooth="yes"/>
      <point x="169" y="313"/>
      <point x="120" y="301"/>
      <point x="120" y="301" type="curve"/>
      <point x="120" y="267" type="line"/>
      <point x="120" y="267"/>
      <point x="169" y="254"/>
      <point x="169" y="194" type="curve" smooth="yes"/>
      <point x="169" y="149"/>
      <point x="143" y="61"/>
    </contour>
  </outline>
</glyph>
<glyph name="bar" format="1">
  <advance width="316"/>
  <unicode hex="007C"/>
  <outline>
    <contour>
      <point x="126" y="-146" type="line"/>
      <point x="190" y="-146" type="line"/>
      <point x="190" y="754" type="line"/>
      <point x="126" y="754" type="line"/>
    </contour>
  </outline>
</glyph>
<glyph name="braceright" format="1">
  <advance width="387"/>
  <unicode hex="007D"/>
  <outline>
    <contour>
      <point x="244" y="18" type="curve" smooth="yes"/>
      <point x="244" y="61"/>
      <point x="218" y="149"/>
      <point x="218" y="194" type="curve" smooth="yes"/>
      <point x="218" y="254"/>
      <point x="267" y="267"/>
      <point x="267" y="267" type="curve"/>
      <point x="267" y="301" type="line"/>
      <point x="267" y="301"/>
      <point x="218" y="313"/>
      <point x="218" y="373" type="curve" smooth="yes"/>
      <point x="218" y="418"/>
      <point x="244" y="505"/>
      <point x="244" y="549" type="curve" smooth="yes"/>
      <point x="244" y="640"/>
      <point x="161" y="708"/>
      <point x="70" y="708" type="curve"/>
      <point x="70" y="675" type="line"/>
      <point x="138" y="670"/>
      <point x="170" y="614"/>
      <point x="170" y="556" type="curve" smooth="yes"/>
      <point x="170" y="500"/>
      <point x="152" y="461"/>
      <point x="152" y="404" type="curve" smooth="yes"/>
      <point x="152" y="350"/>
      <point x="171" y="307"/>
      <point x="198" y="284" type="curve"/>
      <point x="171" y="261"/>
      <point x="152" y="217"/>
      <point x="152" y="163" type="curve" smooth="yes"/>
      <point x="152" y="106"/>
      <point x="170" y="67"/>
      <point x="170" y="11" type="curve" smooth="yes"/>
      <point x="170" y="-47"/>
      <point x="138" y="-104"/>
      <point x="70" y="-107" type="curve"/>
      <point x="70" y="-142" type="line"/>
      <point x="161" y="-142"/>
      <point x="244" y="-73"/>
    </contour>
  </outline>
</glyph>
<glyph name="asciitilde" format="1">
  <advance width="712"/>
  <unicode hex="007E"/>
  <outline>
    <contour>
      <point x="127" y="241" type="curve"/>
      <point x="156" y="263"/>
      <point x="188" y="281"/>
      <point x="230" y="281" type="curve" smooth="yes"/>
      <point x="298" y="281"/>
      <point x="396" y="231"/>
      <point x="471" y="231" type="curve" smooth="yes"/>
      <point x="539" y="231"/>
      <point x="587" y="285"/>
      <point x="606" y="314" type="curve"/>
      <point x="601" y="321"/>
      <point x="594" y="328"/>
      <point x="585" y="333" type="curve"/>
      <point x="556" y="312"/>
      <point x="524" y="293"/>
      <point x="480" y="293" type="curve" smooth="yes"/>
      <point x="424" y="293"/>
      <point x="317" y="342"/>
      <point x="254" y="342" type="curve" smooth="yes"/>
      <point x="179" y="342"/>
      <point x="130" y="290"/>
      <point x="106" y="262" type="curve"/>
      <point x="111" y="253"/>
      <point x="118" y="246"/>
    </contour>
  </outline>
</glyph>
<glyph name="exclamdown" format="1">
  <advance width="286"/>
  <unicode hex="00A1"/>
  <outline>
    <contour>
      <point x="111" y="254" type="line"/>
      <point x="102" y="127"/>
      <point x="64" y="-54"/>
      <point x="64" y="-122" type="curve" smooth="yes"/>
      <point x="64" y="-166"/>
      <point x="76" y="-197"/>
      <point x="120" y="-197" type="curve" smooth="yes"/>
      <point x="158" y="-197"/>
      <point x="179" y="-180"/>
      <point x="179" y="-180" type="curve"/>
      <point x="164" y="-116"/>
      <point x="160" y="-26"/>
      <point x="160" y="61" type="curve" smooth="yes"/>
      <point x="160" y="136"/>
      <point x="163" y="209"/>
      <point x="163" y="263" type="curve"/>
    </contour>
    <contour>
      <point x="134" y="487" type="curve" smooth="yes"/>
      <point x="98" y="487"/>
      <point x="81" y="465"/>
      <point x="81" y="429" type="curve" smooth="yes"/>
      <point x="81" y="394"/>
      <point x="98" y="371"/>
      <point x="134" y="371" type="curve" smooth="yes"/>
      <point x="170" y="371"/>
      <point x="187" y="393"/>
      <point x="187" y="429" type="curve" smooth="yes"/>
      <point x="187" y="464"/>
      <point x="170" y="487"/>
    </contour>
  </outline>
</glyph>
<glyph name="cent" format="1">
  <advance width="441"/>
  <unicode hex="00A2"/>
  <outline>
    <contour>
      <point x="220" y="562" type="line"/>
      <point x="220" y="471" type="line"/>
      <point x="104" y="457"/>
      <point x="42" y="377"/>
      <point x="42" y="250" type="curve" smooth="yes"/>
      <point x="42" y="121"/>
      <point x="101" y="44"/>
      <point x="220" y="33" type="curve"/>
      <point x="220" y="-60" type="line"/>
      <point x="231" y="-62"/>
      <point x="242" y="-64"/>
      <point x="254" y="-64" type="curve"/>
      <point x="260" y="-58" type="line"/>
      <point x="260" y="32" type="line"/>
      <point x="350" y="35"/>
      <point x="411" y="99"/>
      <point x="411" y="99" type="curve"/>
      <point x="385" y="129" type="line"/>
      <point x="385" y="129"/>
      <point x="334" y="85"/>
      <point x="260" y="82" type="curve"/>
      <point x="260" y="437" type="line"/>
      <point x="292" y="435"/>
      <point x="318" y="416"/>
      <point x="318" y="382" type="curve" smooth="yes"/>
      <point x="318" y="372"/>
      <point x="314" y="359"/>
      <point x="306" y="346" type="curve"/>
      <point x="312" y="326"/>
      <point x="333" y="312"/>
      <point x="358" y="312" type="curve" smooth="yes"/>
      <point x="387" y="312"/>
      <point x="411" y="338"/>
      <point x="411" y="369" type="curve" smooth="yes"/>
      <point x="411" y="427"/>
      <point x="350" y="472"/>
      <point x="260" y="473" type="curve"/>
      <point x="260" y="564" type="line"/>
      <point x="249" y="567"/>
      <point x="237" y="569"/>
      <point x="226" y="569" type="curve"/>
    </contour>
    <contour>
      <point x="135" y="250" type="curve" smooth="yes"/>
      <point x="135" y="341"/>
      <point x="148" y="416"/>
      <point x="220" y="433" type="curve"/>
      <point x="220" y="85" type="line"/>
      <point x="154" y="101"/>
      <point x="135" y="169"/>
    </contour>
  </outline>
</glyph>
<glyph name="sterling" format="1">
  <advance width="528"/>
  <unicode hex="00A3"/>
  <outline>
    <contour>
      <point x="55" y="348" type="line"/>
      <point x="48" y="341" type="line"/>
      <point x="48" y="329"/>
      <point x="50" y="319"/>
      <point x="53" y="308" type="curve"/>
      <point x="139" y="308" type="line"/>
      <point x="155" y="249"/>
      <point x="168" y="191"/>
      <point x="168" y="148" type="curve" smooth="yes"/>
      <point x="168" y="140"/>
      <point x="168" y="132"/>
      <point x="167" y="125" type="curve"/>
      <point x="146" y="132"/>
      <point x="125" y="136"/>
      <point x="104" y="136" type="curve" smooth="yes"/>
      <point x="54" y="136"/>
      <point x="15" y="106"/>
      <point x="15" y="60" type="curve" smooth="yes"/>
      <point x="15" y="15"/>
      <point x="55" y="-7"/>
      <point x="100" y="-7" type="curve" smooth="yes"/>
      <point x="147" y="-7"/>
      <point x="184" y="21"/>
      <point x="210" y="61" type="curve"/>
      <point x="261" y="31"/>
      <point x="312" y="-7"/>
      <point x="381" y="-7" type="curve" smooth="yes"/>
      <point x="442" y="-7"/>
      <point x="489" y="17"/>
      <point x="489" y="83" type="curve" smooth="yes"/>
      <point x="489" y="125"/>
      <point x="455" y="150"/>
      <point x="419" y="151" type="curve"/>
      <point x="419" y="133" type="line" smooth="yes"/>
      <point x="419" y="102"/>
      <point x="414" y="76"/>
      <point x="375" y="76" type="curve" smooth="yes"/>
      <point x="317" y="76"/>
      <point x="271" y="89"/>
      <point x="230" y="104" type="curve"/>
      <point x="241" y="134"/>
      <point x="247" y="166"/>
      <point x="247" y="199" type="curve" smooth="yes"/>
      <point x="247" y="235"/>
      <point x="240" y="271"/>
      <point x="231" y="308" type="curve"/>
      <point x="367" y="308" type="line"/>
      <point x="374" y="314" type="line"/>
      <point x="374" y="326"/>
      <point x="372" y="336"/>
      <point x="369" y="348" type="curve"/>
      <point x="220" y="348" type="line"/>
      <point x="209" y="391"/>
      <point x="200" y="434"/>
      <point x="200" y="476" type="curve" smooth="yes"/>
      <point x="200" y="567"/>
      <point x="229" y="627"/>
      <point x="303" y="627" type="curve" smooth="yes"/>
      <point x="352" y="627"/>
      <point x="380" y="601"/>
      <point x="380" y="568" type="curve" smooth="yes"/>
      <point x="380" y="553"/>
      <point x="374" y="536"/>
      <point x="362" y="520" type="curve"/>
      <point x="369" y="501"/>
      <point x="391" y="487"/>
      <point x="417" y="487" type="curve" smooth="yes"/>
      <point x="446" y="487"/>
      <point x="472" y="515"/>
      <point x="472" y="557" type="curve" smooth="yes"/>
      <point x="472" y="641"/>
      <point x="386" y="675"/>
      <point x="311" y="675" type="curve" smooth="yes"/>
      <point x="183" y="675"/>
      <point x="110" y="601"/>
      <point x="110" y="468" type="curve" smooth="yes"/>
      <point x="110" y="435"/>
      <point x="119" y="392"/>
      <point x="129" y="348" type="curve"/>
    </contour>
    <contour>
      <point x="99" y="32" type="curve" smooth="yes"/>
      <point x="78" y="32"/>
      <point x="61" y="39"/>
      <point x="61" y="62" type="curve" smooth="yes"/>
      <point x="61" y="85"/>
      <point x="77" y="99"/>
      <point x="104" y="99" type="curve" smooth="yes"/>
      <point x="124" y="99"/>
      <point x="143" y="94"/>
      <point x="161" y="87" type="curve"/>
      <point x="152" y="53"/>
      <point x="134" y="32"/>
    </contour>
  </outline>
</glyph>
<glyph name="yen" format="1">
  <advance width="609"/>
  <unicode hex="00A5"/>
  <outline>
    <contour>
      <point x="101" y="281" type="line"/>
      <point x="94" y="275" type="line"/>
      <point x="94" y="263"/>
      <point x="96" y="252"/>
      <point x="99" y="242" type="curve"/>
      <point x="264" y="242" type="line"/>
      <point x="264" y="64" type="line"/>
      <point x="233" y="46"/>
      <point x="203" y="41"/>
      <point x="167" y="37" type="curve"/>
      <point x="162" y="0" type="line"/>
      <point x="450" y="0" type="line"/>
      <point x="454" y="37" type="line"/>
      <point x="419" y="41"/>
      <point x="382" y="47"/>
      <point x="352" y="64" type="curve"/>
      <point x="352" y="242" type="line"/>
      <point x="508" y="242" type="line"/>
      <point x="514" y="248" type="line"/>
      <point x="514" y="260"/>
      <point x="513" y="271"/>
      <point x="510" y="281" type="curve"/>
      <point x="354" y="281" type="line"/>
      <point x="385" y="345" type="line"/>
      <point x="508" y="345" type="line"/>
      <point x="514" y="351" type="line"/>
      <point x="514" y="363"/>
      <point x="513" y="373"/>
      <point x="510" y="384" type="curve"/>
      <point x="405" y="384" type="line"/>
      <point x="514" y="605" type="line"/>
      <point x="532" y="619"/>
      <point x="553" y="627"/>
      <point x="575" y="631" type="curve"/>
      <point x="581" y="667" type="line"/>
      <point x="361" y="667" type="line"/>
      <point x="359" y="655"/>
      <point x="357" y="643"/>
      <point x="356" y="631" type="curve"/>
      <point x="388" y="627"/>
      <point x="420" y="618"/>
      <point x="445" y="605" type="curve"/>
      <point x="317" y="343" type="line"/>
      <point x="192" y="604" type="line"/>
      <point x="220" y="620"/>
      <point x="249" y="627"/>
      <point x="279" y="631" type="curve"/>
      <point x="280" y="643"/>
      <point x="282" y="655"/>
      <point x="284" y="667" type="curve"/>
      <point x="37" y="667" type="line"/>
      <point x="32" y="631" type="line"/>
      <point x="55" y="626"/>
      <point x="79" y="616"/>
      <point x="94" y="605" type="curve"/>
      <point x="204" y="384" type="line"/>
      <point x="101" y="384" type="line"/>
      <point x="94" y="378" type="line"/>
      <point x="94" y="366"/>
      <point x="96" y="355"/>
      <point x="99" y="345" type="curve"/>
      <point x="224" y="345" type="line"/>
      <point x="256" y="281" type="line"/>
    </contour>
  </outline>
</glyph>
<glyph name="brokenbar" format="1">
  <advance width="316"/>
  <unicode hex="00A6"/>
  <outline>
    <contour>
      <point x="126" y="398" type="line"/>
      <point x="190" y="398" type="line"/>
      <point x="190" y="754" type="line"/>
      <point x="126" y="754" type="line"/>
    </contour>
    <contour>
      <point x="126" y="-146" type="line"/>
      <point x="190" y="-146" type="line"/>
      <point x="190" y="210" type="line"/>
      <point x="126" y="210" type="line"/>
    </contour>
  </outline>
</glyph>
<glyph name="section" format="1">
  <advance width="500"/>
  <unicode hex="00A7"/>
  <outline>
    <contour>
      <point x="390" y="153" type="curve" smooth="yes"/>
      <point x="390" y="129"/>
      <point x="381" y="96"/>
      <point x="369" y="81" type="curve"/>
      <point x="369" y="264"/>
      <point x="132" y="359"/>
      <point x="132" y="504" type="curve" smooth="yes"/>
      <point x="132" y="528"/>
      <point x="140" y="562"/>
      <point x="153" y="576" type="curve"/>
      <point x="161" y="394"/>
      <point x="390" y="327"/>
    </contour>
    <contour>
      <point x="443" y="148" type="curve" smooth="yes"/>
      <point x="443" y="246"/>
      <point x="390" y="297"/>
      <point x="344" y="355" type="curve" smooth="yes"/>
      <point x="276" y="441"/>
      <point x="205" y="484"/>
      <point x="205" y="580" type="curve" smooth="yes"/>
      <point x="205" y="627"/>
      <point x="228" y="653"/>
      <point x="274" y="653" type="curve" smooth="yes"/>
      <point x="315" y="653"/>
      <point x="346" y="635"/>
      <point x="346" y="593" type="curve" smooth="yes"/>
      <point x="346" y="565"/>
      <point x="333" y="546"/>
      <point x="324" y="537" type="curve"/>
      <point x="334" y="522"/>
      <point x="347" y="509"/>
      <point x="379" y="509" type="curve" smooth="yes"/>
      <point x="412" y="509"/>
      <point x="432" y="535"/>
      <point x="432" y="576" type="curve" smooth="yes"/>
      <point x="432" y="648"/>
      <point x="374" y="697"/>
      <point x="274" y="697" type="curve" smooth="yes"/>
      <point x="158" y="697"/>
      <point x="78" y="627"/>
      <point x="78" y="517" type="curve" smooth="yes"/>
      <point x="78" y="430"/>
      <point x="137" y="360"/>
      <point x="196" y="293" type="curve" smooth="yes"/>
      <point x="255" y="227"/>
      <point x="315" y="162"/>
      <point x="315" y="85" type="curve" smooth="yes"/>
      <point x="315" y="38"/>
      <point x="292" y="12"/>
      <point x="244" y="12" type="curve" smooth="yes"/>
      <point x="203" y="12"/>
      <point x="171" y="31"/>
      <point x="171" y="73" type="curve" smooth="yes"/>
      <point x="171" y="101"/>
      <point x="185" y="120"/>
      <point x="193" y="128" type="curve"/>
      <point x="183" y="143"/>
      <point x="170" y="157"/>
      <point x="139" y="157" type="curve" smooth="yes"/>
      <point x="102" y="157"/>
      <point x="82" y="125"/>
      <point x="82" y="87" type="curve" smooth="yes"/>
      <point x="82" y="16"/>
      <point x="143" y="-31"/>
      <point x="244" y="-31" type="curve" smooth="yes"/>
      <point x="360" y="-31"/>
      <point x="443" y="38"/>
    </contour>
  </outline>
</glyph>
<glyph name="dieresis" format="1">
  <advance width="285"/>
  <unicode hex="00A8"/>
  <outline>
    <contour>
      <point x="59" y="552" type="curve" smooth="yes"/>
      <point x="90" y="552"/>
      <point x="106" y="571"/>
      <point x="106" y="605" type="curve" smooth="yes"/>
      <point x="106" y="638"/>
      <point x="90" y="657"/>
      <point x="59" y="657" type="curve" smooth="yes"/>
      <point x="26" y="657"/>
      <point x="12" y="638"/>
      <point x="12" y="605" type="curve" smooth="yes"/>
      <point x="12" y="571"/>
      <point x="26" y="552"/>
    </contour>
    <contour>
      <point x="225" y="552" type="curve" smooth="yes"/>
      <point x="257" y="552"/>
      <point x="273" y="571"/>
      <point x="273" y="605" type="curve" smooth="yes"/>
      <point x="273" y="638"/>
      <point x="257" y="657"/>
      <point x="225" y="657" type="curve" smooth="yes"/>
      <point x="193" y="657"/>
      <point x="179" y="638"/>
      <point x="179" y="605" type="curve" smooth="yes"/>
      <point x="179" y="571"/>
      <point x="193" y="552"/>
    </contour>
  </outline>
</glyph>
<glyph name="copyright" format="1">
  <advance width="851"/>
  <unicode hex="00A9"/>
  <outline>
    <contour>
      <point x="179" y="304" type="curve" smooth="yes"/>
      <point x="179" y="442"/>
      <point x="291" y="555"/>
      <point x="425" y="555" type="curve" smooth="yes"/>
      <point x="560" y="555"/>
      <point x="671" y="442"/>
      <point x="671" y="304" type="curve" smooth="yes"/>
      <point x="671" y="165"/>
      <point x="560" y="53"/>
      <point x="425" y="53" type="curve" smooth="yes"/>
      <point x="291" y="53"/>
      <point x="179" y="165"/>
    </contour>
    <contour>
      <point x="135" y="304" type="curve" smooth="yes"/>
      <point x="135" y="145"/>
      <point x="263" y="16"/>
      <point x="425" y="16" type="curve" smooth="yes"/>
      <point x="587" y="16"/>
      <point x="716" y="145"/>
      <point x="716" y="304" type="curve" smooth="yes"/>
      <point x="716" y="463"/>
      <point x="586" y="592"/>
      <point x="425" y="592" type="curve" smooth="yes"/>
      <point x="264" y="592"/>
      <point x="135" y="463"/>
    </contour>
    <contour>
      <point x="430" y="127" type="curve" smooth="yes"/>
      <point x="484" y="127"/>
      <point x="527" y="160"/>
      <point x="543" y="211" type="curve"/>
      <point x="513" y="221" type="line"/>
      <point x="498" y="179"/>
      <point x="470" y="158"/>
      <point x="430" y="158" type="curve" smooth="yes"/>
      <point x="369" y="158"/>
      <point x="345" y="198"/>
      <point x="345" y="301" type="curve" smooth="yes"/>
      <point x="345" y="404"/>
      <point x="372" y="449"/>
      <point x="433" y="449" type="curve" smooth="yes"/>
      <point x="459" y="449"/>
      <point x="478" y="432"/>
      <point x="478" y="408" type="curve" smooth="yes"/>
      <point x="478" y="400"/>
      <point x="474" y="391"/>
      <point x="468" y="382" type="curve"/>
      <point x="472" y="366"/>
      <point x="488" y="355"/>
      <point x="507" y="355" type="curve" smooth="yes"/>
      <point x="528" y="355"/>
      <point x="546" y="376"/>
      <point x="546" y="399" type="curve" smooth="yes"/>
      <point x="546" y="445"/>
      <point x="500" y="476"/>
      <point x="433" y="476" type="curve" smooth="yes"/>
      <point x="330" y="476"/>
      <point x="276" y="417"/>
      <point x="276" y="301" type="curve" smooth="yes"/>
      <point x="276" y="181"/>
      <point x="323" y="127"/>
    </contour>
  </outline>
</glyph>
<glyph name="ordfeminine" format="1">
  <advance width="417"/>
  <unicode hex="00AA"/>
  <outline>
    <contour>
      <point x="354" y="371" type="line"/>
      <point x="335" y="375"/>
      <point x="316" y="381"/>
      <point x="307" y="387" type="curve"/>
      <point x="307" y="568" type="line" smooth="yes"/>
      <point x="307" y="628"/>
      <point x="266" y="665"/>
      <point x="195" y="665" type="curve" smooth="yes"/>
      <point x="123" y="665"/>
      <point x="76" y="635"/>
      <point x="76" y="588" type="curve" smooth="yes"/>
      <point x="76" y="562"/>
      <point x="97" y="550"/>
      <point x="117" y="550" type="curve" smooth="yes"/>
      <point x="135" y="550"/>
      <point x="152" y="560"/>
      <point x="154" y="581" type="curve"/>
      <point x="146" y="590"/>
      <point x="143" y="599"/>
      <point x="143" y="606" type="curve" smooth="yes"/>
      <point x="143" y="623"/>
      <point x="162" y="634"/>
      <point x="190" y="634" type="curve" smooth="yes"/>
      <point x="227" y="634"/>
      <point x="240" y="614"/>
      <point x="240" y="568" type="curve" smooth="yes"/>
      <point x="240" y="520" type="line"/>
      <point x="193" y="516" type="line" smooth="yes"/>
      <point x="112" y="509"/>
      <point x="69" y="477"/>
      <point x="69" y="418" type="curve" smooth="yes"/>
      <point x="69" y="369"/>
      <point x="101" y="340"/>
      <point x="157" y="340" type="curve" smooth="yes"/>
      <point x="190" y="340"/>
      <point x="218" y="347"/>
      <point x="244" y="369" type="curve"/>
      <point x="250" y="345" type="line"/>
      <point x="351" y="345" type="line"/>
    </contour>
    <contour>
      <point x="137" y="423" type="curve" smooth="yes"/>
      <point x="137" y="458"/>
      <point x="160" y="482"/>
      <point x="196" y="485" type="curve" smooth="yes"/>
      <point x="240" y="488" type="line"/>
      <point x="240" y="398" type="line"/>
      <point x="221" y="382"/>
      <point x="199" y="372"/>
      <point x="178" y="372" type="curve" smooth="yes"/>
      <point x="152" y="372"/>
      <point x="137" y="389"/>
    </contour>
    <contour>
      <point x="69" y="256" type="line"/>
      <point x="352" y="256" type="line"/>
      <point x="352" y="290" type="line"/>
      <point x="69" y="290" type="line"/>
    </contour>
  </outline>
</glyph>
<glyph name="guillemotleft" format="1">
  <advance width="488"/>
  <unicode hex="00AB"/>
  <outline>
    <contour>
      <point x="198" y="43" type="line"/>
      <point x="237" y="68" type="line"/>
      <point x="137" y="241" type="line"/>
      <point x="237" y="415" type="line"/>
      <point x="198" y="439" type="line"/>
      <point x="38" y="241" type="line"/>
    </contour>
    <contour>
      <point x="385" y="43" type="line"/>
      <point x="424" y="68" type="line"/>
      <point x="324" y="241" type="line"/>
      <point x="424" y="415" type="line"/>
      <point x="385" y="439" type="line"/>
      <point x="225" y="241" type="line"/>
    </contour>
  </outline>
</glyph>
<glyph name="logicalnot" format="1">
  <advance width="554"/>
  <unicode hex="00AC"/>
  <outline>
    <contour>
      <point x="478" y="398" type="line"/>
      <point x="39" y="398" type="line"/>
      <point x="39" y="345" type="line"/>
      <point x="418" y="345" type="line"/>
      <point x="418" y="177" type="line"/>
      <point x="478" y="177" type="line"/>
    </contour>
  </outline>
</glyph>
<glyph name="registered" format="1">
  <advance width="851"/>
  <unicode hex="00AE"/>
  <outline>
    <contour>
      <point x="489" y="160" type="line"/>
      <point x="571" y="160" type="line"/>
      <point x="575" y="186" type="line"/>
      <point x="540" y="194" type="line"/>
      <point x="503" y="275" type="line"/>
      <point x="497" y="291"/>
      <point x="490" y="299"/>
      <point x="477" y="308" type="curve"/>
      <point x="521" y="320"/>
      <point x="539" y="345"/>
      <point x="539" y="383" type="curve" smooth="yes"/>
      <point x="539" y="438"/>
      <point x="501" y="467"/>
      <point x="427" y="467" type="curve" smooth="yes"/>
      <point x="297" y="467" type="line"/>
      <point x="294" y="442" type="line"/>
      <point x="337" y="430" type="line"/>
      <point x="337" y="194" type="line"/>
      <point x="297" y="185" type="line"/>
      <point x="294" y="160" type="line"/>
      <point x="433" y="160" type="line"/>
      <point x="436" y="185" type="line"/>
      <point x="394" y="194" type="line"/>
      <point x="394" y="297" type="line"/>
      <point x="427" y="297"/>
      <point x="437" y="295"/>
      <point x="450" y="261" type="curve" smooth="yes"/>
    </contour>
    <contour>
      <point x="427" y="437" type="line" smooth="yes"/>
      <point x="460" y="437"/>
      <point x="481" y="418"/>
      <point x="481" y="383" type="curve" smooth="yes"/>
      <point x="481" y="348"/>
      <point x="455" y="330"/>
      <point x="408" y="330" type="curve" smooth="yes"/>
      <point x="394" y="330" type="line"/>
      <point x="394" y="437" type="line"/>
    </contour>
    <contour>
      <point x="179" y="304" type="curve" smooth="yes"/>
      <point x="179" y="442"/>
      <point x="291" y="555"/>
      <point x="425" y="555" type="curve" smooth="yes"/>
      <point x="560" y="555"/>
      <point x="671" y="442"/>
      <point x="671" y="304" type="curve" smooth="yes"/>
      <point x="671" y="165"/>
      <point x="560" y="53"/>
      <point x="425" y="53" type="curve" smooth="yes"/>
      <point x="291" y="53"/>
      <point x="179" y="165"/>
    </contour>
    <contour>
      <point x="135" y="304" type="curve" smooth="yes"/>
      <point x="135" y="145"/>
      <point x="263" y="16"/>
      <point x="425" y="16" type="curve" smooth="yes"/>
      <point x="587" y="16"/>
      <point x="716" y="145"/>
      <point x="716" y="304" type="curve" smooth="yes"/>
      <point x="716" y="463"/>
      <point x="586" y="592"/>
      <point x="425" y="592" type="curve" smooth="yes"/>
      <point x="264" y="592"/>
      <point x="135" y="463"/>
    </contour>
  </outline>
</glyph>
<glyph name="macron" format="1">
  <advance width="285"/>
  <unicode hex="00AF"/>
  <outline>
    <contour>
      <point x="3" y="570" type="line"/>
      <point x="281" y="570" type="line"/>
      <point x="281" y="614" type="line"/>
      <point x="3" y="614" type="line"/>
    </contour>
  </outline>
</glyph>
<glyph name="degree" format="1">
  <advance width="375"/>
  <unicode hex="00B0"/>
  <outline>
    <contour>
      <point x="47" y="527" type="curve" smooth="yes"/>
      <point x="47" y="452"/>
      <point x="106" y="390"/>
      <point x="187" y="390" type="curve" smooth="yes"/>
      <point x="269" y="390"/>
      <point x="328" y="452"/>
      <point x="328" y="527" type="curve" smooth="yes"/>
      <point x="328" y="603"/>
      <point x="269" y="665"/>
      <point x="187" y="665" type="curve" smooth="yes"/>
      <point x="106" y="665"/>
      <point x="47" y="603"/>
    </contour>
    <contour>
      <point x="116" y="527" type="curve" smooth="yes"/>
      <point x="116" y="583"/>
      <point x="140" y="629"/>
      <point x="187" y="629" type="curve" smooth="yes"/>
      <point x="235" y="629"/>
      <point x="259" y="583"/>
      <point x="259" y="527" type="curve" smooth="yes"/>
      <point x="259" y="471"/>
      <point x="235" y="425"/>
      <point x="187" y="425" type="curve" smooth="yes"/>
      <point x="140" y="425"/>
      <point x="116" y="471"/>
    </contour>
  </outline>
</glyph>
<glyph name="plusminus" format="1">
  <advance width="554"/>
  <unicode hex="00B1"/>
  <outline>
    <contour>
      <point x="72" y="327" type="line"/>
      <point x="244" y="327" type="line"/>
      <point x="244" y="150" type="line"/>
      <point x="304" y="150" type="line"/>
      <point x="304" y="327" type="line"/>
      <point x="481" y="327" type="line"/>
      <point x="481" y="380" type="line"/>
      <point x="304" y="380" type="line"/>
      <point x="304" y="558" type="line"/>
      <point x="244" y="558" type="line"/>
      <point x="244" y="380" type="line"/>
      <point x="72" y="380" type="line"/>
    </contour>
    <contour>
      <point x="75" y="27" type="line"/>
      <point x="475" y="27" type="line"/>
      <point x="475" y="80" type="line"/>
      <point x="75" y="80" type="line"/>
    </contour>
  </outline>
</glyph>
<glyph name="twosuperior" format="1">
  <advance width="407"/>
  <unicode hex="00B2"/>
  <outline>
    <contour>
      <point x="132" y="459" type="line"/>
      <point x="262" y="561"/>
      <point x="309" y="631"/>
      <point x="309" y="698" type="curve" smooth="yes"/>
      <point x="309" y="771"/>
      <point x="261" y="812"/>
      <point x="176" y="812" type="curve" smooth="yes"/>
      <point x="107" y="812"/>
      <point x="45" y="786"/>
      <point x="45" y="724" type="curve" smooth="yes"/>
      <point x="45" y="688"/>
      <point x="68" y="674"/>
      <point x="89" y="674" type="curve" smooth="yes"/>
      <point x="103" y="674"/>
      <point x="118" y="681"/>
      <point x="130" y="692" type="curve"/>
      <point x="119" y="704"/>
      <point x="113" y="716"/>
      <point x="113" y="726" type="curve" smooth="yes"/>
      <point x="113" y="755"/>
      <point x="137" y="772"/>
      <point x="176" y="772" type="curve" smooth="yes"/>
      <point x="223" y="772"/>
      <point x="240" y="744"/>
      <point x="240" y="703" type="curve" smooth="yes"/>
      <point x="240" y="638"/>
      <point x="196" y="575"/>
      <point x="46" y="447" type="curve"/>
      <point x="46" y="405" type="line"/>
      <point x="326" y="405" type="line"/>
      <point x="326" y="459" type="line"/>
    </contour>
  </outline>
</glyph>
<glyph name="threesuperior" format="1">
  <advance width="407"/>
  <unicode hex="00B3"/>
  <outline>
    <contour>
      <point x="142" y="599" type="line"/>
      <point x="213" y="599"/>
      <point x="254" y="569"/>
      <point x="254" y="518" type="curve" smooth="yes"/>
      <point x="254" y="469"/>
      <point x="228" y="440"/>
      <point x="186" y="440" type="curve" smooth="yes"/>
      <point x="144" y="440"/>
      <point x="118" y="458"/>
      <point x="118" y="485" type="curve" smooth="yes"/>
      <point x="118" y="491"/>
      <point x="120" y="502"/>
      <point x="125" y="512" type="curve"/>
      <point x="112" y="521"/>
      <point x="99" y="525"/>
      <point x="89" y="525" type="curve" smooth="yes"/>
      <point x="64" y="525"/>
      <point x="47" y="510"/>
      <point x="47" y="487" type="curve" smooth="yes"/>
      <point x="47" y="433"/>
      <point x="98" y="401"/>
      <point x="183" y="401" type="curve" smooth="yes"/>
      <point x="263" y="401"/>
      <point x="319" y="448"/>
      <point x="319" y="517" type="curve" smooth="yes"/>
      <point x="319" y="568"/>
      <point x="293" y="601"/>
      <point x="241" y="618" type="curve"/>
      <point x="289" y="636"/>
      <point x="314" y="668"/>
      <point x="314" y="711" type="curve" smooth="yes"/>
      <point x="314" y="771"/>
      <point x="263" y="812"/>
      <point x="189" y="812" type="curve" smooth="yes"/>
      <point x="118" y="812"/>
      <point x="64" y="777"/>
      <point x="64" y="733" type="curve" smooth="yes"/>
      <point x="64" y="706"/>
      <point x="77" y="689"/>
      <point x="98" y="689" type="curve" smooth="yes"/>
      <point x="110" y="689"/>
      <point x="124" y="694"/>
      <point x="138" y="704" type="curve"/>
      <point x="132" y="712"/>
      <point x="128" y="720"/>
      <point x="128" y="728" type="curve" smooth="yes"/>
      <point x="128" y="754"/>
      <point x="151" y="772"/>
      <point x="187" y="772" type="curve" smooth="yes"/>
      <point x="225" y="772"/>
      <point x="246" y="750"/>
      <point x="246" y="711" type="curve" smooth="yes"/>
      <point x="246" y="663"/>
      <point x="210" y="637"/>
      <point x="142" y="635" type="curve"/>
    </contour>
  </outline>
</glyph>
<glyph name="acute" format="1">
  <advance width="285"/>
  <unicode hex="00B4"/>
  <outline>
    <contour>
      <point x="89" y="524" type="line"/>
      <point x="193" y="607" type="line" smooth="yes"/>
      <point x="208" y="620"/>
      <point x="218" y="630"/>
      <point x="218" y="646" type="curve" smooth="yes"/>
      <point x="218" y="664"/>
      <point x="201" y="681"/>
      <point x="182" y="681" type="curve" smooth="yes"/>
      <point x="168" y="681"/>
      <point x="159" y="676"/>
      <point x="150" y="664" type="curve" smooth="yes"/>
      <point x="67" y="548" type="line"/>
    </contour>
  </outline>
</glyph>
<glyph name="mu" format="1">
  <advance width="544"/>
  <unicode hex="00B5"/>
  <outline>
    <contour>
      <point x="365" y="349" type="curve" smooth="yes"/>
      <point x="365" y="117" type="line"/>
      <point x="333" y="59"/>
      <point x="290" y="38"/>
      <point x="259" y="38" type="curve" smooth="yes"/>
      <point x="197" y="38"/>
      <point x="173" y="81"/>
      <point x="173" y="143" type="curve" smooth="yes"/>
      <point x="173" y="469" type="line"/>
      <point x="153" y="479" type="line"/>
      <point x="112" y="467"/>
      <point x="65" y="452"/>
      <point x="21" y="444" type="curve"/>
      <point x="18" y="415" type="line"/>
      <point x="69" y="413"/>
      <point x="87" y="399"/>
      <point x="87" y="349" type="curve" smooth="yes"/>
      <point x="87" y="-205" type="line"/>
      <point x="173" y="-205" type="line"/>
      <point x="173" y="5" type="line"/>
      <point x="194" y="-2"/>
      <point x="219" y="-7"/>
      <point x="248" y="-7" type="curve" smooth="yes"/>
      <point x="293" y="-7"/>
      <point x="338" y="17"/>
      <point x="373" y="63" type="curve"/>
      <point x="383" y="0" type="line"/>
      <point x="516" y="0" type="line"/>
      <point x="520" y="35" type="line"/>
      <point x="491" y="40"/>
      <point x="462" y="52"/>
      <point x="450" y="62" type="curve"/>
      <point x="450" y="469" type="line"/>
      <point x="431" y="479" type="line"/>
      <point x="390" y="467"/>
      <point x="343" y="452"/>
      <point x="298" y="444" type="curve"/>
      <point x="295" y="415" type="line"/>
      <point x="346" y="413"/>
      <point x="365" y="399"/>
    </contour>
  </outline>
</glyph>
<glyph name="paragraph" format="1">
  <advance width="588"/>
  <unicode hex="00B6"/>
  <outline>
    <contour>
      <point x="301" y="314" type="curve"/>
      <point x="301" y="-91" type="line" smooth="yes"/>
      <point x="301" y="-119"/>
      <point x="288" y="-143"/>
      <point x="261" y="-143" type="curve" smooth="yes"/>
      <point x="237" y="-143"/>
      <point x="220" y="-128"/>
      <point x="220" y="-101" type="curve" smooth="yes"/>
      <point x="220" y="-88"/>
      <point x="223" y="-75"/>
      <point x="238" y="-62" type="curve"/>
      <point x="230" y="-45"/>
      <point x="215" y="-37"/>
      <point x="198" y="-37" type="curve" smooth="yes"/>
      <point x="170" y="-37"/>
      <point x="146" y="-60"/>
      <point x="146" y="-97" type="curve" smooth="yes"/>
      <point x="146" y="-154"/>
      <point x="192" y="-179"/>
      <point x="261" y="-179" type="curve" smooth="yes"/>
      <point x="307" y="-179"/>
      <point x="426" y="-164"/>
      <point x="426" y="0" type="curve" smooth="yes"/>
      <point x="426" y="593" type="line"/>
      <point x="453" y="610"/>
      <point x="483" y="616"/>
      <point x="516" y="620" type="curve"/>
      <point x="521" y="657" type="line"/>
      <point x="301" y="657" type="line" smooth="yes"/>
      <point x="164" y="657"/>
      <point x="67" y="618"/>
      <point x="67" y="484" type="curve" smooth="yes"/>
      <point x="67" y="350"/>
      <point x="164" y="314"/>
    </contour>
    <contour>
      <point x="166" y="485" type="curve" smooth="yes"/>
      <point x="166" y="572"/>
      <point x="214" y="613"/>
      <point x="301" y="613" type="curve"/>
      <point x="301" y="358" type="line"/>
      <point x="219" y="358"/>
      <point x="166" y="403"/>
    </contour>
    <contour>
      <point x="349" y="615" type="line"/>
      <point x="385" y="612" type="line"/>
      <point x="385" y="-47" type="line" smooth="yes"/>
      <point x="385" y="-99"/>
      <point x="364" y="-123"/>
      <point x="333" y="-132" type="curve"/>
      <point x="342" y="-123"/>
      <point x="349" y="-98"/>
      <point x="349" y="-78" type="curve" smooth="yes"/>
    </contour>
  </outline>
</glyph>
<glyph name="periodcentered" format="1">
  <advance width="282"/>
  <unicode hex="00B7"/>
  <outline>
    <contour>
      <point x="141" y="351" type="curve" smooth="yes"/>
      <point x="105" y="351"/>
      <point x="88" y="329"/>
      <point x="88" y="293" type="curve" smooth="yes"/>
      <point x="88" y="258"/>
      <point x="105" y="235"/>
      <point x="141" y="235" type="curve" smooth="yes"/>
      <point x="177" y="235"/>
      <point x="194" y="257"/>
      <point x="194" y="293" type="curve" smooth="yes"/>
      <point x="194" y="328"/>
      <point x="177" y="351"/>
    </contour>
  </outline>
</glyph>
<glyph name="cedilla" format="1">
  <advance width="285"/>
  <unicode hex="00B8"/>
  <outline>
    <contour>
      <point x="107" y="-56" type="line"/>
      <point x="125" y="-76" type="line"/>
      <point x="154" y="-80"/>
      <point x="180" y="-91"/>
      <point x="180" y="-121" type="curve" smooth="yes"/>
      <point x="180" y="-154"/>
      <point x="167" y="-171"/>
      <point x="137" y="-171" type="curve" smooth="yes"/>
      <point x="113" y="-171"/>
      <point x="92" y="-152"/>
      <point x="92" y="-124" type="curve" smooth="yes"/>
      <point x="92" y="-117"/>
      <point x="94" y="-110"/>
      <point x="96" y="-103" type="curve"/>
      <point x="89" y="-100"/>
      <point x="84" y="-99"/>
      <point x="78" y="-99" type="curve" smooth="yes"/>
      <point x="57" y="-99"/>
      <point x="45" y="-118"/>
      <point x="45" y="-138" type="curve" smooth="yes"/>
      <point x="45" y="-168"/>
      <point x="71" y="-204"/>
      <point x="136" y="-204" type="curve" smooth="yes"/>
      <point x="191" y="-204"/>
      <point x="231" y="-169"/>
      <point x="231" y="-125" type="curve" smooth="yes"/>
      <point x="231" y="-74"/>
      <point x="201" y="-55"/>
      <point x="155" y="-46" type="curve"/>
      <point x="173" y="4" type="line"/>
      <point x="147" y="9" type="line"/>
    </contour>
  </outline>
</glyph>
<glyph name="onesuperior" format="1">
  <advance width="407"/>
  <unicode hex="00B9"/>
  <outline>
    <contour>
      <point x="89" y="405" type="line"/>
      <point x="324" y="405" type="line"/>
      <point x="327" y="435" type="line"/>
      <point x="312" y="436"/>
      <point x="264" y="443"/>
      <point x="245" y="452" type="curve"/>
      <point x="245" y="802" type="line"/>
      <point x="219" y="812" type="line"/>
      <point x="181" y="794"/>
      <point x="139" y="783"/>
      <point x="92" y="779" type="curve"/>
      <point x="92" y="743" type="line"/>
      <point x="180" y="743" type="line"/>
      <point x="180" y="452" type="line"/>
      <point x="159" y="444"/>
      <point x="128" y="439"/>
      <point x="91" y="435" type="curve"/>
    </contour>
  </outline>
</glyph>
<glyph name="ordmasculine" format="1">
  <advance width="428"/>
  <unicode hex="00BA"/>
  <outline>
    <contour>
      <point x="135" y="502" type="curve" smooth="yes"/>
      <point x="135" y="592"/>
      <point x="157" y="629"/>
      <point x="208" y="629" type="curve" smooth="yes"/>
      <point x="260" y="629"/>
      <point x="283" y="592"/>
      <point x="283" y="502" type="curve" smooth="yes"/>
      <point x="283" y="412"/>
      <point x="260" y="375"/>
      <point x="208" y="375" type="curve" smooth="yes"/>
      <point x="157" y="375"/>
      <point x="135" y="412"/>
    </contour>
    <contour>
      <point x="66" y="502" type="curve" smooth="yes"/>
      <point x="66" y="396"/>
      <point x="114" y="340"/>
      <point x="208" y="340" type="curve" smooth="yes"/>
      <point x="303" y="340"/>
      <point x="352" y="396"/>
      <point x="352" y="502" type="curve" smooth="yes"/>
      <point x="352" y="607"/>
      <point x="303" y="665"/>
      <point x="208" y="665" type="curve" smooth="yes"/>
      <point x="114" y="665"/>
      <point x="66" y="607"/>
    </contour>
    <contour>
      <point x="66" y="256" type="line"/>
      <point x="353" y="256" type="line"/>
      <point x="353" y="290" type="line"/>
      <point x="66" y="290" type="line"/>
    </contour>
  </outline>
</glyph>
<glyph name="guillemotright" format="1">
  <advance width="488"/>
  <unicode hex="00BB"/>
  <outline>
    <contour>
      <point x="263" y="241" type="line"/>
      <point x="103" y="439" type="line"/>
      <point x="64" y="415" type="line"/>
      <point x="163" y="241" type="line"/>
      <point x="64" y="68" type="line"/>
      <point x="103" y="43" type="line"/>
    </contour>
    <contour>
      <point x="450" y="241" type="line"/>
      <point x="290" y="439" type="line"/>
      <point x="251" y="415" type="line"/>
      <point x="350" y="241" type="line"/>
      <point x="251" y="68" type="line"/>
      <point x="290" y="43" type="line"/>
    </contour>
  </outline>
</glyph>
<glyph name="onequarter" format="1">
  <advance width="865"/>
  <unicode hex="00BC"/>
  <outline>
    <contour>
      <point x="282" y="-32" type="line"/>
      <point x="593" y="657" type="line"/>
      <point x="542" y="680" type="line"/>
      <point x="232" y="-6" type="line"/>
    </contour>
    <contour>
      <point x="95" y="295" type="line"/>
      <point x="291" y="295" type="line"/>
      <point x="293" y="323" type="line"/>
      <point x="230" y="339" type="line"/>
      <point x="230" y="662" type="line"/>
      <point x="205" y="672" type="line"/>
      <point x="171" y="655"/>
      <point x="131" y="644"/>
      <point x="90" y="637" type="curve"/>
      <point x="90" y="609" type="line"/>
      <point x="167" y="609" type="line"/>
      <point x="167" y="339" type="line"/>
      <point x="98" y="323" type="line"/>
    </contour>
    <contour>
      <point x="676" y="99" type="line"/>
      <point x="676" y="42" type="line"/>
      <point x="662" y="35"/>
      <point x="644" y="32"/>
      <point x="625" y="29" type="curve"/>
      <point x="620" y="0" type="line"/>
      <point x="785" y="0" type="line"/>
      <point x="789" y="29" type="line"/>
      <point x="772" y="32"/>
      <point x="754" y="35"/>
      <point x="739" y="42" type="curve"/>
      <point x="739" y="99" type="line"/>
      <point x="793" y="99" type="line"/>
      <point x="793" y="139" type="line"/>
      <point x="739" y="139" type="line"/>
      <point x="739" y="371" type="line"/>
      <point x="672" y="371" type="line"/>
      <point x="510" y="123" type="line"/>
      <point x="515" y="99" type="line"/>
    </contour>
    <contour>
      <point x="572" y="139" type="line"/>
      <point x="676" y="300" type="line"/>
      <point x="676" y="139" type="line"/>
    </contour>
  </outline>
</glyph>
<glyph name="onehalf" format="1">
  <advance width="890"/>
  <unicode hex="00BD"/>
  <outline>
    <contour>
      <point x="91" y="295" type="line"/>
      <point x="287" y="295" type="line"/>
      <point x="289" y="323" type="line"/>
      <point x="226" y="339" type="line"/>
      <point x="226" y="662" type="line"/>
      <point x="201" y="672" type="line"/>
      <point x="167" y="655"/>
      <point x="127" y="644"/>
      <point x="86" y="637" type="curve"/>
      <point x="86" y="609" type="line"/>
      <point x="163" y="609" type="line"/>
      <point x="163" y="339" type="line"/>
      <point x="94" y="323" type="line"/>
    </contour>
    <contour>
      <point x="300" y="-32" type="line"/>
      <point x="611" y="657" type="line"/>
      <point x="560" y="680" type="line"/>
      <point x="250" y="-6" type="line"/>
    </contour>
    <contour>
      <point x="555" y="0" type="line"/>
      <point x="823" y="0" type="line"/>
      <point x="823" y="52" type="line"/>
      <point x="637" y="52" type="line"/>
      <point x="763" y="146"/>
      <point x="807" y="209"/>
      <point x="807" y="270" type="curve" smooth="yes"/>
      <point x="807" y="337"/>
      <point x="759" y="377"/>
      <point x="680" y="377" type="curve" smooth="yes"/>
      <point x="612" y="377"/>
      <point x="556" y="333"/>
      <point x="556" y="286" type="curve" smooth="yes"/>
      <point x="556" y="250"/>
      <point x="577" y="237"/>
      <point x="598" y="237" type="curve" smooth="yes"/>
      <point x="613" y="237"/>
      <point x="627" y="244"/>
      <point x="636" y="253" type="curve"/>
      <point x="627" y="266"/>
      <point x="623" y="277"/>
      <point x="623" y="290" type="curve" smooth="yes"/>
      <point x="623" y="315"/>
      <point x="642" y="338"/>
      <point x="680" y="338" type="curve" smooth="yes"/>
      <point x="719" y="338"/>
      <point x="739" y="317"/>
      <point x="739" y="275" type="curve" smooth="yes"/>
      <point x="739" y="214"/>
      <point x="697" y="157"/>
      <point x="555" y="40" type="curve"/>
    </contour>
  </outline>
</glyph>
<glyph name="threequarters" format="1">
  <advance width="865"/>
  <unicode hex="00BE"/>
  <outline>
    <contour>
      <point x="291" y="-32" type="line"/>
      <point x="602" y="657" type="line"/>
      <point x="551" y="680" type="line"/>
      <point x="241" y="-6" type="line"/>
    </contour>
    <contour>
      <point x="151" y="472" type="line"/>
      <point x="155" y="472" type="line" smooth="yes"/>
      <point x="224" y="471"/>
      <point x="258" y="440"/>
      <point x="258" y="395" type="curve" smooth="yes"/>
      <point x="258" y="351"/>
      <point x="235" y="327"/>
      <point x="194" y="327" type="curve" smooth="yes"/>
      <point x="155" y="327"/>
      <point x="132" y="346"/>
      <point x="132" y="375" type="curve" smooth="yes"/>
      <point x="132" y="382"/>
      <point x="134" y="392"/>
      <point x="138" y="402" type="curve"/>
      <point x="127" y="410"/>
      <point x="114" y="415"/>
      <point x="103" y="415" type="curve" smooth="yes"/>
      <point x="82" y="415"/>
      <point x="62" y="403"/>
      <point x="62" y="378" type="curve" smooth="yes"/>
      <point x="62" y="325"/>
      <point x="111" y="288"/>
      <point x="191" y="288" type="curve" smooth="yes"/>
      <point x="271" y="288"/>
      <point x="325" y="334"/>
      <point x="325" y="395" type="curve" smooth="yes"/>
      <point x="325" y="438"/>
      <point x="301" y="473"/>
      <point x="244" y="489" type="curve"/>
      <point x="305" y="512"/>
      <point x="316" y="546"/>
      <point x="316" y="577" type="curve" smooth="yes"/>
      <point x="316" y="631"/>
      <point x="270" y="669"/>
      <point x="197" y="669" type="curve" smooth="yes"/>
      <point x="127" y="669"/>
      <point x="77" y="634"/>
      <point x="77" y="591" type="curve" smooth="yes"/>
      <point x="77" y="565"/>
      <point x="90" y="548"/>
      <point x="112" y="548" type="curve" smooth="yes"/>
      <point x="124" y="548"/>
      <point x="136" y="552"/>
      <point x="149" y="562" type="curve"/>
      <point x="144" y="570"/>
      <point x="142" y="577"/>
      <point x="142" y="586" type="curve" smooth="yes"/>
      <point x="142" y="608"/>
      <point x="160" y="630"/>
      <point x="196" y="630" type="curve" smooth="yes"/>
      <point x="230" y="630"/>
      <point x="251" y="611"/>
      <point x="251" y="577" type="curve" smooth="yes"/>
      <point x="251" y="530"/>
      <point x="214" y="505"/>
      <point x="151" y="503" type="curve"/>
    </contour>
    <contour>
      <point x="676" y="99" type="line"/>
      <point x="676" y="42" type="line"/>
      <point x="662" y="35"/>
      <point x="644" y="32"/>
      <point x="625" y="29" type="curve"/>
      <point x="620" y="0" type="line"/>
      <point x="785" y="0" type="line"/>
      <point x="789" y="29" type="line"/>
      <point x="772" y="32"/>
      <point x="754" y="35"/>
      <point x="739" y="42" type="curve"/>
      <point x="739" y="99" type="line"/>
      <point x="793" y="99" type="line"/>
      <point x="793" y="139" type="line"/>
      <point x="739" y="139" type="line"/>
      <point x="739" y="371" type="line"/>
      <point x="672" y="371" type="line"/>
      <point x="510" y="123" type="line"/>
      <point x="515" y="99" type="line"/>
    </contour>
    <contour>
      <point x="572" y="139" type="line"/>
      <point x="676" y="300" type="line"/>
      <point x="676" y="139" type="line"/>
    </contour>
  </outline>
</glyph>
<glyph name="questiondown" format="1">
  <advance width="422"/>
  <unicode hex="00BF"/>
  <outline>
    <contour>
      <point x="291" y="201" type="curve" smooth="yes"/>
      <point x="291" y="233"/>
      <point x="274" y="263"/>
      <point x="242" y="263" type="curve" smooth="yes"/>
      <point x="225" y="263"/>
      <point x="208" y="254"/>
      <point x="198" y="246" type="curve"/>
      <point x="202" y="230"/>
      <point x="204" y="215"/>
      <point x="204" y="203" type="curve" smooth="yes"/>
      <point x="204" y="111"/>
      <point x="43" y="75"/>
      <point x="43" y="-64" type="curve" smooth="yes"/>
      <point x="43" y="-157"/>
      <point x="115" y="-191"/>
      <point x="208" y="-191" type="curve" smooth="yes"/>
      <point x="280" y="-191"/>
      <point x="360" y="-160"/>
      <point x="360" y="-89" type="curve" smooth="yes"/>
      <point x="360" y="-54"/>
      <point x="346" y="-31"/>
      <point x="311" y="-31" type="curve" smooth="yes"/>
      <point x="290" y="-31"/>
      <point x="276" y="-42"/>
      <point x="263" y="-61" type="curve"/>
      <point x="271" y="-74"/>
      <point x="274" y="-87"/>
      <point x="274" y="-97" type="curve" smooth="yes"/>
      <point x="274" y="-134"/>
      <point x="241" y="-148"/>
      <point x="204" y="-148" type="curve" smooth="yes"/>
      <point x="159" y="-148"/>
      <point x="122" y="-121"/>
      <point x="122" y="-76" type="curve" smooth="yes"/>
      <point x="122" y="53"/>
      <point x="291" y="67"/>
    </contour>
    <contour>
      <point x="234" y="487" type="curve" smooth="yes"/>
      <point x="198" y="487"/>
      <point x="181" y="465"/>
      <point x="181" y="429" type="curve" smooth="yes"/>
      <point x="181" y="394"/>
      <point x="198" y="371"/>
      <point x="234" y="371" type="curve" smooth="yes"/>
      <point x="270" y="371"/>
      <point x="287" y="393"/>
      <point x="287" y="429" type="curve" smooth="yes"/>
      <point x="287" y="464"/>
      <point x="270" y="487"/>
    </contour>
  </outline>
</glyph>
<glyph name="Agrave" format="1">
  <advance width="623"/>
  <unicode hex="00C0"/>
  <outline>
    <contour>
      <point x="13" y="0" type="line"/>
      <point x="245" y="0" type="line"/>
      <point x="249" y="37" type="line"/>
      <point x="216" y="41"/>
      <point x="181" y="47"/>
      <point x="152" y="64" type="curve"/>
      <point x="198" y="215" type="line"/>
      <point x="400" y="215" type="line"/>
      <point x="451" y="64" type="line"/>
      <point x="422" y="47"/>
      <point x="392" y="41"/>
      <point x="359" y="37" type="curve"/>
      <point x="354" y="0" type="line"/>
      <point x="604" y="0" type="line"/>
      <point x="608" y="37" type="line"/>
      <point x="585" y="41"/>
      <point x="563" y="47"/>
      <point x="542" y="62" type="curve"/>
      <point x="336" y="667" type="line"/>
      <point x="276" y="667" type="line"/>
      <point x="89" y="63" type="line"/>
      <point x="66" y="46"/>
      <point x="44" y="41"/>
      <point x="18" y="37" type="curve"/>
    </contour>
    <contour>
      <point x="295" y="528" type="line"/>
      <point x="383" y="267" type="line"/>
      <point x="214" y="267" type="line"/>
    </contour>
    <contour>
      <point x="360" y="720" type="line"/>
      <point x="277" y="836" type="line" smooth="yes"/>
      <point x="268" y="848"/>
      <point x="259" y="853"/>
      <point x="245" y="853" type="curve" smooth="yes"/>
      <point x="226" y="853"/>
      <point x="209" y="836"/>
      <point x="209" y="818" type="curve" smooth="yes"/>
      <point x="209" y="802"/>
      <point x="219" y="792"/>
      <point x="234" y="779" type="curve" smooth="yes"/>
      <point x="336" y="696" type="line"/>
    </contour>
  </outline>
</glyph>
<glyph name="Atilde" format="1">
  <advance width="623"/>
  <unicode hex="00C3"/>
  <outline>
    <contour>
      <point x="13" y="0" type="line"/>
      <point x="245" y="0" type="line"/>
      <point x="249" y="37" type="line"/>
      <point x="216" y="41"/>
      <point x="181" y="47"/>
      <point x="152" y="64" type="curve"/>
      <point x="198" y="215" type="line"/>
      <point x="400" y="215" type="line"/>
      <point x="451" y="64" type="line"/>
      <point x="422" y="47"/>
      <point x="392" y="41"/>
      <point x="359" y="37" type="curve"/>
      <point x="354" y="0" type="line"/>
      <point x="604" y="0" type="line"/>
      <point x="608" y="37" type="line"/>
      <point x="585" y="41"/>
      <point x="563" y="47"/>
      <point x="542" y="62" type="curve"/>
      <point x="336" y="667" type="line"/>
      <point x="276" y="667" type="line"/>
      <point x="89" y="63" type="line"/>
      <point x="66" y="46"/>
      <point x="44" y="41"/>
      <point x="18" y="37" type="curve"/>
    </contour>
    <contour>
      <point x="295" y="528" type="line"/>
      <point x="383" y="267" type="line"/>
      <point x="214" y="267" type="line"/>
    </contour>
    <contour>
      <point x="185" y="723" type="curve"/>
      <point x="204" y="742"/>
      <point x="224" y="758"/>
      <point x="250" y="758" type="curve" smooth="yes"/>
      <point x="291" y="758"/>
      <point x="319" y="723"/>
      <point x="368" y="723" type="curve" smooth="yes"/>
      <point x="418" y="723"/>
      <point x="454" y="776"/>
      <point x="466" y="803" type="curve"/>
      <point x="456" y="811"/>
      <point x="447" y="817"/>
      <point x="433" y="822" type="curve"/>
      <point x="414" y="803"/>
      <point x="395" y="785"/>
      <point x="367" y="785" type="curve" smooth="yes"/>
      <point x="328" y="785"/>
      <point x="297" y="820"/>
      <point x="253" y="820" type="curve" smooth="yes"/>
      <point x="198" y="820"/>
      <point x="164" y="769"/>
      <point x="153" y="742" type="curve"/>
      <point x="162" y="734"/>
      <point x="171" y="727"/>
    </contour>
  </outline>
</glyph>
<glyph name="Adieresis" format="1">
  <advance width="623"/>
  <unicode hex="00C4"/>
  <outline>
    <contour>
      <point x="13" y="0" type="line"/>
      <point x="245" y="0" type="line"/>
      <point x="249" y="37" type="line"/>
      <point x="216" y="41"/>
      <point x="181" y="47"/>
      <point x="152" y="64" type="curve"/>
      <point x="198" y="215" type="line"/>
      <point x="400" y="215" type="line"/>
      <point x="451" y="64" type="line"/>
      <point x="422" y="47"/>
      <point x="392" y="41"/>
      <point x="359" y="37" type="curve"/>
      <point x="354" y="0" type="line"/>
      <point x="604" y="0" type="line"/>
      <point x="608" y="37" type="line"/>
      <point x="585" y="41"/>
      <point x="563" y="47"/>
      <point x="542" y="62" type="curve"/>
      <point x="336" y="667" type="line"/>
      <point x="276" y="667" type="line"/>
      <point x="89" y="63" type="line"/>
      <point x="66" y="46"/>
      <point x="44" y="41"/>
      <point x="18" y="37" type="curve"/>
    </contour>
    <contour>
      <point x="295" y="528" type="line"/>
      <point x="383" y="267" type="line"/>
      <point x="214" y="267" type="line"/>
    </contour>
    <contour>
      <point x="226" y="728" type="curve" smooth="yes"/>
      <point x="257" y="728"/>
      <point x="273" y="747"/>
      <point x="273" y="781" type="curve" smooth="yes"/>
      <point x="273" y="814"/>
      <point x="257" y="833"/>
      <point x="226" y="833" type="curve" smooth="yes"/>
      <point x="193" y="833"/>
      <point x="179" y="814"/>
      <point x="179" y="781" type="curve" smooth="yes"/>
      <point x="179" y="747"/>
      <point x="193" y="728"/>
    </contour>
    <contour>
      <point x="392" y="728" type="curve" smooth="yes"/>
      <point x="424" y="728"/>
      <point x="440" y="747"/>
      <point x="440" y="781" type="curve" smooth="yes"/>
      <point x="440" y="814"/>
      <point x="424" y="833"/>
      <point x="392" y="833" type="curve" smooth="yes"/>
      <point x="360" y="833"/>
      <point x="346" y="814"/>
      <point x="346" y="781" type="curve" smooth="yes"/>
      <point x="346" y="747"/>
      <point x="360" y="728"/>
    </contour>
  </outline>
</glyph>
<glyph name="Ccedilla" format="1">
  <advance width="562"/>
  <unicode hex="00C7"/>
  <outline>
    <contour>
      <point x="263" y="-56" type="line"/>
      <point x="281" y="-76" type="line"/>
      <point x="310" y="-80"/>
      <point x="336" y="-91"/>
      <point x="336" y="-121" type="curve" smooth="yes"/>
      <point x="336" y="-154"/>
      <point x="323" y="-171"/>
      <point x="293" y="-171" type="curve" smooth="yes"/>
      <point x="269" y="-171"/>
      <point x="248" y="-152"/>
      <point x="248" y="-124" type="curve" smooth="yes"/>
      <point x="248" y="-117"/>
      <point x="250" y="-110"/>
      <point x="252" y="-103" type="curve"/>
      <point x="245" y="-100"/>
      <point x="240" y="-99"/>
      <point x="234" y="-99" type="curve" smooth="yes"/>
      <point x="213" y="-99"/>
      <point x="201" y="-118"/>
      <point x="201" y="-138" type="curve" smooth="yes"/>
      <point x="201" y="-168"/>
      <point x="227" y="-204"/>
      <point x="292" y="-204" type="curve" smooth="yes"/>
      <point x="347" y="-204"/>
      <point x="387" y="-169"/>
      <point x="387" y="-125" type="curve" smooth="yes"/>
      <point x="387" y="-74"/>
      <point x="357" y="-55"/>
      <point x="311" y="-46" type="curve"/>
      <point x="325" y="-7" type="line"/>
      <point x="454" y="-5"/>
      <point x="534" y="97"/>
      <point x="534" y="97" type="curve"/>
      <point x="499" y="135" type="line"/>
      <point x="468" y="95"/>
      <point x="397" y="53"/>
      <point x="323" y="53" type="curve" smooth="yes"/>
      <point x="214" y="53"/>
      <point x="164" y="141"/>
      <point x="164" y="334" type="curve" smooth="yes"/>
      <point x="164" y="531"/>
      <point x="215" y="622"/>
      <point x="323" y="622" type="curve" smooth="yes"/>
      <point x="385" y="622"/>
      <point x="425" y="595"/>
      <point x="425" y="554" type="curve" smooth="yes"/>
      <point x="425" y="538"/>
      <point x="419" y="522"/>
      <point x="406" y="504" type="curve"/>
      <point x="414" y="481"/>
      <point x="438" y="465"/>
      <point x="464" y="465" type="curve" smooth="yes"/>
      <point x="496" y="465"/>
      <point x="522" y="500"/>
      <point x="522" y="544" type="curve" smooth="yes"/>
      <point x="522" y="620"/>
      <point x="438" y="676"/>
      <point x="323" y="676" type="curve" smooth="yes"/>
      <point x="147" y="676"/>
      <point x="64" y="566"/>
      <point x="64" y="334" type="curve" smooth="yes"/>
      <point x="64" y="114"/>
      <point x="137" y="5"/>
      <point x="294" y="-6" type="curve"/>
    </contour>
  </outline>
</glyph>
<glyph name="Eacute" format="1">
  <advance width="575"/>
  <unicode hex="00C9"/>
  <outline>
    <contour>
      <point x="482" y="667" type="line"/>
      <point x="36" y="667" type="line"/>
      <point x="35" y="655"/>
      <point x="33" y="643"/>
      <point x="31" y="631" type="curve"/>
      <point x="64" y="627"/>
      <point x="100" y="619"/>
      <point x="129" y="604" type="curve"/>
      <point x="129" y="64" type="line"/>
      <point x="113" y="52"/>
      <point x="70" y="41"/>
      <point x="37" y="37" type="curve"/>
      <point x="31" y="0" type="line"/>
      <point x="504" y="0" type="line"/>
      <point x="513" y="171" type="line"/>
      <point x="505" y="172"/>
      <point x="499" y="173"/>
      <point x="492" y="173" type="curve" smooth="yes"/>
      <point x="486" y="173"/>
      <point x="479" y="172"/>
      <point x="473" y="171" type="curve"/>
      <point x="467" y="138"/>
      <point x="456" y="94"/>
      <point x="430" y="58" type="curve"/>
      <point x="217" y="58" type="line"/>
      <point x="217" y="318" type="line"/>
      <point x="329" y="312" type="line" smooth="yes"/>
      <point x="367" y="310"/>
      <point x="377" y="272"/>
      <point x="384" y="247" type="curve"/>
      <point x="386" y="238" type="line"/>
      <point x="418" y="238" type="line"/>
      <point x="418" y="436" type="line"/>
      <point x="386" y="436" type="line"/>
      <point x="380" y="413"/>
      <point x="365" y="370"/>
      <point x="330" y="369" type="curve" smooth="yes"/>
      <point x="217" y="364" type="line"/>
      <point x="217" y="614" type="line"/>
      <point x="405" y="614" type="line"/>
      <point x="430" y="583"/>
      <point x="441" y="543"/>
      <point x="447" y="512" type="curve"/>
      <point x="452" y="511"/>
      <point x="457" y="510"/>
      <point x="462" y="510" type="curve" smooth="yes"/>
      <point x="472" y="510"/>
      <point x="482" y="512"/>
      <point x="490" y="515" type="curve"/>
    </contour>
    <contour>
      <point x="259" y="706" type="line"/>
      <point x="363" y="789" type="line" smooth="yes"/>
      <point x="378" y="802"/>
      <point x="388" y="812"/>
      <point x="388" y="828" type="curve" smooth="yes"/>
      <point x="388" y="846"/>
      <point x="371" y="863"/>
      <point x="352" y="863" type="curve" smooth="yes"/>
      <point x="338" y="863"/>
      <point x="329" y="858"/>
      <point x="320" y="846" type="curve" smooth="yes"/>
      <point x="237" y="730" type="line"/>
    </contour>
  </outline>
</glyph>
<glyph name="Ecircumflex" format="1">
  <advance width="575"/>
  <unicode hex="00CA"/>
  <outline>
    <contour>
      <point x="482" y="667" type="line"/>
      <point x="36" y="667" type="line"/>
      <point x="35" y="655"/>
      <point x="33" y="643"/>
      <point x="31" y="631" type="curve"/>
      <point x="64" y="627"/>
      <point x="100" y="619"/>
      <point x="129" y="604" type="curve"/>
      <point x="129" y="64" type="line"/>
      <point x="113" y="52"/>
      <point x="70" y="41"/>
      <point x="37" y="37" type="curve"/>
      <point x="31" y="0" type="line"/>
      <point x="504" y="0" type="line"/>
      <point x="513" y="171" type="line"/>
      <point x="505" y="172"/>
      <point x="499" y="173"/>
      <point x="492" y="173" type="curve" smooth="yes"/>
      <point x="486" y="173"/>
      <point x="479" y="172"/>
      <point x="473" y="171" type="curve"/>
      <point x="467" y="138"/>
      <point x="456" y="94"/>
      <point x="430" y="58" type="curve"/>
      <point x="217" y="58" type="line"/>
      <point x="217" y="318" type="line"/>
      <point x="329" y="312" type="line" smooth="yes"/>
      <point x="367" y="310"/>
      <point x="377" y="272"/>
      <point x="384" y="247" type="curve"/>
      <point x="386" y="238" type="line"/>
      <point x="418" y="238" type="line"/>
      <point x="418" y="436" type="line"/>
      <point x="386" y="436" type="line"/>
      <point x="380" y="413"/>
      <point x="365" y="370"/>
      <point x="330" y="369" type="curve" smooth="yes"/>
      <point x="217" y="364" type="line"/>
      <point x="217" y="614" type="line"/>
      <point x="405" y="614" type="line"/>
      <point x="430" y="583"/>
      <point x="441" y="543"/>
      <point x="447" y="512" type="curve"/>
      <point x="452" y="511"/>
      <point x="457" y="510"/>
      <point x="462" y="510" type="curve" smooth="yes"/>
      <point x="472" y="510"/>
      <point x="482" y="512"/>
      <point x="490" y="515" type="curve"/>
    </contour>
    <contour>
      <point x="396" y="730" type="line"/>
      <point x="304" y="837" type="line" smooth="yes"/>
      <point x="295" y="848"/>
      <point x="285" y="853"/>
      <point x="273" y="853" type="curve" smooth="yes"/>
      <point x="261" y="853"/>
      <point x="251" y="847"/>
      <point x="242" y="837" type="curve" smooth="yes"/>
      <point x="149" y="730" type="line"/>
      <point x="171" y="706" type="line"/>
      <point x="272" y="783" type="line"/>
      <point x="373" y="706" type="line"/>
    </contour>
  </outline>
</glyph>
<glyph name="Iacute" format="1">
  <advance width="324"/>
  <unicode hex="00CD"/>
  <outline>
    <contour>
      <point x="20" y="0" type="line"/>
      <point x="298" y="0" type="line"/>
      <point x="303" y="37" type="line"/>
      <point x="270" y="41"/>
      <point x="235" y="47"/>
      <point x="206" y="64" type="curve"/>
      <point x="206" y="604" type="line"/>
      <point x="235" y="620"/>
      <point x="265" y="627"/>
      <point x="297" y="631" type="curve"/>
      <point x="299" y="643"/>
      <point x="301" y="655"/>
      <point x="302" y="667" type="curve"/>
      <point x="25" y="667" type="line"/>
      <point x="24" y="655"/>
      <point x="22" y="643"/>
      <point x="20" y="631" type="curve"/>
      <point x="54" y="627"/>
      <point x="89" y="619"/>
      <point x="118" y="604" type="curve"/>
      <point x="118" y="64" type="line"/>
      <point x="89" y="47"/>
      <point x="58" y="41"/>
      <point x="26" y="37" type="curve"/>
    </contour>
    <contour>
      <point x="148" y="706" type="line"/>
      <point x="252" y="789" type="line" smooth="yes"/>
      <point x="267" y="802"/>
      <point x="277" y="812"/>
      <point x="277" y="828" type="curve" smooth="yes"/>
      <point x="277" y="846"/>
      <point x="260" y="863"/>
      <point x="241" y="863" type="curve" smooth="yes"/>
      <point x="227" y="863"/>
      <point x="218" y="858"/>
      <point x="209" y="846" type="curve" smooth="yes"/>
      <point x="126" y="730" type="line"/>
    </contour>
  </outline>
</glyph>
<glyph name="Icircumflex" format="1">
  <advance width="324"/>
  <unicode hex="00CE"/>
  <outline>
    <contour>
      <point x="20" y="0" type="line"/>
      <point x="298" y="0" type="line"/>
      <point x="303" y="37" type="line"/>
      <point x="270" y="41"/>
      <point x="235" y="47"/>
      <point x="206" y="64" type="curve"/>
      <point x="206" y="604" type="line"/>
      <point x="235" y="620"/>
      <point x="265" y="627"/>
      <point x="297" y="631" type="curve"/>
      <point x="299" y="643"/>
      <point x="301" y="655"/>
      <point x="302" y="667" type="curve"/>
      <point x="25" y="667" type="line"/>
      <point x="24" y="655"/>
      <point x="22" y="643"/>
      <point x="20" y="631" type="curve"/>
      <point x="54" y="627"/>
      <point x="89" y="619"/>
      <point x="118" y="604" type="curve"/>
      <point x="118" y="64" type="line"/>
      <point x="89" y="47"/>
      <point x="58" y="41"/>
      <point x="26" y="37" type="curve"/>
    </contour>
    <contour>
      <point x="285" y="730" type="line"/>
      <point x="193" y="837" type="line" smooth="yes"/>
      <point x="184" y="848"/>
      <point x="174" y="853"/>
      <point x="162" y="853" type="curve" smooth="yes"/>
      <point x="150" y="853"/>
      <point x="140" y="847"/>
      <point x="131" y="837" type="curve" smooth="yes"/>
      <point x="38" y="730" type="line"/>
      <point x="60" y="706" type="line"/>
      <point x="161" y="783" type="line"/>
      <point x="262" y="706" type="line"/>
    </contour>
  </outline>
</glyph>
<glyph name="Idieresis" format="1">
  <advance width="324"/>
  <unicode hex="00CF"/>
  <outline>
    <contour>
      <point x="20" y="0" type="line"/>
      <point x="298" y="0" type="line"/>
      <point x="303" y="37" type="line"/>
      <point x="270" y="41"/>
      <point x="235" y="47"/>
      <point x="206" y="64" type="curve"/>
      <point x="206" y="604" type="line"/>
      <point x="235" y="620"/>
      <point x="265" y="627"/>
      <point x="297" y="631" type="curve"/>
      <point x="299" y="643"/>
      <point x="301" y="655"/>
      <point x="302" y="667" type="curve"/>
      <point x="25" y="667" type="line"/>
      <point x="24" y="655"/>
      <point x="22" y="643"/>
      <point x="20" y="631" type="curve"/>
      <point x="54" y="627"/>
      <point x="89" y="619"/>
      <point x="118" y="604" type="curve"/>
      <point x="118" y="64" type="line"/>
      <point x="89" y="47"/>
      <point x="58" y="41"/>
      <point x="26" y="37" type="curve"/>
    </contour>
    <contour>
      <point x="78" y="728" type="curve" smooth="yes"/>
      <point x="109" y="728"/>
      <point x="125" y="747"/>
      <point x="125" y="781" type="curve" smooth="yes"/>
      <point x="125" y="814"/>
      <point x="109" y="833"/>
      <point x="78" y="833" type="curve" smooth="yes"/>
      <point x="45" y="833"/>
      <point x="31" y="814"/>
      <point x="31" y="781" type="curve" smooth="yes"/>
      <point x="31" y="747"/>
      <point x="45" y="728"/>
    </contour>
    <contour>
      <point x="244" y="728" type="curve" smooth="yes"/>
      <point x="276" y="728"/>
      <point x="292" y="747"/>
      <point x="292" y="781" type="curve" smooth="yes"/>
      <point x="292" y="814"/>
      <point x="276" y="833"/>
      <point x="244" y="833" type="curve" smooth="yes"/>
      <point x="212" y="833"/>
      <point x="198" y="814"/>
      <point x="198" y="781" type="curve" smooth="yes"/>
      <point x="198" y="747"/>
      <point x="212" y="728"/>
    </contour>
  </outline>
</glyph>
<glyph name="Eth" format="1">
  <advance width="665"/>
  <unicode hex="00D0"/>
  <outline>
    <contour>
      <point x="60" y="304" type="line"/>
      <point x="139" y="304" type="line"/>
      <point x="139" y="63" type="line"/>
      <point x="111" y="46"/>
      <point x="80" y="41"/>
      <point x="48" y="37" type="curve"/>
      <point x="43" y="0" type="line"/>
      <point x="256" y="0" type="line" smooth="yes"/>
      <point x="492" y="0"/>
      <point x="611" y="96"/>
      <point x="611" y="333" type="curve" smooth="yes"/>
      <point x="611" y="569"/>
      <point x="491" y="667"/>
      <point x="262" y="667" type="curve" smooth="yes"/>
      <point x="47" y="667" type="line"/>
      <point x="42" y="631" type="line"/>
      <point x="74" y="627"/>
      <point x="110" y="620"/>
      <point x="139" y="604" type="curve"/>
      <point x="139" y="348" type="line"/>
      <point x="60" y="348" type="line"/>
    </contour>
    <contour>
      <point x="276" y="617" type="line" smooth="yes"/>
      <point x="427" y="617"/>
      <point x="511" y="548"/>
      <point x="511" y="334" type="curve" smooth="yes"/>
      <point x="511" y="117"/>
      <point x="425" y="49"/>
      <point x="273" y="49" type="curve" smooth="yes"/>
      <point x="259" y="49"/>
      <point x="241" y="50"/>
      <point x="228" y="53" type="curve"/>
      <point x="228" y="304" type="line"/>
      <point x="338" y="304" type="line"/>
      <point x="338" y="348" type="line"/>
      <point x="228" y="348" type="line"/>
      <point x="228" y="617" type="line"/>
    </contour>
  </outline>
</glyph>
<glyph name="Ntilde" format="1">
  <advance width="681"/>
  <unicode hex="00D1"/>
  <outline>
    <contour>
      <point x="189" y="667" type="line"/>
      <point x="30" y="667" type="line"/>
      <point x="29" y="655"/>
      <point x="27" y="643"/>
      <point x="25" y="631" type="curve"/>
      <point x="59" y="627"/>
      <point x="94" y="619"/>
      <point x="123" y="604" type="curve"/>
      <point x="123" y="64" type="line"/>
      <point x="94" y="47"/>
      <point x="64" y="41"/>
      <point x="31" y="37" type="curve"/>
      <point x="25" y="0" type="line"/>
      <point x="279" y="0" type="line"/>
      <point x="283" y="37" type="line"/>
      <point x="251" y="41"/>
      <point x="214" y="48"/>
      <point x="186" y="64" type="curve"/>
      <point x="186" y="515" type="line"/>
      <point x="526" y="0" type="line"/>
      <point x="569" y="0" type="line"/>
      <point x="569" y="604" type="line"/>
      <point x="598" y="620"/>
      <point x="627" y="627"/>
      <point x="661" y="631" type="curve"/>
      <point x="662" y="643"/>
      <point x="664" y="655"/>
      <point x="666" y="667" type="curve"/>
      <point x="413" y="667" type="line"/>
      <point x="411" y="655"/>
      <point x="409" y="643"/>
      <point x="408" y="631" type="curve"/>
      <point x="440" y="627"/>
      <point x="477" y="619"/>
      <point x="504" y="604" type="curve"/>
      <point x="504" y="191" type="line"/>
    </contour>
    <contour>
      <point x="221" y="733" type="curve"/>
      <point x="240" y="752"/>
      <point x="260" y="768"/>
      <point x="286" y="768" type="curve" smooth="yes"/>
      <point x="327" y="768"/>
      <point x="355" y="733"/>
      <point x="404" y="733" type="curve" smooth="yes"/>
      <point x="454" y="733"/>
      <point x="490" y="786"/>
      <point x="502" y="813" type="curve"/>
      <point x="492" y="821"/>
      <point x="483" y="827"/>
      <point x="469" y="832" type="curve"/>
      <point x="450" y="813"/>
      <point x="431" y="795"/>
      <point x="403" y="795" type="curve" smooth="yes"/>
      <point x="364" y="795"/>
      <point x="333" y="830"/>
      <point x="289" y="830" type="curve" smooth="yes"/>
      <point x="234" y="830"/>
      <point x="200" y="779"/>
      <point x="189" y="752" type="curve"/>
      <point x="198" y="744"/>
      <point x="207" y="737"/>
    </contour>
  </outline>
</glyph>
<glyph name="Ograve" format="1">
  <advance width="653"/>
  <unicode hex="00D2"/>
  <outline>
    <contour>
      <point x="327" y="42" type="curve" smooth="yes"/>
      <point x="177" y="42"/>
      <point x="154" y="181"/>
      <point x="154" y="334" type="curve" smooth="yes"/>
      <point x="154" y="488"/>
      <point x="177" y="626"/>
      <point x="327" y="626" type="curve" smooth="yes"/>
      <point x="477" y="626"/>
      <point x="499" y="487"/>
      <point x="499" y="333" type="curve" smooth="yes"/>
      <point x="499" y="180"/>
      <point x="477" y="42"/>
    </contour>
    <contour>
      <point x="327" y="676" type="curve" smooth="yes"/>
      <point x="122" y="676"/>
      <point x="53" y="543"/>
      <point x="53" y="334" type="curve" smooth="yes"/>
      <point x="53" y="126"/>
      <point x="122" y="-7"/>
      <point x="327" y="-7" type="curve" smooth="yes"/>
      <point x="531" y="-7"/>
      <point x="600" y="125"/>
      <point x="600" y="333" type="curve" smooth="yes"/>
      <point x="600" y="542"/>
      <point x="531" y="676"/>
    </contour>
    <contour>
      <point x="377" y="730" type="line"/>
      <point x="294" y="846" type="line" smooth="yes"/>
      <point x="285" y="858"/>
      <point x="276" y="863"/>
      <point x="262" y="863" type="curve" smooth="yes"/>
      <point x="243" y="863"/>
      <point x="226" y="846"/>
      <point x="226" y="828" type="curve" smooth="yes"/>
      <point x="226" y="812"/>
      <point x="236" y="802"/>
      <point x="251" y="789" type="curve" smooth="yes"/>
      <point x="353" y="706" type="line"/>
    </contour>
  </outline>
</glyph>
<glyph name="Oacute" format="1">
  <advance width="653"/>
  <unicode hex="00D3"/>
  <outline>
    <contour>
      <point x="327" y="42" type="curve" smooth="yes"/>
      <point x="177" y="42"/>
      <point x="154" y="181"/>
      <point x="154" y="334" type="curve" smooth="yes"/>
      <point x="154" y="488"/>
      <point x="177" y="626"/>
      <point x="327" y="626" type="curve" smooth="yes"/>
      <point x="477" y="626"/>
      <point x="499" y="487"/>
      <point x="499" y="333" type="curve" smooth="yes"/>
      <point x="499" y="180"/>
      <point x="477" y="42"/>
    </contour>
    <contour>
      <point x="327" y="676" type="curve" smooth="yes"/>
      <point x="122" y="676"/>
      <point x="53" y="543"/>
      <point x="53" y="334" type="curve" smooth="yes"/>
      <point x="53" y="126"/>
      <point x="122" y="-7"/>
      <point x="327" y="-7" type="curve" smooth="yes"/>
      <point x="531" y="-7"/>
      <point x="600" y="125"/>
      <point x="600" y="333" type="curve" smooth="yes"/>
      <point x="600" y="542"/>
      <point x="531" y="676"/>
    </contour>
    <contour>
      <point x="313" y="706" type="line"/>
      <point x="417" y="789" type="line" smooth="yes"/>
      <point x="432" y="802"/>
      <point x="442" y="812"/>
      <point x="442" y="828" type="curve" smooth="yes"/>
      <point x="442" y="846"/>
      <point x="425" y="863"/>
      <point x="406" y="863" type="curve" smooth="yes"/>
      <point x="392" y="863"/>
      <point x="383" y="858"/>
      <point x="374" y="846" type="curve" smooth="yes"/>
      <point x="291" y="730" type="line"/>
    </contour>
  </outline>
</glyph>
<glyph name="Ocircumflex" format="1">
  <advance width="653"/>
  <unicode hex="00D4"/>
  <outline>
    <contour>
      <point x="327" y="42" type="curve" smooth="yes"/>
      <point x="177" y="42"/>
      <point x="154" y="181"/>
      <point x="154" y="334" type="curve" smooth="yes"/>
      <point x="154" y="488"/>
      <point x="177" y="626"/>
      <point x="327" y="626" type="curve" smooth="yes"/>
      <point x="477" y="626"/>
      <point x="499" y="487"/>
      <point x="499" y="333" type="curve" smooth="yes"/>
      <point x="499" y="180"/>
      <point x="477" y="42"/>
    </contour>
    <contour>
      <point x="327" y="676" type="curve" smooth="yes"/>
      <point x="122" y="676"/>
      <point x="53" y="543"/>
      <point x="53" y="334" type="curve" smooth="yes"/>
      <point x="53" y="126"/>
      <point x="122" y="-7"/>
      <point x="327" y="-7" type="curve" smooth="yes"/>
      <point x="531" y="-7"/>
      <point x="600" y="125"/>
      <point x="600" y="333" type="curve" smooth="yes"/>
      <point x="600" y="542"/>
      <point x="531" y="676"/>
    </contour>
    <contour>
      <point x="450" y="730" type="line"/>
      <point x="358" y="837" type="line" smooth="yes"/>
      <point x="349" y="848"/>
      <point x="339" y="853"/>
      <point x="327" y="853" type="curve" smooth="yes"/>
      <point x="315" y="853"/>
      <point x="305" y="847"/>
      <point x="296" y="837" type="curve" smooth="yes"/>
      <point x="203" y="730" type="line"/>
      <point x="225" y="706" type="line"/>
      <point x="326" y="783" type="line"/>
      <point x="427" y="706" type="line"/>
    </contour>
  </outline>
</glyph>
<glyph name="Otilde" format="1">
  <advance width="653"/>
  <unicode hex="00D5"/>
  <outline>
    <contour>
      <point x="327" y="42" type="curve" smooth="yes"/>
      <point x="177" y="42"/>
      <point x="154" y="181"/>
      <point x="154" y="334" type="curve" smooth="yes"/>
      <point x="154" y="488"/>
      <point x="177" y="626"/>
      <point x="327" y="626" type="curve" smooth="yes"/>
      <point x="477" y="626"/>
      <point x="499" y="487"/>
      <point x="499" y="333" type="curve" smooth="yes"/>
      <point x="499" y="180"/>
      <point x="477" y="42"/>
    </contour>
    <contour>
      <point x="327" y="676" type="curve" smooth="yes"/>
      <point x="122" y="676"/>
      <point x="53" y="543"/>
      <point x="53" y="334" type="curve" smooth="yes"/>
      <point x="53" y="126"/>
      <point x="122" y="-7"/>
      <point x="327" y="-7" type="curve" smooth="yes"/>
      <point x="531" y="-7"/>
      <point x="600" y="125"/>
      <point x="600" y="333" type="curve" smooth="yes"/>
      <point x="600" y="542"/>
      <point x="531" y="676"/>
    </contour>
    <contour>
      <point x="202" y="733" type="curve"/>
      <point x="221" y="752"/>
      <point x="241" y="768"/>
      <point x="267" y="768" type="curve" smooth="yes"/>
      <point x="308" y="768"/>
      <point x="336" y="733"/>
      <point x="385" y="733" type="curve" smooth="yes"/>
      <point x="435" y="733"/>
      <point x="471" y="786"/>
      <point x="483" y="813" type="curve"/>
      <point x="473" y="821"/>
      <point x="464" y="827"/>
      <point x="450" y="832" type="curve"/>
      <point x="431" y="813"/>
      <point x="412" y="795"/>
      <point x="384" y="795" type="curve" smooth="yes"/>
      <point x="345" y="795"/>
      <point x="314" y="830"/>
      <point x="270" y="830" type="curve" smooth="yes"/>
      <point x="215" y="830"/>
      <point x="181" y="779"/>
      <point x="170" y="752" type="curve"/>
      <point x="179" y="744"/>
      <point x="188" y="737"/>
    </contour>
  </outline>
</glyph>
<glyph name="Odieresis" format="1">
  <advance width="653"/>
  <unicode hex="00D6"/>
  <outline>
    <contour>
      <point x="327" y="42" type="curve" smooth="yes"/>
      <point x="177" y="42"/>
      <point x="154" y="181"/>
      <point x="154" y="334" type="curve" smooth="yes"/>
      <point x="154" y="488"/>
      <point x="177" y="626"/>
      <point x="327" y="626" type="curve" smooth="yes"/>
      <point x="477" y="626"/>
      <point x="499" y="487"/>
      <point x="499" y="333" type="curve" smooth="yes"/>
      <point x="499" y="180"/>
      <point x="477" y="42"/>
    </contour>
    <contour>
      <point x="327" y="676" type="curve" smooth="yes"/>
      <point x="122" y="676"/>
      <point x="53" y="543"/>
      <point x="53" y="334" type="curve" smooth="yes"/>
      <point x="53" y="126"/>
      <point x="122" y="-7"/>
      <point x="327" y="-7" type="curve" smooth="yes"/>
      <point x="531" y="-7"/>
      <point x="600" y="125"/>
      <point x="600" y="333" type="curve" smooth="yes"/>
      <point x="600" y="542"/>
      <point x="531" y="676"/>
    </contour>
    <contour>
      <point x="243" y="728" type="curve" smooth="yes"/>
      <point x="274" y="728"/>
      <point x="290" y="747"/>
      <point x="290" y="781" type="curve" smooth="yes"/>
      <point x="290" y="814"/>
      <point x="274" y="833"/>
      <point x="243" y="833" type="curve" smooth="yes"/>
      <point x="210" y="833"/>
      <point x="196" y="814"/>
      <point x="196" y="781" type="curve" smooth="yes"/>
      <point x="196" y="747"/>
      <point x="210" y="728"/>
    </contour>
    <contour>
      <point x="409" y="728" type="curve" smooth="yes"/>
      <point x="441" y="728"/>
      <point x="457" y="747"/>
      <point x="457" y="781" type="curve" smooth="yes"/>
      <point x="457" y="814"/>
      <point x="441" y="833"/>
      <point x="409" y="833" type="curve" smooth="yes"/>
      <point x="377" y="833"/>
      <point x="363" y="814"/>
      <point x="363" y="781" type="curve" smooth="yes"/>
      <point x="363" y="747"/>
      <point x="377" y="728"/>
    </contour>
  </outline>
</glyph>
<glyph name="multiply" format="1">
  <advance width="554"/>
  <unicode hex="00D7"/>
  <outline>
    <contour>
      <point x="122" y="92" type="line"/>
      <point x="276" y="244" type="line"/>
      <point x="432" y="92" type="line"/>
      <point x="473" y="134" type="line"/>
      <point x="319" y="286" type="line"/>
      <point x="469" y="436" type="line"/>
      <point x="428" y="478" type="line"/>
      <point x="276" y="328" type="line"/>
      <point x="125" y="478" type="line"/>
      <point x="84" y="436" type="line"/>
      <point x="235" y="286" type="line"/>
      <point x="81" y="134" type="line"/>
    </contour>
  </outline>
</glyph>
<glyph name="Oslash" format="1">
  <advance width="653"/>
  <unicode hex="00D8"/>
  <outline>
    <contour>
      <point x="332" y="676" type="curve" smooth="yes"/>
      <point x="127" y="676"/>
      <point x="58" y="543"/>
      <point x="58" y="334" type="curve" smooth="yes"/>
      <point x="58" y="228"/>
      <point x="75" y="142"/>
      <point x="120" y="82" type="curve"/>
      <point x="57" y="-4" type="line"/>
      <point x="64" y="-12"/>
      <point x="72" y="-21"/>
      <point x="83" y="-28" type="curve"/>
      <point x="90" y="-27" type="line"/>
      <point x="148" y="52" type="line"/>
      <point x="190" y="14"/>
      <point x="250" y="-7"/>
      <point x="332" y="-7" type="curve" smooth="yes"/>
      <point x="536" y="-7"/>
      <point x="605" y="125"/>
      <point x="605" y="333" type="curve" smooth="yes"/>
      <point x="605" y="441"/>
      <point x="586" y="530"/>
      <point x="540" y="590" type="curve"/>
      <point x="591" y="660" type="line"/>
      <point x="584" y="668"/>
      <point x="576" y="678"/>
      <point x="565" y="684" type="curve"/>
      <point x="558" y="684" type="line"/>
      <point x="511" y="620" type="line"/>
      <point x="468" y="656"/>
      <point x="410" y="676"/>
    </contour>
    <contour>
      <point x="332" y="42" type="curve" smooth="yes"/>
      <point x="263" y="42"/>
      <point x="221" y="71"/>
      <point x="195" y="117" type="curve"/>
      <point x="483" y="512" type="line"/>
      <point x="500" y="462"/>
      <point x="504" y="399"/>
      <point x="504" y="333" type="curve" smooth="yes"/>
      <point x="504" y="180"/>
      <point x="482" y="42"/>
    </contour>
    <contour>
      <point x="159" y="334" type="curve" smooth="yes"/>
      <point x="159" y="488"/>
      <point x="182" y="626"/>
      <point x="332" y="626" type="curve" smooth="yes"/>
      <point x="398" y="626"/>
      <point x="439" y="599"/>
      <point x="464" y="556" type="curve"/>
      <point x="177" y="161" type="line"/>
      <point x="162" y="211"/>
      <point x="159" y="271"/>
    </contour>
  </outline>
</glyph>
<glyph name="Ugrave" format="1">
  <advance width="648"/>
  <unicode hex="00D9"/>
  <outline>
    <contour>
      <point x="655" y="667" type="line"/>
      <point x="402" y="667" type="line"/>
      <point x="400" y="655"/>
      <point x="398" y="643"/>
      <point x="397" y="631" type="curve"/>
      <point x="440" y="626"/>
      <point x="472" y="616"/>
      <point x="494" y="604" type="curve"/>
      <point x="494" y="216" type="line" smooth="yes"/>
      <point x="494" y="105"/>
      <point x="435" y="45"/>
      <point x="332" y="45" type="curve" smooth="yes"/>
      <point x="228" y="45"/>
      <point x="180" y="91"/>
      <point x="180" y="210" type="curve" smooth="yes"/>
      <point x="180" y="604" type="line"/>
      <point x="203" y="616"/>
      <point x="229" y="624"/>
      <point x="270" y="631" type="curve"/>
      <point x="276" y="667" type="line"/>
      <point x="-4" y="667" type="line"/>
      <point x="-8" y="631" type="line"/>
      <point x="35" y="626"/>
      <point x="66" y="616"/>
      <point x="89" y="604" type="curve"/>
      <point x="89" y="210" type="line" smooth="yes"/>
      <point x="89" y="60"/>
      <point x="160" y="-7"/>
      <point x="332" y="-7" type="curve" smooth="yes"/>
      <point x="477" y="-7"/>
      <point x="558" y="73"/>
      <point x="558" y="216" type="curve" smooth="yes"/>
      <point x="558" y="604" type="line"/>
      <point x="581" y="616"/>
      <point x="607" y="624"/>
      <point x="650" y="631" type="curve"/>
    </contour>
    <contour>
      <point x="374" y="730" type="line"/>
      <point x="291" y="846" type="line" smooth="yes"/>
      <point x="282" y="858"/>
      <point x="273" y="863"/>
      <point x="259" y="863" type="curve" smooth="yes"/>
      <point x="240" y="863"/>
      <point x="223" y="846"/>
      <point x="223" y="828" type="curve" smooth="yes"/>
      <point x="223" y="812"/>
      <point x="233" y="802"/>
      <point x="248" y="789" type="curve" smooth="yes"/>
      <point x="350" y="706" type="line"/>
    </contour>
  </outline>
</glyph>
<glyph name="Ucircumflex" format="1">
  <advance width="648"/>
  <unicode hex="00DB"/>
  <outline>
    <contour>
      <point x="655" y="667" type="line"/>
      <point x="402" y="667" type="line"/>
      <point x="400" y="655"/>
      <point x="398" y="643"/>
      <point x="397" y="631" type="curve"/>
      <point x="440" y="626"/>
      <point x="472" y="616"/>
      <point x="494" y="604" type="curve"/>
      <point x="494" y="216" type="line" smooth="yes"/>
      <point x="494" y="105"/>
      <point x="435" y="45"/>
      <point x="332" y="45" type="curve" smooth="yes"/>
      <point x="228" y="45"/>
      <point x="180" y="91"/>
      <point x="180" y="210" type="curve" smooth="yes"/>
      <point x="180" y="604" type="line"/>
      <point x="203" y="616"/>
      <point x="229" y="624"/>
      <point x="270" y="631" type="curve"/>
      <point x="276" y="667" type="line"/>
      <point x="-4" y="667" type="line"/>
      <point x="-8" y="631" type="line"/>
      <point x="35" y="626"/>
      <point x="66" y="616"/>
      <point x="89" y="604" type="curve"/>
      <point x="89" y="210" type="line" smooth="yes"/>
      <point x="89" y="60"/>
      <point x="160" y="-7"/>
      <point x="332" y="-7" type="curve" smooth="yes"/>
      <point x="477" y="-7"/>
      <point x="558" y="73"/>
      <point x="558" y="216" type="curve" smooth="yes"/>
      <point x="558" y="604" type="line"/>
      <point x="581" y="616"/>
      <point x="607" y="624"/>
      <point x="650" y="631" type="curve"/>
    </contour>
    <contour>
      <point x="447" y="730" type="line"/>
      <point x="355" y="837" type="line" smooth="yes"/>
      <point x="346" y="848"/>
      <point x="336" y="853"/>
      <point x="324" y="853" type="curve" smooth="yes"/>
      <point x="312" y="853"/>
      <point x="302" y="847"/>
      <point x="293" y="837" type="curve" smooth="yes"/>
      <point x="200" y="730" type="line"/>
      <point x="222" y="706" type="line"/>
      <point x="323" y="783" type="line"/>
      <point x="424" y="706" type="line"/>
    </contour>
  </outline>
</glyph>
<glyph name="Udieresis" format="1">
  <advance width="648"/>
  <unicode hex="00DC"/>
  <outline>
    <contour>
      <point x="655" y="667" type="line"/>
      <point x="402" y="667" type="line"/>
      <point x="400" y="655"/>
      <point x="398" y="643"/>
      <point x="397" y="631" type="curve"/>
      <point x="440" y="626"/>
      <point x="472" y="616"/>
      <point x="494" y="604" type="curve"/>
      <point x="494" y="216" type="line" smooth="yes"/>
      <point x="494" y="105"/>
      <point x="435" y="45"/>
      <point x="332" y="45" type="curve" smooth="yes"/>
      <point x="228" y="45"/>
      <point x="180" y="91"/>
      <point x="180" y="210" type="curve" smooth="yes"/>
      <point x="180" y="604" type="line"/>
      <point x="203" y="616"/>
      <point x="229" y="624"/>
      <point x="270" y="631" type="curve"/>
      <point x="276" y="667" type="line"/>
      <point x="-4" y="667" type="line"/>
      <point x="-8" y="631" type="line"/>
      <point x="35" y="626"/>
      <point x="66" y="616"/>
      <point x="89" y="604" type="curve"/>
      <point x="89" y="210" type="line" smooth="yes"/>
      <point x="89" y="60"/>
      <point x="160" y="-7"/>
      <point x="332" y="-7" type="curve" smooth="yes"/>
      <point x="477" y="-7"/>
      <point x="558" y="73"/>
      <point x="558" y="216" type="curve" smooth="yes"/>
      <point x="558" y="604" type="line"/>
      <point x="581" y="616"/>
      <point x="607" y="624"/>
      <point x="650" y="631" type="curve"/>
    </contour>
    <contour>
      <point x="240" y="728" type="curve" smooth="yes"/>
      <point x="271" y="728"/>
      <point x="287" y="747"/>
      <point x="287" y="781" type="curve" smooth="yes"/>
      <point x="287" y="814"/>
      <point x="271" y="833"/>
      <point x="240" y="833" type="curve" smooth="yes"/>
      <point x="207" y="833"/>
      <point x="193" y="814"/>
      <point x="193" y="781" type="curve" smooth="yes"/>
      <point x="193" y="747"/>
      <point x="207" y="728"/>
    </contour>
    <contour>
      <point x="406" y="728" type="curve" smooth="yes"/>
      <point x="438" y="728"/>
      <point x="454" y="747"/>
      <point x="454" y="781" type="curve" smooth="yes"/>
      <point x="454" y="814"/>
      <point x="438" y="833"/>
      <point x="406" y="833" type="curve" smooth="yes"/>
      <point x="374" y="833"/>
      <point x="360" y="814"/>
      <point x="360" y="781" type="curve" smooth="yes"/>
      <point x="360" y="747"/>
      <point x="374" y="728"/>
    </contour>
  </outline>
</glyph>
<glyph name="Yacute" format="1">
  <advance width="570"/>
  <unicode hex="00DD"/>
  <outline>
    <contour>
      <point x="141" y="0" type="line"/>
      <point x="429" y="0" type="line"/>
      <point x="433" y="37" type="line"/>
      <point x="398" y="41"/>
      <point x="361" y="47"/>
      <point x="331" y="64" type="curve"/>
      <point x="331" y="277" type="line"/>
      <point x="493" y="605" type="line"/>
      <point x="511" y="619"/>
      <point x="532" y="627"/>
      <point x="554" y="631" type="curve"/>
      <point x="560" y="667" type="line"/>
      <point x="340" y="667" type="line"/>
      <point x="338" y="655"/>
      <point x="336" y="643"/>
      <point x="335" y="631" type="curve"/>
      <point x="367" y="627"/>
      <point x="399" y="618"/>
      <point x="424" y="605" type="curve"/>
      <point x="296" y="343" type="line"/>
      <point x="171" y="604" type="line"/>
      <point x="199" y="620"/>
      <point x="228" y="627"/>
      <point x="258" y="631" type="curve"/>
      <point x="259" y="643"/>
      <point x="261" y="655"/>
      <point x="263" y="667" type="curve"/>
      <point x="16" y="667" type="line"/>
      <point x="11" y="631" type="line"/>
      <point x="34" y="626"/>
      <point x="58" y="616"/>
      <point x="73" y="605" type="curve"/>
      <point x="243" y="265" type="line"/>
      <point x="243" y="64" type="line"/>
      <point x="212" y="46"/>
      <point x="182" y="41"/>
      <point x="146" y="37" type="curve"/>
    </contour>
    <contour>
      <point x="282" y="706" type="line"/>
      <point x="386" y="789" type="line" smooth="yes"/>
      <point x="401" y="802"/>
      <point x="411" y="812"/>
      <point x="411" y="828" type="curve" smooth="yes"/>
      <point x="411" y="846"/>
      <point x="394" y="863"/>
      <point x="375" y="863" type="curve" smooth="yes"/>
      <point x="361" y="863"/>
      <point x="352" y="858"/>
      <point x="343" y="846" type="curve" smooth="yes"/>
      <point x="260" y="730" type="line"/>
    </contour>
  </outline>
</glyph>
<glyph name="Thorn" format="1">
  <advance width="574"/>
  <unicode hex="00DE"/>
  <outline>
    <contour>
      <point x="49" y="0" type="line"/>
      <point x="327" y="0" type="line"/>
      <point x="332" y="37" type="line"/>
      <point x="299" y="41"/>
      <point x="264" y="47"/>
      <point x="235" y="64" type="curve"/>
      <point x="235" y="155" type="line"/>
      <point x="268" y="155" type="line" smooth="yes"/>
      <point x="426" y="155"/>
      <point x="530" y="196"/>
      <point x="530" y="341" type="curve" smooth="yes"/>
      <point x="530" y="457"/>
      <point x="464" y="524"/>
      <point x="311" y="524" type="curve" smooth="yes"/>
      <point x="235" y="524" type="line"/>
      <point x="235" y="604" type="line"/>
      <point x="264" y="620"/>
      <point x="294" y="627"/>
      <point x="326" y="631" type="curve"/>
      <point x="328" y="643"/>
      <point x="330" y="655"/>
      <point x="331" y="667" type="curve"/>
      <point x="54" y="667" type="line"/>
      <point x="53" y="655"/>
      <point x="51" y="643"/>
      <point x="49" y="631" type="curve"/>
      <point x="83" y="627"/>
      <point x="118" y="619"/>
      <point x="147" y="604" type="curve"/>
      <point x="147" y="64" type="line"/>
      <point x="118" y="47"/>
      <point x="87" y="41"/>
      <point x="55" y="37" type="curve"/>
    </contour>
    <contour>
      <point x="235" y="200" type="line"/>
      <point x="235" y="476" type="line"/>
      <point x="252" y="479"/>
      <point x="274" y="482"/>
      <point x="311" y="482" type="curve" smooth="yes"/>
      <point x="392" y="482"/>
      <point x="440" y="437"/>
      <point x="440" y="343" type="curve" smooth="yes"/>
      <point x="440" y="242"/>
      <point x="373" y="200"/>
      <point x="268" y="200" type="curve" smooth="yes"/>
    </contour>
  </outline>
</glyph>
<glyph name="germandbls" format="1">
  <advance width="605"/>
  <unicode hex="00DF"/>
  <outline>
    <contour>
      <point x="248" y="76" type="curve" smooth="yes"/>
      <point x="248" y="22"/>
      <point x="294" y="-5"/>
      <point x="382" y="-5" type="curve" smooth="yes"/>
      <point x="480" y="-5"/>
      <point x="552" y="70"/>
      <point x="552" y="172" type="curve" smooth="yes"/>
      <point x="552" y="270"/>
      <point x="475" y="344"/>
      <point x="353" y="371" type="curve"/>
      <point x="434" y="406"/>
      <point x="491" y="471"/>
      <point x="491" y="535" type="curve" smooth="yes"/>
      <point x="491" y="642"/>
      <point x="411" y="686"/>
      <point x="305" y="686" type="curve" smooth="yes"/>
      <point x="191" y="686"/>
      <point x="121" y="629"/>
      <point x="121" y="515" type="curve" smooth="yes"/>
      <point x="121" y="62" type="line"/>
      <point x="102" y="46"/>
      <point x="86" y="41"/>
      <point x="55" y="36" type="curve"/>
      <point x="51" y="0" type="line"/>
      <point x="206" y="0" type="line"/>
      <point x="206" y="470" type="line" smooth="yes"/>
      <point x="206" y="562"/>
      <point x="213" y="647"/>
      <point x="306" y="647" type="curve" smooth="yes"/>
      <point x="372" y="647"/>
      <point x="403" y="604"/>
      <point x="403" y="538" type="curve" smooth="yes"/>
      <point x="403" y="474"/>
      <point x="342" y="402"/>
      <point x="278" y="391" type="curve"/>
      <point x="278" y="338" type="line"/>
      <point x="408" y="319"/>
      <point x="464" y="268"/>
      <point x="464" y="171" type="curve" smooth="yes"/>
      <point x="464" y="90"/>
      <point x="434" y="38"/>
      <point x="384" y="38" type="curve" smooth="yes"/>
      <point x="351" y="38"/>
      <point x="332" y="57"/>
      <point x="332" y="87" type="curve" smooth="yes"/>
      <point x="332" y="98"/>
      <point x="335" y="110"/>
      <point x="341" y="124" type="curve"/>
      <point x="328" y="131"/>
      <point x="315" y="134"/>
      <point x="303" y="134" type="curve" smooth="yes"/>
      <point x="272" y="134"/>
      <point x="248" y="111"/>
    </contour>
  </outline>
</glyph>
<glyph name="acircumflex" format="1">
  <advance width="488"/>
  <unicode hex="00E2"/>
  <outline>
    <contour>
      <point x="468" y="34" type="line"/>
      <point x="439" y="40"/>
      <point x="410" y="52"/>
      <point x="398" y="61" type="curve"/>
      <point x="398" y="340" type="line" smooth="yes"/>
      <point x="398" y="426"/>
      <point x="333" y="476"/>
      <point x="224" y="476" type="curve" smooth="yes"/>
      <point x="121" y="476"/>
      <point x="56" y="432"/>
      <point x="56" y="364" type="curve" smooth="yes"/>
      <point x="56" y="329"/>
      <point x="79" y="306"/>
      <point x="114" y="306" type="curve" smooth="yes"/>
      <point x="151" y="306"/>
      <point x="171" y="323"/>
      <point x="171" y="354" type="curve"/>
      <point x="152" y="361"/>
      <point x="141" y="374"/>
      <point x="141" y="391" type="curve" smooth="yes"/>
      <point x="141" y="419"/>
      <point x="171" y="436"/>
      <point x="224" y="436" type="curve" smooth="yes"/>
      <point x="286" y="436"/>
      <point x="313" y="407"/>
      <point x="313" y="340" type="curve" smooth="yes"/>
      <point x="313" y="259" type="line"/>
      <point x="231" y="253" type="line" smooth="yes"/>
      <point x="109" y="245"/>
      <point x="44" y="194"/>
      <point x="44" y="107" type="curve" smooth="yes"/>
      <point x="44" y="35"/>
      <point x="92" y="-7"/>
      <point x="174" y="-7" type="curve" smooth="yes"/>
      <point x="228" y="-7"/>
      <point x="272" y="4"/>
      <point x="316" y="45" type="curve"/>
      <point x="326" y="0" type="line"/>
      <point x="464" y="0" type="line"/>
    </contour>
    <contour>
      <point x="132" y="116" type="curve" smooth="yes"/>
      <point x="132" y="169"/>
      <point x="170" y="206"/>
      <point x="233" y="211" type="curve" smooth="yes"/>
      <point x="313" y="218" type="line"/>
      <point x="313" y="92" type="line"/>
      <point x="270" y="51"/>
      <point x="237" y="34"/>
      <point x="199" y="34" type="curve" smooth="yes"/>
      <point x="154" y="34"/>
      <point x="132" y="62"/>
    </contour>
    <contour>
      <point x="352" y="530" type="line"/>
      <point x="260" y="637" type="line" smooth="yes"/>
      <point x="251" y="648"/>
      <point x="241" y="653"/>
      <point x="229" y="653" type="curve" smooth="yes"/>
      <point x="217" y="653"/>
      <point x="207" y="647"/>
      <point x="198" y="637" type="curve" smooth="yes"/>
      <point x="105" y="530" type="line"/>
      <point x="127" y="506" type="line"/>
      <point x="228" y="583" type="line"/>
      <point x="329" y="506" type="line"/>
    </contour>
  </outline>
</glyph>
<glyph name="atilde" format="1">
  <advance width="488"/>
  <unicode hex="00E3"/>
  <outline>
    <contour>
      <point x="468" y="34" type="line"/>
      <point x="439" y="40"/>
      <point x="410" y="52"/>
      <point x="398" y="61" type="curve"/>
      <point x="398" y="340" type="line" smooth="yes"/>
      <point x="398" y="426"/>
      <point x="333" y="476"/>
      <point x="224" y="476" type="curve" smooth="yes"/>
      <point x="121" y="476"/>
      <point x="56" y="432"/>
      <point x="56" y="364" type="curve" smooth="yes"/>
      <point x="56" y="329"/>
      <point x="79" y="306"/>
      <point x="114" y="306" type="curve" smooth="yes"/>
      <point x="151" y="306"/>
      <point x="171" y="323"/>
      <point x="171" y="354" type="curve"/>
      <point x="152" y="361"/>
      <point x="141" y="374"/>
      <point x="141" y="391" type="curve" smooth="yes"/>
      <point x="141" y="419"/>
      <point x="171" y="436"/>
      <point x="224" y="436" type="curve" smooth="yes"/>
      <point x="286" y="436"/>
      <point x="313" y="407"/>
      <point x="313" y="340" type="curve" smooth="yes"/>
      <point x="313" y="259" type="line"/>
      <point x="231" y="253" type="line" smooth="yes"/>
      <point x="109" y="245"/>
      <point x="44" y="194"/>
      <point x="44" y="107" type="curve" smooth="yes"/>
      <point x="44" y="35"/>
      <point x="92" y="-7"/>
      <point x="174" y="-7" type="curve" smooth="yes"/>
      <point x="228" y="-7"/>
      <point x="272" y="4"/>
      <point x="316" y="45" type="curve"/>
      <point x="326" y="0" type="line"/>
      <point x="464" y="0" type="line"/>
    </contour>
    <contour>
      <point x="132" y="116" type="curve" smooth="yes"/>
      <point x="132" y="169"/>
      <point x="170" y="206"/>
      <point x="233" y="211" type="curve" smooth="yes"/>
      <point x="313" y="218" type="line"/>
      <point x="313" y="92" type="line"/>
      <point x="270" y="51"/>
      <point x="237" y="34"/>
      <point x="199" y="34" type="curve" smooth="yes"/>
      <point x="154" y="34"/>
      <point x="132" y="62"/>
    </contour>
    <contour>
      <point x="104" y="533" type="curve"/>
      <point x="123" y="552"/>
      <point x="143" y="568"/>
      <point x="169" y="568" type="curve" smooth="yes"/>
      <point x="210" y="568"/>
      <point x="238" y="533"/>
      <point x="287" y="533" type="curve" smooth="yes"/>
      <point x="337" y="533"/>
      <point x="373" y="586"/>
      <point x="385" y="613" type="curve"/>
      <point x="375" y="621"/>
      <point x="366" y="627"/>
      <point x="352" y="632" type="curve"/>
      <point x="333" y="613"/>
      <point x="314" y="595"/>
      <point x="286" y="595" type="curve" smooth="yes"/>
      <point x="247" y="595"/>
      <point x="216" y="630"/>
      <point x="172" y="630" type="curve" smooth="yes"/>
      <point x="117" y="630"/>
      <point x="83" y="579"/>
      <point x="72" y="552" type="curve"/>
      <point x="81" y="544"/>
      <point x="90" y="537"/>
    </contour>
  </outline>
</glyph>
